<svg xmlns="http://www.w3.org/2000/svg" viewBox="-162 -166 342 293" width="342" height="293">
<defs>
<radialGradient id="gC" cx="40%" cy="35%" r="70%"><stop offset="0" stop-color="#c9c9c9"/><stop offset="1" stop-color="#9d9d9d"/></radialGradient>
<radialGradient id="gH" cx="40%" cy="35%" r="70%"><stop offset="0" stop-color="#dfdfdf"/><stop offset="1" stop-color="#c6c6c6"/></radialGradient>
<radialGradient id="gN" cx="40%" cy="35%" r="70%"><stop offset="0" stop-color="#a4b5ea"/><stop offset="1" stop-color="#5a79d9"/></radialGradient>
<radialGradient id="gO" cx="40%" cy="35%" r="70%"><stop offset="0" stop-color="#f0918b"/><stop offset="1" stop-color="#e5382d"/></radialGradient>
<radialGradient id="gP" cx="40%" cy="35%" r="70%"><stop offset="0" stop-color="#f6c38a"/><stop offset="1" stop-color="#f0932b"/></radialGradient>
<radialGradient id="gS" cx="40%" cy="35%" r="70%"><stop offset="0" stop-color="#efe499"/><stop offset="1" stop-color="#e3cf46"/></radialGradient>
<radialGradient id="gMg" cx="40%" cy="35%" r="70%"><stop offset="0" stop-color="#b8e4b8"/><stop offset="1" stop-color="#7fcf7f"/></radialGradient>
<radialGradient id="gX" cx="40%" cy="35%" r="70%"><stop offset="0" stop-color="#e0e0e0"/><stop offset="1" stop-color="#b0b0b0"/></radialGradient>
</defs>
<g fill="#111" stroke="#111" stroke-linecap="round" stroke-linejoin="round">
<line x1="-58.3" y1="7.3" x2="8.3" y2="-27.1" stroke-width="70.0"/>
<line x1="8.3" y1="-27.1" x2="71.4" y2="13.4" stroke-width="70.0"/>
<line x1="8.3" y1="-27.1" x2="11.9" y2="-102.0" stroke-width="70.0"/>
<line x1="-58.3" y1="7.3" x2="-31.6" y2="49.5" stroke-width="70.0"/>
<line x1="-58.3" y1="7.3" x2="-88.6" y2="-32.5" stroke-width="70.0"/>
<line x1="-58.3" y1="7.3" x2="-98.1" y2="37.6" stroke-width="70.0"/>
<line x1="71.4" y1="13.4" x2="115.9" y2="-9.5" stroke-width="70.0"/>
<line x1="71.4" y1="13.4" x2="69.1" y2="63.4" stroke-width="70.0"/>
<line x1="-58.3" y1="7.3" x2="8.3" y2="-27.1" stroke-width="70.0"/>
<line x1="-58.3" y1="7.3" x2="71.4" y2="13.4" stroke-width="70.0"/>
<line x1="-58.3" y1="7.3" x2="11.9" y2="-102.0" stroke-width="70.0"/>
<line x1="-58.3" y1="7.3" x2="-31.6" y2="49.5" stroke-width="70.0"/>
<line x1="-58.3" y1="7.3" x2="-88.6" y2="-32.5" stroke-width="70.0"/>
<line x1="-58.3" y1="7.3" x2="-98.1" y2="37.6" stroke-width="70.0"/>
<line x1="-58.3" y1="7.3" x2="69.1" y2="63.4" stroke-width="70.0"/>
<line x1="8.3" y1="-27.1" x2="71.4" y2="13.4" stroke-width="70.0"/>
<line x1="8.3" y1="-27.1" x2="11.9" y2="-102.0" stroke-width="70.0"/>
<line x1="8.3" y1="-27.1" x2="-31.6" y2="49.5" stroke-width="70.0"/>
<line x1="8.3" y1="-27.1" x2="-88.6" y2="-32.5" stroke-width="70.0"/>
<line x1="8.3" y1="-27.1" x2="-98.1" y2="37.6" stroke-width="70.0"/>
<line x1="8.3" y1="-27.1" x2="115.9" y2="-9.5" stroke-width="70.0"/>
<line x1="8.3" y1="-27.1" x2="69.1" y2="63.4" stroke-width="70.0"/>
<line x1="71.4" y1="13.4" x2="11.9" y2="-102.0" stroke-width="70.0"/>
<line x1="71.4" y1="13.4" x2="-31.6" y2="49.5" stroke-width="70.0"/>
<line x1="71.4" y1="13.4" x2="115.9" y2="-9.5" stroke-width="70.0"/>
<line x1="71.4" y1="13.4" x2="69.1" y2="63.4" stroke-width="70.0"/>
<line x1="11.9" y1="-102.0" x2="-88.6" y2="-32.5" stroke-width="70.0"/>
<line x1="11.9" y1="-102.0" x2="115.9" y2="-9.5" stroke-width="70.0"/>
<line x1="-31.6" y1="49.5" x2="-88.6" y2="-32.5" stroke-width="70.0"/>
<line x1="-31.6" y1="49.5" x2="-98.1" y2="37.6" stroke-width="70.0"/>
<line x1="-31.6" y1="49.5" x2="69.1" y2="63.4" stroke-width="70.0"/>
<line x1="-88.6" y1="-32.5" x2="-98.1" y2="37.6" stroke-width="70.0"/>
<line x1="115.9" y1="-9.5" x2="69.1" y2="63.4" stroke-width="70.0"/>
<circle cx="-58.3" cy="7.3" r="56.0" stroke="none"/>
<circle cx="8.3" cy="-27.1" r="56.0" stroke="none"/>
<circle cx="71.4" cy="13.4" r="56.0" stroke="none"/>
<circle cx="11.9" cy="-102.0" r="56.0" stroke="none"/>
<circle cx="-31.6" cy="49.5" r="50.0" stroke="none"/>
<circle cx="-88.6" cy="-32.5" r="50.0" stroke="none"/>
<circle cx="-98.1" cy="37.6" r="50.0" stroke="none"/>
<circle cx="115.9" cy="-9.5" r="50.0" stroke="none"/>
<circle cx="69.1" cy="63.4" r="50.0" stroke="none"/>
</g>
<g fill="#e8221c" stroke="#e8221c" stroke-linecap="round" stroke-linejoin="round">
<line x1="-58.3" y1="7.3" x2="8.3" y2="-27.1" stroke-width="60.0"/>
<line x1="8.3" y1="-27.1" x2="71.4" y2="13.4" stroke-width="60.0"/>
<line x1="8.3" y1="-27.1" x2="11.9" y2="-102.0" stroke-width="60.0"/>
<line x1="-58.3" y1="7.3" x2="-31.6" y2="49.5" stroke-width="60.0"/>
<line x1="-58.3" y1="7.3" x2="-88.6" y2="-32.5" stroke-width="60.0"/>
<line x1="-58.3" y1="7.3" x2="-98.1" y2="37.6" stroke-width="60.0"/>
<line x1="71.4" y1="13.4" x2="115.9" y2="-9.5" stroke-width="60.0"/>
<line x1="71.4" y1="13.4" x2="69.1" y2="63.4" stroke-width="60.0"/>
<line x1="-58.3" y1="7.3" x2="8.3" y2="-27.1" stroke-width="60.0"/>
<line x1="-58.3" y1="7.3" x2="71.4" y2="13.4" stroke-width="60.0"/>
<line x1="-58.3" y1="7.3" x2="11.9" y2="-102.0" stroke-width="60.0"/>
<line x1="-58.3" y1="7.3" x2="-31.6" y2="49.5" stroke-width="60.0"/>
<line x1="-58.3" y1="7.3" x2="-88.6" y2="-32.5" stroke-width="60.0"/>
<line x1="-58.3" y1="7.3" x2="-98.1" y2="37.6" stroke-width="60.0"/>
<line x1="-58.3" y1="7.3" x2="69.1" y2="63.4" stroke-width="60.0"/>
<line x1="8.3" y1="-27.1" x2="71.4" y2="13.4" stroke-width="60.0"/>
<line x1="8.3" y1="-27.1" x2="11.9" y2="-102.0" stroke-width="60.0"/>
<line x1="8.3" y1="-27.1" x2="-31.6" y2="49.5" stroke-width="60.0"/>
<line x1="8.3" y1="-27.1" x2="-88.6" y2="-32.5" stroke-width="60.0"/>
<line x1="8.3" y1="-27.1" x2="-98.1" y2="37.6" stroke-width="60.0"/>
<line x1="8.3" y1="-27.1" x2="115.9" y2="-9.5" stroke-width="60.0"/>
<line x1="8.3" y1="-27.1" x2="69.1" y2="63.4" stroke-width="60.0"/>
<line x1="71.4" y1="13.4" x2="11.9" y2="-102.0" stroke-width="60.0"/>
<line x1="71.4" y1="13.4" x2="-31.6" y2="49.5" stroke-width="60.0"/>
<line x1="71.4" y1="13.4" x2="115.9" y2="-9.5" stroke-width="60.0"/>
<line x1="71.4" y1="13.4" x2="69.1" y2="63.4" stroke-width="60.0"/>
<line x1="11.9" y1="-102.0" x2="-88.6" y2="-32.5" stroke-width="60.0"/>
<line x1="11.9" y1="-102.0" x2="115.9" y2="-9.5" stroke-width="60.0"/>
<line x1="-31.6" y1="49.5" x2="-88.6" y2="-32.5" stroke-width="60.0"/>
<line x1="-31.6" y1="49.5" x2="-98.1" y2="37.6" stroke-width="60.0"/>
<line x1="-31.6" y1="49.5" x2="69.1" y2="63.4" stroke-width="60.0"/>
<line x1="-88.6" y1="-32.5" x2="-98.1" y2="37.6" stroke-width="60.0"/>
<line x1="115.9" y1="-9.5" x2="69.1" y2="63.4" stroke-width="60.0"/>
<circle cx="-58.3" cy="7.3" r="51.0" stroke="none"/>
<circle cx="8.3" cy="-27.1" r="51.0" stroke="none"/>
<circle cx="71.4" cy="13.4" r="51.0" stroke="none"/>
<circle cx="11.9" cy="-102.0" r="51.0" stroke="none"/>
<circle cx="-31.6" cy="49.5" r="45.0" stroke="none"/>
<circle cx="-88.6" cy="-32.5" r="45.0" stroke="none"/>
<circle cx="-98.1" cy="37.6" r="45.0" stroke="none"/>
<circle cx="115.9" cy="-9.5" r="45.0" stroke="none"/>
<circle cx="69.1" cy="63.4" r="45.0" stroke="none"/>
</g>
<g stroke="#111" stroke-width="6" stroke-linecap="round">
<line x1="-58.3" y1="7.3" x2="8.3" y2="-27.1"/>
<line x1="8.3" y1="-27.1" x2="71.4" y2="13.4"/>
<line x1="1.3" y1="-27.4" x2="4.9" y2="-102.4"/>
<line x1="15.3" y1="-26.8" x2="18.9" y2="-101.7"/>
<line x1="-58.3" y1="7.3" x2="-31.6" y2="49.5"/>
<line x1="-58.3" y1="7.3" x2="-88.6" y2="-32.5"/>
<line x1="-58.3" y1="7.3" x2="-98.1" y2="37.6"/>
<line x1="71.4" y1="13.4" x2="115.9" y2="-9.5"/>
<line x1="71.4" y1="13.4" x2="69.1" y2="63.4"/>
</g>
<circle cx="-58.3" cy="7.3" r="21" fill="url(#gC)" stroke="#111" stroke-width="3"/>
<text x="-58.3" y="8.2" text-anchor="middle" dominant-baseline="central" font-family="Arial, Helvetica, sans-serif" font-weight="bold" font-size="24" fill="#111">C</text>
<circle cx="8.3" cy="-27.1" r="21" fill="url(#gC)" stroke="#111" stroke-width="3"/>
<text x="8.3" y="-26.1" text-anchor="middle" dominant-baseline="central" font-family="Arial, Helvetica, sans-serif" font-weight="bold" font-size="24" fill="#111">C</text>
<circle cx="71.4" cy="13.4" r="21" fill="url(#gN)" stroke="#111" stroke-width="3"/>
<text x="71.4" y="14.4" text-anchor="middle" dominant-baseline="central" font-family="Arial, Helvetica, sans-serif" font-weight="bold" font-size="24" fill="#111">N</text>
<circle cx="11.9" cy="-102.0" r="21" fill="url(#gO)" stroke="#111" stroke-width="3"/>
<text x="11.9" y="-101.1" text-anchor="middle" dominant-baseline="central" font-family="Arial, Helvetica, sans-serif" font-weight="bold" font-size="24" fill="#111">O</text>
<circle cx="-31.6" cy="49.5" r="15" fill="url(#gH)" stroke="#111" stroke-width="3"/>
<text x="-31.6" y="50.2" text-anchor="middle" dominant-baseline="central" font-family="Arial, Helvetica, sans-serif" font-weight="bold" font-size="17" fill="#111">H</text>
<circle cx="-88.6" cy="-32.5" r="15" fill="url(#gH)" stroke="#111" stroke-width="3"/>
<text x="-88.6" y="-31.8" text-anchor="middle" dominant-baseline="central" font-family="Arial, Helvetica, sans-serif" font-weight="bold" font-size="17" fill="#111">H</text>
<circle cx="-98.1" cy="37.6" r="15" fill="url(#gH)" stroke="#111" stroke-width="3"/>
<text x="-98.1" y="38.3" text-anchor="middle" dominant-baseline="central" font-family="Arial, Helvetica, sans-serif" font-weight="bold" font-size="17" fill="#111">H</text>
<circle cx="115.9" cy="-9.5" r="15" fill="url(#gH)" stroke="#111" stroke-width="3"/>
<text x="115.9" y="-8.8" text-anchor="middle" dominant-baseline="central" font-family="Arial, Helvetica, sans-serif" font-weight="bold" font-size="17" fill="#111">H</text>
<circle cx="69.1" cy="63.4" r="15" fill="url(#gH)" stroke="#111" stroke-width="3"/>
<text x="69.1" y="64.0" text-anchor="middle" dominant-baseline="central" font-family="Arial, Helvetica, sans-serif" font-weight="bold" font-size="17" fill="#111">H</text>
</svg>