<svg xmlns="http://www.w3.org/2000/svg" viewBox="-316 -186 607 382" width="607" height="382">
<defs>
<radialGradient id="gC" cx="40%" cy="35%" r="70%"><stop offset="0" stop-color="#c9c9c9"/><stop offset="1" stop-color="#9d9d9d"/></radialGradient>
<radialGradient id="gH" cx="40%" cy="35%" r="70%"><stop offset="0" stop-color="#dfdfdf"/><stop offset="1" stop-color="#c6c6c6"/></radialGradient>
<radialGradient id="gN" cx="40%" cy="35%" r="70%"><stop offset="0" stop-color="#a4b5ea"/><stop offset="1" stop-color="#5a79d9"/></radialGradient>
<radialGradient id="gO" cx="40%" cy="35%" r="70%"><stop offset="0" stop-color="#f0918b"/><stop offset="1" stop-color="#e5382d"/></radialGradient>
<radialGradient id="gP" cx="40%" cy="35%" r="70%"><stop offset="0" stop-color="#f6c38a"/><stop offset="1" stop-color="#f0932b"/></radialGradient>
<radialGradient id="gS" cx="40%" cy="35%" r="70%"><stop offset="0" stop-color="#efe499"/><stop offset="1" stop-color="#e3cf46"/></radialGradient>
<radialGradient id="gMg" cx="40%" cy="35%" r="70%"><stop offset="0" stop-color="#b8e4b8"/><stop offset="1" stop-color="#7fcf7f"/></radialGradient>
<radialGradient id="gX" cx="40%" cy="35%" r="70%"><stop offset="0" stop-color="#e0e0e0"/><stop offset="1" stop-color="#b0b0b0"/></radialGradient>
<linearGradient id="l0" gradientUnits="userSpaceOnUse" x1="-127.7" y1="96.6" x2="-78.0" y2="40.4"><stop offset="0.45" stop-color="#ec736c"/><stop offset="0.55" stop-color="#bababa"/></linearGradient>
<linearGradient id="l1" gradientUnits="userSpaceOnUse" x1="-127.7" y1="96.6" x2="-101.9" y2="-30.7"><stop offset="0.39" stop-color="#ec736c"/><stop offset="0.61" stop-color="#ec736c"/></linearGradient>
<linearGradient id="l2" gradientUnits="userSpaceOnUse" x1="-127.7" y1="96.6" x2="-190.3" y2="27.9"><stop offset="0.45" stop-color="#ec736c"/><stop offset="0.55" stop-color="#ec736c"/></linearGradient>
<linearGradient id="l3" gradientUnits="userSpaceOnUse" x1="-127.7" y1="96.6" x2="-4.5" y2="55.4"><stop offset="0.39" stop-color="#ec736c"/><stop offset="0.61" stop-color="#bababa"/></linearGradient>
<linearGradient id="l4" gradientUnits="userSpaceOnUse" x1="-78.0" y1="40.4" x2="-101.9" y2="-30.7"><stop offset="0.45" stop-color="#bababa"/><stop offset="0.55" stop-color="#ec736c"/></linearGradient>
<linearGradient id="l5" gradientUnits="userSpaceOnUse" x1="-78.0" y1="40.4" x2="-175.4" y2="-45.6"><stop offset="0.39" stop-color="#bababa"/><stop offset="0.58" stop-color="#f4b36a"/></linearGradient>
<linearGradient id="l6" gradientUnits="userSpaceOnUse" x1="-78.0" y1="40.4" x2="-190.3" y2="27.9"><stop offset="0.45" stop-color="#bababa"/><stop offset="0.55" stop-color="#ec736c"/></linearGradient>
<linearGradient id="l7" gradientUnits="userSpaceOnUse" x1="-78.0" y1="40.4" x2="-4.5" y2="55.4"><stop offset="0.45" stop-color="#bababa"/><stop offset="0.55" stop-color="#bababa"/></linearGradient>
<linearGradient id="l8" gradientUnits="userSpaceOnUse" x1="-78.0" y1="40.4" x2="19.3" y2="126.5"><stop offset="0.39" stop-color="#bababa"/><stop offset="0.61" stop-color="#ec736c"/></linearGradient>
<linearGradient id="l9" gradientUnits="userSpaceOnUse" x1="-78.0" y1="40.4" x2="45.1" y2="-0.8"><stop offset="0.39" stop-color="#bababa"/><stop offset="0.61" stop-color="#bababa"/></linearGradient>
<linearGradient id="l10" gradientUnits="userSpaceOnUse" x1="-78.0" y1="40.4" x2="44.2" y2="66.5"><stop offset="0.41" stop-color="#bababa"/><stop offset="0.64" stop-color="#d7d7d7"/></linearGradient>
<linearGradient id="l11" gradientUnits="userSpaceOnUse" x1="-78.0" y1="40.4" x2="3.1" y2="-27.9"><stop offset="0.45" stop-color="#bababa"/><stop offset="0.58" stop-color="#d7d7d7"/></linearGradient>
<linearGradient id="l12" gradientUnits="userSpaceOnUse" x1="-101.9" y1="-30.7" x2="-175.4" y2="-45.6"><stop offset="0.45" stop-color="#ec736c"/><stop offset="0.55" stop-color="#f4b36a"/></linearGradient>
<linearGradient id="l13" gradientUnits="userSpaceOnUse" x1="-101.9" y1="-30.7" x2="-160.4" y2="-119.1"><stop offset="0.45" stop-color="#ec736c"/><stop offset="0.55" stop-color="#ec736c"/></linearGradient>
<linearGradient id="l14" gradientUnits="userSpaceOnUse" x1="-101.9" y1="-30.7" x2="-190.3" y2="27.9"><stop offset="0.45" stop-color="#ec736c"/><stop offset="0.55" stop-color="#ec736c"/></linearGradient>
<linearGradient id="l15" gradientUnits="userSpaceOnUse" x1="-101.9" y1="-30.7" x2="-4.5" y2="55.4"><stop offset="0.39" stop-color="#ec736c"/><stop offset="0.61" stop-color="#bababa"/></linearGradient>
<linearGradient id="l16" gradientUnits="userSpaceOnUse" x1="-101.9" y1="-30.7" x2="3.1" y2="-27.9"><stop offset="0.45" stop-color="#ec736c"/><stop offset="0.57" stop-color="#d7d7d7"/></linearGradient>
<linearGradient id="l17" gradientUnits="userSpaceOnUse" x1="-175.4" y1="-45.6" x2="-160.4" y2="-119.1"><stop offset="0.45" stop-color="#f4b36a"/><stop offset="0.55" stop-color="#ec736c"/></linearGradient>
<linearGradient id="l18" gradientUnits="userSpaceOnUse" x1="-175.4" y1="-45.6" x2="-190.3" y2="27.9"><stop offset="0.45" stop-color="#f4b36a"/><stop offset="0.55" stop-color="#ec736c"/></linearGradient>
<linearGradient id="l19" gradientUnits="userSpaceOnUse" x1="-175.4" y1="-45.6" x2="-248.9" y2="-60.6"><stop offset="0.45" stop-color="#f4b36a"/><stop offset="0.55" stop-color="#ec736c"/></linearGradient>
<linearGradient id="l20" gradientUnits="userSpaceOnUse" x1="-160.4" y1="-119.1" x2="-248.9" y2="-60.6"><stop offset="0.45" stop-color="#ec736c"/><stop offset="0.55" stop-color="#ec736c"/></linearGradient>
<linearGradient id="l21" gradientUnits="userSpaceOnUse" x1="-190.3" y1="27.9" x2="-248.9" y2="-60.6"><stop offset="0.45" stop-color="#ec736c"/><stop offset="0.55" stop-color="#ec736c"/></linearGradient>
<linearGradient id="l22" gradientUnits="userSpaceOnUse" x1="-4.5" y1="55.4" x2="19.3" y2="126.5"><stop offset="0.45" stop-color="#bababa"/><stop offset="0.55" stop-color="#ec736c"/></linearGradient>
<linearGradient id="l23" gradientUnits="userSpaceOnUse" x1="-4.5" y1="55.4" x2="45.1" y2="-0.8"><stop offset="0.45" stop-color="#bababa"/><stop offset="0.55" stop-color="#bababa"/></linearGradient>
<linearGradient id="l24" gradientUnits="userSpaceOnUse" x1="-4.5" y1="55.4" x2="118.6" y2="14.1"><stop offset="0.39" stop-color="#bababa"/><stop offset="0.61" stop-color="#ec736c"/></linearGradient>
<linearGradient id="l25" gradientUnits="userSpaceOnUse" x1="-4.5" y1="55.4" x2="44.2" y2="66.5"><stop offset="0.45" stop-color="#bababa"/><stop offset="0.55" stop-color="#d7d7d7"/></linearGradient>
<linearGradient id="l26" gradientUnits="userSpaceOnUse" x1="-4.5" y1="55.4" x2="69.2" y2="128.9"><stop offset="0.45" stop-color="#bababa"/><stop offset="0.57" stop-color="#d7d7d7"/></linearGradient>
<linearGradient id="l27" gradientUnits="userSpaceOnUse" x1="-4.5" y1="55.4" x2="3.1" y2="-27.9"><stop offset="0.45" stop-color="#bababa"/><stop offset="0.55" stop-color="#d7d7d7"/></linearGradient>
<linearGradient id="l28" gradientUnits="userSpaceOnUse" x1="-4.5" y1="55.4" x2="64.5" y2="-46.9"><stop offset="0.41" stop-color="#bababa"/><stop offset="0.64" stop-color="#d7d7d7"/></linearGradient>
<linearGradient id="l29" gradientUnits="userSpaceOnUse" x1="19.3" y1="126.5" x2="45.1" y2="-0.8"><stop offset="0.39" stop-color="#ec736c"/><stop offset="0.61" stop-color="#bababa"/></linearGradient>
<linearGradient id="l30" gradientUnits="userSpaceOnUse" x1="19.3" y1="126.5" x2="118.6" y2="14.1"><stop offset="0.34" stop-color="#ec736c"/><stop offset="0.66" stop-color="#ec736c"/></linearGradient>
<linearGradient id="l31" gradientUnits="userSpaceOnUse" x1="19.3" y1="126.5" x2="44.2" y2="66.5"><stop offset="0.45" stop-color="#ec736c"/><stop offset="0.55" stop-color="#d7d7d7"/></linearGradient>
<linearGradient id="l32" gradientUnits="userSpaceOnUse" x1="19.3" y1="126.5" x2="69.2" y2="128.9"><stop offset="0.45" stop-color="#ec736c"/><stop offset="0.55" stop-color="#d7d7d7"/></linearGradient>
<linearGradient id="l33" gradientUnits="userSpaceOnUse" x1="45.1" y1="-0.8" x2="118.6" y2="14.1"><stop offset="0.45" stop-color="#bababa"/><stop offset="0.55" stop-color="#ec736c"/></linearGradient>
<linearGradient id="l34" gradientUnits="userSpaceOnUse" x1="45.1" y1="-0.8" x2="168.3" y2="-42.1"><stop offset="0.39" stop-color="#bababa"/><stop offset="0.58" stop-color="#f4b36a"/></linearGradient>
<linearGradient id="l35" gradientUnits="userSpaceOnUse" x1="45.1" y1="-0.8" x2="112.1" y2="-91.8"><stop offset="0.45" stop-color="#bababa"/><stop offset="0.55" stop-color="#ec736c"/></linearGradient>
<linearGradient id="l36" gradientUnits="userSpaceOnUse" x1="45.1" y1="-0.8" x2="44.2" y2="66.5"><stop offset="0.45" stop-color="#bababa"/><stop offset="0.55" stop-color="#d7d7d7"/></linearGradient>
<linearGradient id="l37" gradientUnits="userSpaceOnUse" x1="45.1" y1="-0.8" x2="69.2" y2="128.9"><stop offset="0.39" stop-color="#bababa"/><stop offset="0.66" stop-color="#d7d7d7"/></linearGradient>
<linearGradient id="l38" gradientUnits="userSpaceOnUse" x1="45.1" y1="-0.8" x2="3.1" y2="-27.9"><stop offset="0.45" stop-color="#bababa"/><stop offset="0.55" stop-color="#d7d7d7"/></linearGradient>
<linearGradient id="l39" gradientUnits="userSpaceOnUse" x1="45.1" y1="-0.8" x2="64.5" y2="-46.9"><stop offset="0.45" stop-color="#bababa"/><stop offset="0.55" stop-color="#d7d7d7"/></linearGradient>
<linearGradient id="l40" gradientUnits="userSpaceOnUse" x1="118.6" y1="14.1" x2="168.3" y2="-42.1"><stop offset="0.45" stop-color="#ec736c"/><stop offset="0.55" stop-color="#f4b36a"/></linearGradient>
<linearGradient id="l41" gradientUnits="userSpaceOnUse" x1="118.6" y1="14.1" x2="224.5" y2="7.6"><stop offset="0.45" stop-color="#ec736c"/><stop offset="0.55" stop-color="#ec736c"/></linearGradient>
<linearGradient id="l42" gradientUnits="userSpaceOnUse" x1="118.6" y1="14.1" x2="112.1" y2="-91.8"><stop offset="0.45" stop-color="#ec736c"/><stop offset="0.55" stop-color="#ec736c"/></linearGradient>
<linearGradient id="l43" gradientUnits="userSpaceOnUse" x1="118.6" y1="14.1" x2="218.0" y2="-98.3"><stop offset="0.34" stop-color="#ec736c"/><stop offset="0.66" stop-color="#ec736c"/></linearGradient>
<linearGradient id="l44" gradientUnits="userSpaceOnUse" x1="118.6" y1="14.1" x2="44.2" y2="66.5"><stop offset="0.45" stop-color="#ec736c"/><stop offset="0.55" stop-color="#d7d7d7"/></linearGradient>
<linearGradient id="l45" gradientUnits="userSpaceOnUse" x1="118.6" y1="14.1" x2="69.2" y2="128.9"><stop offset="0.41" stop-color="#ec736c"/><stop offset="0.64" stop-color="#d7d7d7"/></linearGradient>
<linearGradient id="l46" gradientUnits="userSpaceOnUse" x1="118.6" y1="14.1" x2="3.1" y2="-27.9"><stop offset="0.41" stop-color="#ec736c"/><stop offset="0.63" stop-color="#d7d7d7"/></linearGradient>
<linearGradient id="l47" gradientUnits="userSpaceOnUse" x1="118.6" y1="14.1" x2="64.5" y2="-46.9"><stop offset="0.45" stop-color="#ec736c"/><stop offset="0.55" stop-color="#d7d7d7"/></linearGradient>
<linearGradient id="l48" gradientUnits="userSpaceOnUse" x1="168.3" y1="-42.1" x2="224.5" y2="7.6"><stop offset="0.45" stop-color="#f4b36a"/><stop offset="0.55" stop-color="#ec736c"/></linearGradient>
<linearGradient id="l49" gradientUnits="userSpaceOnUse" x1="168.3" y1="-42.1" x2="112.1" y2="-91.8"><stop offset="0.45" stop-color="#f4b36a"/><stop offset="0.55" stop-color="#ec736c"/></linearGradient>
<linearGradient id="l50" gradientUnits="userSpaceOnUse" x1="168.3" y1="-42.1" x2="218.0" y2="-98.3"><stop offset="0.45" stop-color="#f4b36a"/><stop offset="0.55" stop-color="#ec736c"/></linearGradient>
<linearGradient id="l51" gradientUnits="userSpaceOnUse" x1="168.3" y1="-42.1" x2="64.5" y2="-46.9"><stop offset="0.45" stop-color="#f4b36a"/><stop offset="0.57" stop-color="#d7d7d7"/></linearGradient>
<linearGradient id="l52" gradientUnits="userSpaceOnUse" x1="224.5" y1="7.6" x2="218.0" y2="-98.3"><stop offset="0.45" stop-color="#ec736c"/><stop offset="0.55" stop-color="#ec736c"/></linearGradient>
<linearGradient id="l53" gradientUnits="userSpaceOnUse" x1="112.1" y1="-91.8" x2="218.0" y2="-98.3"><stop offset="0.45" stop-color="#ec736c"/><stop offset="0.55" stop-color="#ec736c"/></linearGradient>
<linearGradient id="l54" gradientUnits="userSpaceOnUse" x1="112.1" y1="-91.8" x2="3.1" y2="-27.9"><stop offset="0.40" stop-color="#ec736c"/><stop offset="0.64" stop-color="#d7d7d7"/></linearGradient>
<linearGradient id="l55" gradientUnits="userSpaceOnUse" x1="112.1" y1="-91.8" x2="64.5" y2="-46.9"><stop offset="0.45" stop-color="#ec736c"/><stop offset="0.55" stop-color="#d7d7d7"/></linearGradient>
<linearGradient id="l56" gradientUnits="userSpaceOnUse" x1="44.2" y1="66.5" x2="69.2" y2="128.9"><stop offset="0.45" stop-color="#d7d7d7"/><stop offset="0.55" stop-color="#d7d7d7"/></linearGradient>
<linearGradient id="l57" gradientUnits="userSpaceOnUse" x1="44.2" y1="66.5" x2="3.1" y2="-27.9"><stop offset="0.44" stop-color="#d7d7d7"/><stop offset="0.56" stop-color="#d7d7d7"/></linearGradient>
<linearGradient id="l58" gradientUnits="userSpaceOnUse" x1="44.2" y1="66.5" x2="64.5" y2="-46.9"><stop offset="0.39" stop-color="#d7d7d7"/><stop offset="0.61" stop-color="#d7d7d7"/></linearGradient>
<linearGradient id="l59" gradientUnits="userSpaceOnUse" x1="3.1" y1="-27.9" x2="64.5" y2="-46.9"><stop offset="0.45" stop-color="#d7d7d7"/><stop offset="0.55" stop-color="#d7d7d7"/></linearGradient>
<linearGradient id="l60" gradientUnits="userSpaceOnUse" x1="-127.7" y1="96.6" x2="-78.0" y2="40.4"><stop offset="0.45" stop-color="#ec736c"/><stop offset="0.55" stop-color="#bababa"/></linearGradient>
<linearGradient id="l61" gradientUnits="userSpaceOnUse" x1="-78.0" y1="40.4" x2="-101.9" y2="-30.7"><stop offset="0.45" stop-color="#bababa"/><stop offset="0.55" stop-color="#ec736c"/></linearGradient>
<linearGradient id="l62" gradientUnits="userSpaceOnUse" x1="-101.9" y1="-30.7" x2="-175.4" y2="-45.6"><stop offset="0.45" stop-color="#ec736c"/><stop offset="0.55" stop-color="#f4b36a"/></linearGradient>
<linearGradient id="l63" gradientUnits="userSpaceOnUse" x1="-175.4" y1="-45.6" x2="-160.4" y2="-119.1"><stop offset="0.45" stop-color="#f4b36a"/><stop offset="0.55" stop-color="#ec736c"/></linearGradient>
<linearGradient id="l64" gradientUnits="userSpaceOnUse" x1="-175.4" y1="-45.6" x2="-190.3" y2="27.9"><stop offset="0.45" stop-color="#f4b36a"/><stop offset="0.55" stop-color="#ec736c"/></linearGradient>
<linearGradient id="l65" gradientUnits="userSpaceOnUse" x1="-175.4" y1="-45.6" x2="-248.9" y2="-60.6"><stop offset="0.45" stop-color="#f4b36a"/><stop offset="0.55" stop-color="#ec736c"/></linearGradient>
<linearGradient id="l66" gradientUnits="userSpaceOnUse" x1="-78.0" y1="40.4" x2="-4.5" y2="55.4"><stop offset="0.45" stop-color="#bababa"/><stop offset="0.55" stop-color="#bababa"/></linearGradient>
<linearGradient id="l67" gradientUnits="userSpaceOnUse" x1="-4.5" y1="55.4" x2="19.3" y2="126.5"><stop offset="0.45" stop-color="#bababa"/><stop offset="0.55" stop-color="#ec736c"/></linearGradient>
<linearGradient id="l68" gradientUnits="userSpaceOnUse" x1="-4.5" y1="55.4" x2="45.1" y2="-0.8"><stop offset="0.45" stop-color="#bababa"/><stop offset="0.55" stop-color="#bababa"/></linearGradient>
<linearGradient id="l69" gradientUnits="userSpaceOnUse" x1="45.1" y1="-0.8" x2="118.6" y2="14.1"><stop offset="0.45" stop-color="#bababa"/><stop offset="0.55" stop-color="#ec736c"/></linearGradient>
<linearGradient id="l70" gradientUnits="userSpaceOnUse" x1="118.6" y1="14.1" x2="168.3" y2="-42.1"><stop offset="0.45" stop-color="#ec736c"/><stop offset="0.55" stop-color="#f4b36a"/></linearGradient>
<linearGradient id="l71" gradientUnits="userSpaceOnUse" x1="168.3" y1="-42.1" x2="224.5" y2="7.6"><stop offset="0.45" stop-color="#f4b36a"/><stop offset="0.55" stop-color="#ec736c"/></linearGradient>
<linearGradient id="l72" gradientUnits="userSpaceOnUse" x1="168.3" y1="-42.1" x2="112.1" y2="-91.8"><stop offset="0.45" stop-color="#f4b36a"/><stop offset="0.55" stop-color="#ec736c"/></linearGradient>
<linearGradient id="l73" gradientUnits="userSpaceOnUse" x1="168.3" y1="-42.1" x2="218.0" y2="-98.3"><stop offset="0.45" stop-color="#f4b36a"/><stop offset="0.55" stop-color="#ec736c"/></linearGradient>
<linearGradient id="l74" gradientUnits="userSpaceOnUse" x1="-4.5" y1="55.4" x2="44.2" y2="66.5"><stop offset="0.45" stop-color="#bababa"/><stop offset="0.55" stop-color="#d7d7d7"/></linearGradient>
<linearGradient id="l75" gradientUnits="userSpaceOnUse" x1="19.3" y1="126.5" x2="69.2" y2="128.9"><stop offset="0.45" stop-color="#ec736c"/><stop offset="0.55" stop-color="#d7d7d7"/></linearGradient>
<linearGradient id="l76" gradientUnits="userSpaceOnUse" x1="45.1" y1="-0.8" x2="3.1" y2="-27.9"><stop offset="0.45" stop-color="#bababa"/><stop offset="0.55" stop-color="#d7d7d7"/></linearGradient>
<linearGradient id="l77" gradientUnits="userSpaceOnUse" x1="45.1" y1="-0.8" x2="64.5" y2="-46.9"><stop offset="0.45" stop-color="#bababa"/><stop offset="0.55" stop-color="#d7d7d7"/></linearGradient>
</defs>
<g fill="#111" stroke="#111" stroke-linecap="round" stroke-linejoin="round">
<line x1="-127.7" y1="96.6" x2="-78.0" y2="40.4" stroke-width="70.0"/>
<line x1="-78.0" y1="40.4" x2="-101.9" y2="-30.7" stroke-width="70.0"/>
<line x1="-101.9" y1="-30.7" x2="-175.4" y2="-45.6" stroke-width="70.0"/>
<line x1="-175.4" y1="-45.6" x2="-160.4" y2="-119.1" stroke-width="70.0"/>
<line x1="-175.4" y1="-45.6" x2="-190.3" y2="27.9" stroke-width="70.0"/>
<line x1="-175.4" y1="-45.6" x2="-248.9" y2="-60.6" stroke-width="70.0"/>
<line x1="-78.0" y1="40.4" x2="-4.5" y2="55.4" stroke-width="70.0"/>
<line x1="-4.5" y1="55.4" x2="19.3" y2="126.5" stroke-width="70.0"/>
<line x1="-4.5" y1="55.4" x2="45.1" y2="-0.8" stroke-width="70.0"/>
<line x1="45.1" y1="-0.8" x2="118.6" y2="14.1" stroke-width="70.0"/>
<line x1="118.6" y1="14.1" x2="168.3" y2="-42.1" stroke-width="70.0"/>
<line x1="168.3" y1="-42.1" x2="224.5" y2="7.6" stroke-width="70.0"/>
<line x1="168.3" y1="-42.1" x2="112.1" y2="-91.8" stroke-width="70.0"/>
<line x1="168.3" y1="-42.1" x2="218.0" y2="-98.3" stroke-width="70.0"/>
<line x1="-4.5" y1="55.4" x2="44.2" y2="66.5" stroke-width="70.0"/>
<line x1="19.3" y1="126.5" x2="69.2" y2="128.9" stroke-width="70.0"/>
<line x1="45.1" y1="-0.8" x2="3.1" y2="-27.9" stroke-width="70.0"/>
<line x1="45.1" y1="-0.8" x2="64.5" y2="-46.9" stroke-width="70.0"/>
<line x1="-127.7" y1="96.6" x2="-78.0" y2="40.4" stroke-width="70.0"/>
<line x1="-127.7" y1="96.6" x2="-101.9" y2="-30.7" stroke-width="70.0"/>
<line x1="-127.7" y1="96.6" x2="-190.3" y2="27.9" stroke-width="70.0"/>
<line x1="-127.7" y1="96.6" x2="-4.5" y2="55.4" stroke-width="70.0"/>
<line x1="-78.0" y1="40.4" x2="-101.9" y2="-30.7" stroke-width="70.0"/>
<line x1="-78.0" y1="40.4" x2="-175.4" y2="-45.6" stroke-width="70.0"/>
<line x1="-78.0" y1="40.4" x2="-190.3" y2="27.9" stroke-width="70.0"/>
<line x1="-78.0" y1="40.4" x2="-4.5" y2="55.4" stroke-width="70.0"/>
<line x1="-78.0" y1="40.4" x2="19.3" y2="126.5" stroke-width="70.0"/>
<line x1="-78.0" y1="40.4" x2="45.1" y2="-0.8" stroke-width="70.0"/>
<line x1="-78.0" y1="40.4" x2="44.2" y2="66.5" stroke-width="70.0"/>
<line x1="-78.0" y1="40.4" x2="3.1" y2="-27.9" stroke-width="70.0"/>
<line x1="-101.9" y1="-30.7" x2="-175.4" y2="-45.6" stroke-width="70.0"/>
<line x1="-101.9" y1="-30.7" x2="-160.4" y2="-119.1" stroke-width="70.0"/>
<line x1="-101.9" y1="-30.7" x2="-190.3" y2="27.9" stroke-width="70.0"/>
<line x1="-101.9" y1="-30.7" x2="-4.5" y2="55.4" stroke-width="70.0"/>
<line x1="-101.9" y1="-30.7" x2="3.1" y2="-27.9" stroke-width="70.0"/>
<line x1="-175.4" y1="-45.6" x2="-160.4" y2="-119.1" stroke-width="70.0"/>
<line x1="-175.4" y1="-45.6" x2="-190.3" y2="27.9" stroke-width="70.0"/>
<line x1="-175.4" y1="-45.6" x2="-248.9" y2="-60.6" stroke-width="70.0"/>
<line x1="-160.4" y1="-119.1" x2="-248.9" y2="-60.6" stroke-width="70.0"/>
<line x1="-190.3" y1="27.9" x2="-248.9" y2="-60.6" stroke-width="70.0"/>
<line x1="-4.5" y1="55.4" x2="19.3" y2="126.5" stroke-width="70.0"/>
<line x1="-4.5" y1="55.4" x2="45.1" y2="-0.8" stroke-width="70.0"/>
<line x1="-4.5" y1="55.4" x2="118.6" y2="14.1" stroke-width="70.0"/>
<line x1="-4.5" y1="55.4" x2="44.2" y2="66.5" stroke-width="70.0"/>
<line x1="-4.5" y1="55.4" x2="69.2" y2="128.9" stroke-width="70.0"/>
<line x1="-4.5" y1="55.4" x2="3.1" y2="-27.9" stroke-width="70.0"/>
<line x1="-4.5" y1="55.4" x2="64.5" y2="-46.9" stroke-width="70.0"/>
<line x1="19.3" y1="126.5" x2="45.1" y2="-0.8" stroke-width="70.0"/>
<line x1="19.3" y1="126.5" x2="118.6" y2="14.1" stroke-width="70.0"/>
<line x1="19.3" y1="126.5" x2="44.2" y2="66.5" stroke-width="70.0"/>
<line x1="19.3" y1="126.5" x2="69.2" y2="128.9" stroke-width="70.0"/>
<line x1="45.1" y1="-0.8" x2="118.6" y2="14.1" stroke-width="70.0"/>
<line x1="45.1" y1="-0.8" x2="168.3" y2="-42.1" stroke-width="70.0"/>
<line x1="45.1" y1="-0.8" x2="112.1" y2="-91.8" stroke-width="70.0"/>
<line x1="45.1" y1="-0.8" x2="44.2" y2="66.5" stroke-width="70.0"/>
<line x1="45.1" y1="-0.8" x2="69.2" y2="128.9" stroke-width="70.0"/>
<line x1="45.1" y1="-0.8" x2="3.1" y2="-27.9" stroke-width="70.0"/>
<line x1="45.1" y1="-0.8" x2="64.5" y2="-46.9" stroke-width="70.0"/>
<line x1="118.6" y1="14.1" x2="168.3" y2="-42.1" stroke-width="70.0"/>
<line x1="118.6" y1="14.1" x2="224.5" y2="7.6" stroke-width="70.0"/>
<line x1="118.6" y1="14.1" x2="112.1" y2="-91.8" stroke-width="70.0"/>
<line x1="118.6" y1="14.1" x2="218.0" y2="-98.3" stroke-width="70.0"/>
<line x1="118.6" y1="14.1" x2="44.2" y2="66.5" stroke-width="70.0"/>
<line x1="118.6" y1="14.1" x2="69.2" y2="128.9" stroke-width="70.0"/>
<line x1="118.6" y1="14.1" x2="3.1" y2="-27.9" stroke-width="70.0"/>
<line x1="118.6" y1="14.1" x2="64.5" y2="-46.9" stroke-width="70.0"/>
<line x1="168.3" y1="-42.1" x2="224.5" y2="7.6" stroke-width="70.0"/>
<line x1="168.3" y1="-42.1" x2="112.1" y2="-91.8" stroke-width="70.0"/>
<line x1="168.3" y1="-42.1" x2="218.0" y2="-98.3" stroke-width="70.0"/>
<line x1="168.3" y1="-42.1" x2="64.5" y2="-46.9" stroke-width="70.0"/>
<line x1="224.5" y1="7.6" x2="218.0" y2="-98.3" stroke-width="70.0"/>
<line x1="112.1" y1="-91.8" x2="218.0" y2="-98.3" stroke-width="70.0"/>
<line x1="112.1" y1="-91.8" x2="3.1" y2="-27.9" stroke-width="70.0"/>
<line x1="112.1" y1="-91.8" x2="64.5" y2="-46.9" stroke-width="70.0"/>
<line x1="44.2" y1="66.5" x2="69.2" y2="128.9" stroke-width="70.0"/>
<line x1="44.2" y1="66.5" x2="3.1" y2="-27.9" stroke-width="70.0"/>
<line x1="44.2" y1="66.5" x2="64.5" y2="-46.9" stroke-width="70.0"/>
<line x1="3.1" y1="-27.9" x2="64.5" y2="-46.9" stroke-width="70.0"/>
<circle cx="-127.7" cy="96.6" r="56.0" stroke="none"/>
<circle cx="-78.0" cy="40.4" r="56.0" stroke="none"/>
<circle cx="-101.9" cy="-30.7" r="56.0" stroke="none"/>
<circle cx="-175.4" cy="-45.6" r="59.0" stroke="none"/>
<circle cx="-160.4" cy="-119.1" r="56.0" stroke="none"/>
<circle cx="-190.3" cy="27.9" r="56.0" stroke="none"/>
<circle cx="-248.9" cy="-60.6" r="56.0" stroke="none"/>
<circle cx="-4.5" cy="55.4" r="56.0" stroke="none"/>
<circle cx="19.3" cy="126.5" r="56.0" stroke="none"/>
<circle cx="45.1" cy="-0.8" r="56.0" stroke="none"/>
<circle cx="118.6" cy="14.1" r="56.0" stroke="none"/>
<circle cx="168.3" cy="-42.1" r="59.0" stroke="none"/>
<circle cx="224.5" cy="7.6" r="56.0" stroke="none"/>
<circle cx="112.1" cy="-91.8" r="56.0" stroke="none"/>
<circle cx="218.0" cy="-98.3" r="56.0" stroke="none"/>
<circle cx="44.2" cy="66.5" r="50.0" stroke="none"/>
<circle cx="69.2" cy="128.9" r="50.0" stroke="none"/>
<circle cx="3.1" cy="-27.9" r="50.0" stroke="none"/>
<circle cx="64.5" cy="-46.9" r="50.0" stroke="none"/>
</g>
<g stroke-linejoin="round">
<line x1="-127.7" y1="96.6" x2="-78.0" y2="40.4" stroke="url(#l0)" stroke-width="60.0" stroke-linecap="round"/>
<line x1="-127.7" y1="96.6" x2="-101.9" y2="-30.7" stroke="url(#l1)" stroke-width="60.0" stroke-linecap="round"/>
<line x1="-127.7" y1="96.6" x2="-190.3" y2="27.9" stroke="url(#l2)" stroke-width="60.0" stroke-linecap="round"/>
<line x1="-127.7" y1="96.6" x2="-4.5" y2="55.4" stroke="url(#l3)" stroke-width="60.0" stroke-linecap="round"/>
<line x1="-78.0" y1="40.4" x2="-101.9" y2="-30.7" stroke="url(#l4)" stroke-width="60.0" stroke-linecap="round"/>
<line x1="-78.0" y1="40.4" x2="-175.4" y2="-45.6" stroke="url(#l5)" stroke-width="60.0" stroke-linecap="round"/>
<line x1="-78.0" y1="40.4" x2="-190.3" y2="27.9" stroke="url(#l6)" stroke-width="60.0" stroke-linecap="round"/>
<line x1="-78.0" y1="40.4" x2="-4.5" y2="55.4" stroke="url(#l7)" stroke-width="60.0" stroke-linecap="round"/>
<line x1="-78.0" y1="40.4" x2="19.3" y2="126.5" stroke="url(#l8)" stroke-width="60.0" stroke-linecap="round"/>
<line x1="-78.0" y1="40.4" x2="45.1" y2="-0.8" stroke="url(#l9)" stroke-width="60.0" stroke-linecap="round"/>
<line x1="-78.0" y1="40.4" x2="44.2" y2="66.5" stroke="url(#l10)" stroke-width="60.0" stroke-linecap="round"/>
<line x1="-78.0" y1="40.4" x2="3.1" y2="-27.9" stroke="url(#l11)" stroke-width="60.0" stroke-linecap="round"/>
<line x1="-101.9" y1="-30.7" x2="-175.4" y2="-45.6" stroke="url(#l12)" stroke-width="60.0" stroke-linecap="round"/>
<line x1="-101.9" y1="-30.7" x2="-160.4" y2="-119.1" stroke="url(#l13)" stroke-width="60.0" stroke-linecap="round"/>
<line x1="-101.9" y1="-30.7" x2="-190.3" y2="27.9" stroke="url(#l14)" stroke-width="60.0" stroke-linecap="round"/>
<line x1="-101.9" y1="-30.7" x2="-4.5" y2="55.4" stroke="url(#l15)" stroke-width="60.0" stroke-linecap="round"/>
<line x1="-101.9" y1="-30.7" x2="3.1" y2="-27.9" stroke="url(#l16)" stroke-width="60.0" stroke-linecap="round"/>
<line x1="-175.4" y1="-45.6" x2="-160.4" y2="-119.1" stroke="url(#l17)" stroke-width="60.0" stroke-linecap="round"/>
<line x1="-175.4" y1="-45.6" x2="-190.3" y2="27.9" stroke="url(#l18)" stroke-width="60.0" stroke-linecap="round"/>
<line x1="-175.4" y1="-45.6" x2="-248.9" y2="-60.6" stroke="url(#l19)" stroke-width="60.0" stroke-linecap="round"/>
<line x1="-160.4" y1="-119.1" x2="-248.9" y2="-60.6" stroke="url(#l20)" stroke-width="60.0" stroke-linecap="round"/>
<line x1="-190.3" y1="27.9" x2="-248.9" y2="-60.6" stroke="url(#l21)" stroke-width="60.0" stroke-linecap="round"/>
<line x1="-4.5" y1="55.4" x2="19.3" y2="126.5" stroke="url(#l22)" stroke-width="60.0" stroke-linecap="round"/>
<line x1="-4.5" y1="55.4" x2="45.1" y2="-0.8" stroke="url(#l23)" stroke-width="60.0" stroke-linecap="round"/>
<line x1="-4.5" y1="55.4" x2="118.6" y2="14.1" stroke="url(#l24)" stroke-width="60.0" stroke-linecap="round"/>
<line x1="-4.5" y1="55.4" x2="44.2" y2="66.5" stroke="url(#l25)" stroke-width="60.0" stroke-linecap="round"/>
<line x1="-4.5" y1="55.4" x2="69.2" y2="128.9" stroke="url(#l26)" stroke-width="60.0" stroke-linecap="round"/>
<line x1="-4.5" y1="55.4" x2="3.1" y2="-27.9" stroke="url(#l27)" stroke-width="60.0" stroke-linecap="round"/>
<line x1="-4.5" y1="55.4" x2="64.5" y2="-46.9" stroke="url(#l28)" stroke-width="60.0" stroke-linecap="round"/>
<line x1="19.3" y1="126.5" x2="45.1" y2="-0.8" stroke="url(#l29)" stroke-width="60.0" stroke-linecap="round"/>
<line x1="19.3" y1="126.5" x2="118.6" y2="14.1" stroke="url(#l30)" stroke-width="60.0" stroke-linecap="round"/>
<line x1="19.3" y1="126.5" x2="44.2" y2="66.5" stroke="url(#l31)" stroke-width="60.0" stroke-linecap="round"/>
<line x1="19.3" y1="126.5" x2="69.2" y2="128.9" stroke="url(#l32)" stroke-width="60.0" stroke-linecap="round"/>
<line x1="45.1" y1="-0.8" x2="118.6" y2="14.1" stroke="url(#l33)" stroke-width="60.0" stroke-linecap="round"/>
<line x1="45.1" y1="-0.8" x2="168.3" y2="-42.1" stroke="url(#l34)" stroke-width="60.0" stroke-linecap="round"/>
<line x1="45.1" y1="-0.8" x2="112.1" y2="-91.8" stroke="url(#l35)" stroke-width="60.0" stroke-linecap="round"/>
<line x1="45.1" y1="-0.8" x2="44.2" y2="66.5" stroke="url(#l36)" stroke-width="60.0" stroke-linecap="round"/>
<line x1="45.1" y1="-0.8" x2="69.2" y2="128.9" stroke="url(#l37)" stroke-width="60.0" stroke-linecap="round"/>
<line x1="45.1" y1="-0.8" x2="3.1" y2="-27.9" stroke="url(#l38)" stroke-width="60.0" stroke-linecap="round"/>
<line x1="45.1" y1="-0.8" x2="64.5" y2="-46.9" stroke="url(#l39)" stroke-width="60.0" stroke-linecap="round"/>
<line x1="118.6" y1="14.1" x2="168.3" y2="-42.1" stroke="url(#l40)" stroke-width="60.0" stroke-linecap="round"/>
<line x1="118.6" y1="14.1" x2="224.5" y2="7.6" stroke="url(#l41)" stroke-width="60.0" stroke-linecap="round"/>
<line x1="118.6" y1="14.1" x2="112.1" y2="-91.8" stroke="url(#l42)" stroke-width="60.0" stroke-linecap="round"/>
<line x1="118.6" y1="14.1" x2="218.0" y2="-98.3" stroke="url(#l43)" stroke-width="60.0" stroke-linecap="round"/>
<line x1="118.6" y1="14.1" x2="44.2" y2="66.5" stroke="url(#l44)" stroke-width="60.0" stroke-linecap="round"/>
<line x1="118.6" y1="14.1" x2="69.2" y2="128.9" stroke="url(#l45)" stroke-width="60.0" stroke-linecap="round"/>
<line x1="118.6" y1="14.1" x2="3.1" y2="-27.9" stroke="url(#l46)" stroke-width="60.0" stroke-linecap="round"/>
<line x1="118.6" y1="14.1" x2="64.5" y2="-46.9" stroke="url(#l47)" stroke-width="60.0" stroke-linecap="round"/>
<line x1="168.3" y1="-42.1" x2="224.5" y2="7.6" stroke="url(#l48)" stroke-width="60.0" stroke-linecap="round"/>
<line x1="168.3" y1="-42.1" x2="112.1" y2="-91.8" stroke="url(#l49)" stroke-width="60.0" stroke-linecap="round"/>
<line x1="168.3" y1="-42.1" x2="218.0" y2="-98.3" stroke="url(#l50)" stroke-width="60.0" stroke-linecap="round"/>
<line x1="168.3" y1="-42.1" x2="64.5" y2="-46.9" stroke="url(#l51)" stroke-width="60.0" stroke-linecap="round"/>
<line x1="224.5" y1="7.6" x2="218.0" y2="-98.3" stroke="url(#l52)" stroke-width="60.0" stroke-linecap="round"/>
<line x1="112.1" y1="-91.8" x2="218.0" y2="-98.3" stroke="url(#l53)" stroke-width="60.0" stroke-linecap="round"/>
<line x1="112.1" y1="-91.8" x2="3.1" y2="-27.9" stroke="url(#l54)" stroke-width="60.0" stroke-linecap="round"/>
<line x1="112.1" y1="-91.8" x2="64.5" y2="-46.9" stroke="url(#l55)" stroke-width="60.0" stroke-linecap="round"/>
<line x1="44.2" y1="66.5" x2="69.2" y2="128.9" stroke="url(#l56)" stroke-width="60.0" stroke-linecap="round"/>
<line x1="44.2" y1="66.5" x2="3.1" y2="-27.9" stroke="url(#l57)" stroke-width="60.0" stroke-linecap="round"/>
<line x1="44.2" y1="66.5" x2="64.5" y2="-46.9" stroke="url(#l58)" stroke-width="60.0" stroke-linecap="round"/>
<line x1="3.1" y1="-27.9" x2="64.5" y2="-46.9" stroke="url(#l59)" stroke-width="60.0" stroke-linecap="round"/>
<line x1="-127.7" y1="96.6" x2="-78.0" y2="40.4" stroke="url(#l60)" stroke-width="60.0" stroke-linecap="round"/>
<line x1="-78.0" y1="40.4" x2="-101.9" y2="-30.7" stroke="url(#l61)" stroke-width="60.0" stroke-linecap="round"/>
<line x1="-101.9" y1="-30.7" x2="-175.4" y2="-45.6" stroke="url(#l62)" stroke-width="60.0" stroke-linecap="round"/>
<line x1="-175.4" y1="-45.6" x2="-160.4" y2="-119.1" stroke="url(#l63)" stroke-width="60.0" stroke-linecap="round"/>
<line x1="-175.4" y1="-45.6" x2="-190.3" y2="27.9" stroke="url(#l64)" stroke-width="60.0" stroke-linecap="round"/>
<line x1="-175.4" y1="-45.6" x2="-248.9" y2="-60.6" stroke="url(#l65)" stroke-width="60.0" stroke-linecap="round"/>
<line x1="-78.0" y1="40.4" x2="-4.5" y2="55.4" stroke="url(#l66)" stroke-width="60.0" stroke-linecap="round"/>
<line x1="-4.5" y1="55.4" x2="19.3" y2="126.5" stroke="url(#l67)" stroke-width="60.0" stroke-linecap="round"/>
<line x1="-4.5" y1="55.4" x2="45.1" y2="-0.8" stroke="url(#l68)" stroke-width="60.0" stroke-linecap="round"/>
<line x1="45.1" y1="-0.8" x2="118.6" y2="14.1" stroke="url(#l69)" stroke-width="60.0" stroke-linecap="round"/>
<line x1="118.6" y1="14.1" x2="168.3" y2="-42.1" stroke="url(#l70)" stroke-width="60.0" stroke-linecap="round"/>
<line x1="168.3" y1="-42.1" x2="224.5" y2="7.6" stroke="url(#l71)" stroke-width="60.0" stroke-linecap="round"/>
<line x1="168.3" y1="-42.1" x2="112.1" y2="-91.8" stroke="url(#l72)" stroke-width="60.0" stroke-linecap="round"/>
<line x1="168.3" y1="-42.1" x2="218.0" y2="-98.3" stroke="url(#l73)" stroke-width="60.0" stroke-linecap="round"/>
<line x1="-4.5" y1="55.4" x2="44.2" y2="66.5" stroke="url(#l74)" stroke-width="60.0" stroke-linecap="round"/>
<line x1="19.3" y1="126.5" x2="69.2" y2="128.9" stroke="url(#l75)" stroke-width="60.0" stroke-linecap="round"/>
<line x1="45.1" y1="-0.8" x2="3.1" y2="-27.9" stroke="url(#l76)" stroke-width="60.0" stroke-linecap="round"/>
<line x1="45.1" y1="-0.8" x2="64.5" y2="-46.9" stroke="url(#l77)" stroke-width="60.0" stroke-linecap="round"/>
<circle cx="-127.7" cy="96.6" r="51.0" fill="#ec736c" stroke="none"/>
<circle cx="-78.0" cy="40.4" r="51.0" fill="#bababa" stroke="none"/>
<circle cx="-101.9" cy="-30.7" r="51.0" fill="#ec736c" stroke="none"/>
<circle cx="-175.4" cy="-45.6" r="54.0" fill="#f4b36a" stroke="none"/>
<circle cx="-160.4" cy="-119.1" r="51.0" fill="#ec736c" stroke="none"/>
<circle cx="-190.3" cy="27.9" r="51.0" fill="#ec736c" stroke="none"/>
<circle cx="-248.9" cy="-60.6" r="51.0" fill="#ec736c" stroke="none"/>
<circle cx="-4.5" cy="55.4" r="51.0" fill="#bababa" stroke="none"/>
<circle cx="19.3" cy="126.5" r="51.0" fill="#ec736c" stroke="none"/>
<circle cx="45.1" cy="-0.8" r="51.0" fill="#bababa" stroke="none"/>
<circle cx="118.6" cy="14.1" r="51.0" fill="#ec736c" stroke="none"/>
<circle cx="168.3" cy="-42.1" r="54.0" fill="#f4b36a" stroke="none"/>
<circle cx="224.5" cy="7.6" r="51.0" fill="#ec736c" stroke="none"/>
<circle cx="112.1" cy="-91.8" r="51.0" fill="#ec736c" stroke="none"/>
<circle cx="218.0" cy="-98.3" r="51.0" fill="#ec736c" stroke="none"/>
<circle cx="44.2" cy="66.5" r="45.0" fill="#d7d7d7" stroke="none"/>
<circle cx="69.2" cy="128.9" r="45.0" fill="#d7d7d7" stroke="none"/>
<circle cx="3.1" cy="-27.9" r="45.0" fill="#d7d7d7" stroke="none"/>
<circle cx="64.5" cy="-46.9" r="45.0" fill="#d7d7d7" stroke="none"/>
</g>
<g stroke="#111" stroke-width="6" stroke-linecap="round">
<line x1="-133.0" y1="92.0" x2="-83.3" y2="35.8"/>
<line x1="-122.5" y1="101.2" x2="-72.8" y2="45.1"/>
<line x1="-78.0" y1="40.4" x2="-101.9" y2="-30.7"/>
<line x1="-101.9" y1="-30.7" x2="-175.4" y2="-45.6"/>
<line x1="-182.2" y1="-47.0" x2="-167.3" y2="-120.5"/>
<line x1="-168.5" y1="-44.2" x2="-153.6" y2="-117.7"/>
<line x1="-175.4" y1="-45.6" x2="-190.3" y2="27.9"/>
<line x1="-175.4" y1="-45.6" x2="-248.9" y2="-60.6"/>
<line x1="-78.0" y1="40.4" x2="-4.5" y2="55.4"/>
<line x1="-4.5" y1="55.4" x2="19.3" y2="126.5"/>
<line x1="-4.5" y1="55.4" x2="45.1" y2="-0.8"/>
<line x1="45.1" y1="-0.8" x2="118.6" y2="14.1"/>
<line x1="118.6" y1="14.1" x2="168.3" y2="-42.1"/>
<line x1="173.0" y1="-47.3" x2="229.1" y2="2.4"/>
<line x1="163.7" y1="-36.8" x2="219.9" y2="12.8"/>
<line x1="168.3" y1="-42.1" x2="112.1" y2="-91.8"/>
<line x1="168.3" y1="-42.1" x2="218.0" y2="-98.3"/>
<line x1="-4.5" y1="55.4" x2="44.2" y2="66.5"/>
<line x1="19.3" y1="126.5" x2="69.2" y2="128.9"/>
<line x1="45.1" y1="-0.8" x2="3.1" y2="-27.9"/>
<line x1="45.1" y1="-0.8" x2="64.5" y2="-46.9"/>
</g>
<circle cx="-127.7" cy="96.6" r="21" fill="url(#gO)" stroke="#111" stroke-width="3"/>
<text x="-127.7" y="97.6" text-anchor="middle" dominant-baseline="central" font-family="Arial, Helvetica, sans-serif" font-weight="bold" font-size="24" fill="#111">O</text>
<circle cx="-78.0" cy="40.4" r="21" fill="url(#gC)" stroke="#111" stroke-width="3"/>
<text x="-78.0" y="41.4" text-anchor="middle" dominant-baseline="central" font-family="Arial, Helvetica, sans-serif" font-weight="bold" font-size="24" fill="#111">C</text>
<circle cx="-101.9" cy="-30.7" r="21" fill="url(#gO)" stroke="#111" stroke-width="3"/>
<text x="-101.9" y="-29.7" text-anchor="middle" dominant-baseline="central" font-family="Arial, Helvetica, sans-serif" font-weight="bold" font-size="24" fill="#111">O</text>
<circle cx="-175.4" cy="-45.6" r="24" fill="url(#gP)" stroke="#111" stroke-width="3"/>
<text x="-175.4" y="-44.5" text-anchor="middle" dominant-baseline="central" font-family="Arial, Helvetica, sans-serif" font-weight="bold" font-size="28" fill="#111">P</text>
<circle cx="-160.4" cy="-119.1" r="21" fill="url(#gO)" stroke="#111" stroke-width="3"/>
<text x="-160.4" y="-118.2" text-anchor="middle" dominant-baseline="central" font-family="Arial, Helvetica, sans-serif" font-weight="bold" font-size="24" fill="#111">O</text>
<circle cx="-190.3" cy="27.9" r="21" fill="url(#gO)" stroke="#111" stroke-width="3"/>
<text x="-190.3" y="28.8" text-anchor="middle" dominant-baseline="central" font-family="Arial, Helvetica, sans-serif" font-weight="bold" font-size="24" fill="#111">O</text>
<text x="-170.3" y="12.1" text-anchor="middle" font-family="Arial, Helvetica, sans-serif" font-weight="bold" font-size="18" fill="#111">−</text>
<circle cx="-248.9" cy="-60.6" r="21" fill="url(#gO)" stroke="#111" stroke-width="3"/>
<text x="-248.9" y="-59.6" text-anchor="middle" dominant-baseline="central" font-family="Arial, Helvetica, sans-serif" font-weight="bold" font-size="24" fill="#111">O</text>
<text x="-228.9" y="-76.3" text-anchor="middle" font-family="Arial, Helvetica, sans-serif" font-weight="bold" font-size="18" fill="#111">−</text>
<circle cx="-4.5" cy="55.4" r="21" fill="url(#gC)" stroke="#111" stroke-width="3"/>
<text x="-4.5" y="56.3" text-anchor="middle" dominant-baseline="central" font-family="Arial, Helvetica, sans-serif" font-weight="bold" font-size="24" fill="#111">C</text>
<circle cx="19.3" cy="126.5" r="21" fill="url(#gO)" stroke="#111" stroke-width="3"/>
<text x="19.3" y="127.4" text-anchor="middle" dominant-baseline="central" font-family="Arial, Helvetica, sans-serif" font-weight="bold" font-size="24" fill="#111">O</text>
<circle cx="45.1" cy="-0.8" r="21" fill="url(#gC)" stroke="#111" stroke-width="3"/>
<text x="45.1" y="0.1" text-anchor="middle" dominant-baseline="central" font-family="Arial, Helvetica, sans-serif" font-weight="bold" font-size="24" fill="#111">C</text>
<circle cx="118.6" cy="14.1" r="21" fill="url(#gO)" stroke="#111" stroke-width="3"/>
<text x="118.6" y="15.1" text-anchor="middle" dominant-baseline="central" font-family="Arial, Helvetica, sans-serif" font-weight="bold" font-size="24" fill="#111">O</text>
<circle cx="168.3" cy="-42.1" r="24" fill="url(#gP)" stroke="#111" stroke-width="3"/>
<text x="168.3" y="-41.0" text-anchor="middle" dominant-baseline="central" font-family="Arial, Helvetica, sans-serif" font-weight="bold" font-size="28" fill="#111">P</text>
<circle cx="224.5" cy="7.6" r="21" fill="url(#gO)" stroke="#111" stroke-width="3"/>
<text x="224.5" y="8.6" text-anchor="middle" dominant-baseline="central" font-family="Arial, Helvetica, sans-serif" font-weight="bold" font-size="24" fill="#111">O</text>
<circle cx="112.1" cy="-91.8" r="21" fill="url(#gO)" stroke="#111" stroke-width="3"/>
<text x="112.1" y="-90.8" text-anchor="middle" dominant-baseline="central" font-family="Arial, Helvetica, sans-serif" font-weight="bold" font-size="24" fill="#111">O</text>
<text x="132.1" y="-107.5" text-anchor="middle" font-family="Arial, Helvetica, sans-serif" font-weight="bold" font-size="18" fill="#111">−</text>
<circle cx="218.0" cy="-98.3" r="21" fill="url(#gO)" stroke="#111" stroke-width="3"/>
<text x="218.0" y="-97.3" text-anchor="middle" dominant-baseline="central" font-family="Arial, Helvetica, sans-serif" font-weight="bold" font-size="24" fill="#111">O</text>
<text x="238.0" y="-114.0" text-anchor="middle" font-family="Arial, Helvetica, sans-serif" font-weight="bold" font-size="18" fill="#111">−</text>
<circle cx="44.2" cy="66.5" r="15" fill="url(#gH)" stroke="#111" stroke-width="3"/>
<text x="44.2" y="67.2" text-anchor="middle" dominant-baseline="central" font-family="Arial, Helvetica, sans-serif" font-weight="bold" font-size="17" fill="#111">H</text>
<circle cx="69.2" cy="128.9" r="15" fill="url(#gH)" stroke="#111" stroke-width="3"/>
<text x="69.2" y="129.6" text-anchor="middle" dominant-baseline="central" font-family="Arial, Helvetica, sans-serif" font-weight="bold" font-size="17" fill="#111">H</text>
<circle cx="3.1" cy="-27.9" r="15" fill="url(#gH)" stroke="#111" stroke-width="3"/>
<text x="3.1" y="-27.3" text-anchor="middle" dominant-baseline="central" font-family="Arial, Helvetica, sans-serif" font-weight="bold" font-size="17" fill="#111">H</text>
<circle cx="64.5" cy="-46.9" r="15" fill="url(#gH)" stroke="#111" stroke-width="3"/>
<text x="64.5" y="-46.2" text-anchor="middle" dominant-baseline="central" font-family="Arial, Helvetica, sans-serif" font-weight="bold" font-size="17" fill="#111">H</text>
</svg>