<svg xmlns="http://www.w3.org/2000/svg" viewBox="-280 -139 559 276" width="559" height="276">
<defs>
<radialGradient id="gC" cx="40%" cy="35%" r="70%"><stop offset="0" stop-color="#c9c9c9"/><stop offset="1" stop-color="#9d9d9d"/></radialGradient>
<radialGradient id="gH" cx="40%" cy="35%" r="70%"><stop offset="0" stop-color="#dfdfdf"/><stop offset="1" stop-color="#c6c6c6"/></radialGradient>
<radialGradient id="gN" cx="40%" cy="35%" r="70%"><stop offset="0" stop-color="#a4b5ea"/><stop offset="1" stop-color="#5a79d9"/></radialGradient>
<radialGradient id="gO" cx="40%" cy="35%" r="70%"><stop offset="0" stop-color="#f0918b"/><stop offset="1" stop-color="#e5382d"/></radialGradient>
<radialGradient id="gP" cx="40%" cy="35%" r="70%"><stop offset="0" stop-color="#f6c38a"/><stop offset="1" stop-color="#f0932b"/></radialGradient>
<radialGradient id="gS" cx="40%" cy="35%" r="70%"><stop offset="0" stop-color="#efe499"/><stop offset="1" stop-color="#e3cf46"/></radialGradient>
<radialGradient id="gMg" cx="40%" cy="35%" r="70%"><stop offset="0" stop-color="#b8e4b8"/><stop offset="1" stop-color="#7fcf7f"/></radialGradient>
<radialGradient id="gX" cx="40%" cy="35%" r="70%"><stop offset="0" stop-color="#e0e0e0"/><stop offset="1" stop-color="#b0b0b0"/></radialGradient>
<linearGradient id="l0" gradientUnits="userSpaceOnUse" x1="-163.4" y1="13.1" x2="-97.1" y2="-22.1"><stop offset="0.45" stop-color="#bababa"/><stop offset="0.55" stop-color="#bababa"/></linearGradient>
<linearGradient id="l1" gradientUnits="userSpaceOnUse" x1="-163.4" y1="13.1" x2="-33.5" y2="17.6"><stop offset="0.39" stop-color="#bababa"/><stop offset="0.58" stop-color="#ebdd7d"/></linearGradient>
<linearGradient id="l2" gradientUnits="userSpaceOnUse" x1="-163.4" y1="13.1" x2="-137.7" y2="56.0"><stop offset="0.45" stop-color="#bababa"/><stop offset="0.55" stop-color="#d7d7d7"/></linearGradient>
<linearGradient id="l3" gradientUnits="userSpaceOnUse" x1="-163.4" y1="13.1" x2="-192.7" y2="-27.4"><stop offset="0.45" stop-color="#bababa"/><stop offset="0.55" stop-color="#d7d7d7"/></linearGradient>
<linearGradient id="l4" gradientUnits="userSpaceOnUse" x1="-163.4" y1="13.1" x2="-203.8" y2="42.4"><stop offset="0.45" stop-color="#bababa"/><stop offset="0.55" stop-color="#d7d7d7"/></linearGradient>
<linearGradient id="l5" gradientUnits="userSpaceOnUse" x1="-163.4" y1="13.1" x2="-126.5" y2="-62.6"><stop offset="0.45" stop-color="#bababa"/><stop offset="0.55" stop-color="#d7d7d7"/></linearGradient>
<linearGradient id="l6" gradientUnits="userSpaceOnUse" x1="-163.4" y1="13.1" x2="-62.3" y2="-58.1"><stop offset="0.41" stop-color="#bababa"/><stop offset="0.64" stop-color="#d7d7d7"/></linearGradient>
<linearGradient id="l7" gradientUnits="userSpaceOnUse" x1="-97.1" y1="-22.1" x2="-33.5" y2="17.6"><stop offset="0.45" stop-color="#bababa"/><stop offset="0.55" stop-color="#ebdd7d"/></linearGradient>
<linearGradient id="l8" gradientUnits="userSpaceOnUse" x1="-97.1" y1="-22.1" x2="32.7" y2="-17.6"><stop offset="0.39" stop-color="#bababa"/><stop offset="0.58" stop-color="#ebdd7d"/></linearGradient>
<linearGradient id="l9" gradientUnits="userSpaceOnUse" x1="-97.1" y1="-22.1" x2="-137.7" y2="56.0"><stop offset="0.45" stop-color="#bababa"/><stop offset="0.55" stop-color="#d7d7d7"/></linearGradient>
<linearGradient id="l10" gradientUnits="userSpaceOnUse" x1="-97.1" y1="-22.1" x2="-192.7" y2="-27.4"><stop offset="0.45" stop-color="#bababa"/><stop offset="0.55" stop-color="#d7d7d7"/></linearGradient>
<linearGradient id="l11" gradientUnits="userSpaceOnUse" x1="-97.1" y1="-22.1" x2="-203.8" y2="42.4"><stop offset="0.41" stop-color="#bababa"/><stop offset="0.64" stop-color="#d7d7d7"/></linearGradient>
<linearGradient id="l12" gradientUnits="userSpaceOnUse" x1="-97.1" y1="-22.1" x2="-126.5" y2="-62.6"><stop offset="0.45" stop-color="#bababa"/><stop offset="0.55" stop-color="#d7d7d7"/></linearGradient>
<linearGradient id="l13" gradientUnits="userSpaceOnUse" x1="-97.1" y1="-22.1" x2="-62.3" y2="-58.1"><stop offset="0.45" stop-color="#bababa"/><stop offset="0.55" stop-color="#d7d7d7"/></linearGradient>
<linearGradient id="l14" gradientUnits="userSpaceOnUse" x1="-33.5" y1="17.6" x2="32.7" y2="-17.6"><stop offset="0.45" stop-color="#ebdd7d"/><stop offset="0.55" stop-color="#ebdd7d"/></linearGradient>
<linearGradient id="l15" gradientUnits="userSpaceOnUse" x1="-33.5" y1="17.6" x2="96.3" y2="22.1"><stop offset="0.42" stop-color="#ebdd7d"/><stop offset="0.61" stop-color="#bababa"/></linearGradient>
<linearGradient id="l16" gradientUnits="userSpaceOnUse" x1="-33.5" y1="17.6" x2="-137.7" y2="56.0"><stop offset="0.45" stop-color="#ebdd7d"/><stop offset="0.59" stop-color="#d7d7d7"/></linearGradient>
<linearGradient id="l17" gradientUnits="userSpaceOnUse" x1="-33.5" y1="17.6" x2="-126.5" y2="-62.6"><stop offset="0.44" stop-color="#ebdd7d"/><stop offset="0.63" stop-color="#d7d7d7"/></linearGradient>
<linearGradient id="l18" gradientUnits="userSpaceOnUse" x1="-33.5" y1="17.6" x2="-62.3" y2="-58.1"><stop offset="0.45" stop-color="#ebdd7d"/><stop offset="0.55" stop-color="#d7d7d7"/></linearGradient>
<linearGradient id="l19" gradientUnits="userSpaceOnUse" x1="-33.5" y1="17.6" x2="64.8" y2="60.9"><stop offset="0.45" stop-color="#ebdd7d"/><stop offset="0.58" stop-color="#d7d7d7"/></linearGradient>
<linearGradient id="l20" gradientUnits="userSpaceOnUse" x1="32.7" y1="-17.6" x2="96.3" y2="22.1"><stop offset="0.45" stop-color="#ebdd7d"/><stop offset="0.55" stop-color="#bababa"/></linearGradient>
<linearGradient id="l21" gradientUnits="userSpaceOnUse" x1="32.7" y1="-17.6" x2="162.5" y2="-13.1"><stop offset="0.42" stop-color="#ebdd7d"/><stop offset="0.61" stop-color="#bababa"/></linearGradient>
<linearGradient id="l22" gradientUnits="userSpaceOnUse" x1="32.7" y1="-17.6" x2="-62.3" y2="-58.1"><stop offset="0.45" stop-color="#ebdd7d"/><stop offset="0.56" stop-color="#d7d7d7"/></linearGradient>
<linearGradient id="l23" gradientUnits="userSpaceOnUse" x1="32.7" y1="-17.6" x2="64.8" y2="60.9"><stop offset="0.45" stop-color="#ebdd7d"/><stop offset="0.55" stop-color="#d7d7d7"/></linearGradient>
<linearGradient id="l24" gradientUnits="userSpaceOnUse" x1="32.7" y1="-17.6" x2="129.0" y2="59.9"><stop offset="0.44" stop-color="#ebdd7d"/><stop offset="0.64" stop-color="#d7d7d7"/></linearGradient>
<linearGradient id="l25" gradientUnits="userSpaceOnUse" x1="32.7" y1="-17.6" x2="136.8" y2="-56.0"><stop offset="0.45" stop-color="#ebdd7d"/><stop offset="0.59" stop-color="#d7d7d7"/></linearGradient>
<linearGradient id="l26" gradientUnits="userSpaceOnUse" x1="96.3" y1="22.1" x2="162.5" y2="-13.1"><stop offset="0.45" stop-color="#bababa"/><stop offset="0.55" stop-color="#bababa"/></linearGradient>
<linearGradient id="l27" gradientUnits="userSpaceOnUse" x1="96.3" y1="22.1" x2="64.8" y2="60.9"><stop offset="0.45" stop-color="#bababa"/><stop offset="0.55" stop-color="#d7d7d7"/></linearGradient>
<linearGradient id="l28" gradientUnits="userSpaceOnUse" x1="96.3" y1="22.1" x2="129.0" y2="59.9"><stop offset="0.45" stop-color="#bababa"/><stop offset="0.55" stop-color="#d7d7d7"/></linearGradient>
<linearGradient id="l29" gradientUnits="userSpaceOnUse" x1="96.3" y1="22.1" x2="136.8" y2="-56.0"><stop offset="0.45" stop-color="#bababa"/><stop offset="0.55" stop-color="#d7d7d7"/></linearGradient>
<linearGradient id="l30" gradientUnits="userSpaceOnUse" x1="96.3" y1="22.1" x2="191.8" y2="27.4"><stop offset="0.45" stop-color="#bababa"/><stop offset="0.55" stop-color="#d7d7d7"/></linearGradient>
<linearGradient id="l31" gradientUnits="userSpaceOnUse" x1="96.3" y1="22.1" x2="203.0" y2="-42.4"><stop offset="0.41" stop-color="#bababa"/><stop offset="0.64" stop-color="#d7d7d7"/></linearGradient>
<linearGradient id="l32" gradientUnits="userSpaceOnUse" x1="162.5" y1="-13.1" x2="64.8" y2="60.9"><stop offset="0.42" stop-color="#bababa"/><stop offset="0.63" stop-color="#d7d7d7"/></linearGradient>
<linearGradient id="l33" gradientUnits="userSpaceOnUse" x1="162.5" y1="-13.1" x2="129.0" y2="59.9"><stop offset="0.45" stop-color="#bababa"/><stop offset="0.55" stop-color="#d7d7d7"/></linearGradient>
<linearGradient id="l34" gradientUnits="userSpaceOnUse" x1="162.5" y1="-13.1" x2="136.8" y2="-56.0"><stop offset="0.45" stop-color="#bababa"/><stop offset="0.55" stop-color="#d7d7d7"/></linearGradient>
<linearGradient id="l35" gradientUnits="userSpaceOnUse" x1="162.5" y1="-13.1" x2="191.8" y2="27.4"><stop offset="0.45" stop-color="#bababa"/><stop offset="0.55" stop-color="#d7d7d7"/></linearGradient>
<linearGradient id="l36" gradientUnits="userSpaceOnUse" x1="162.5" y1="-13.1" x2="203.0" y2="-42.4"><stop offset="0.45" stop-color="#bababa"/><stop offset="0.55" stop-color="#d7d7d7"/></linearGradient>
<linearGradient id="l37" gradientUnits="userSpaceOnUse" x1="-137.7" y1="56.0" x2="-192.7" y2="-27.4"><stop offset="0.45" stop-color="#d7d7d7"/><stop offset="0.55" stop-color="#d7d7d7"/></linearGradient>
<linearGradient id="l38" gradientUnits="userSpaceOnUse" x1="-137.7" y1="56.0" x2="-203.8" y2="42.4"><stop offset="0.45" stop-color="#d7d7d7"/><stop offset="0.55" stop-color="#d7d7d7"/></linearGradient>
<linearGradient id="l39" gradientUnits="userSpaceOnUse" x1="-137.7" y1="56.0" x2="-126.5" y2="-62.6"><stop offset="0.38" stop-color="#d7d7d7"/><stop offset="0.62" stop-color="#d7d7d7"/></linearGradient>
<linearGradient id="l40" gradientUnits="userSpaceOnUse" x1="-137.7" y1="56.0" x2="-62.3" y2="-58.1"><stop offset="0.33" stop-color="#d7d7d7"/><stop offset="0.67" stop-color="#d7d7d7"/></linearGradient>
<linearGradient id="l41" gradientUnits="userSpaceOnUse" x1="-192.7" y1="-27.4" x2="-203.8" y2="42.4"><stop offset="0.45" stop-color="#d7d7d7"/><stop offset="0.55" stop-color="#d7d7d7"/></linearGradient>
<linearGradient id="l42" gradientUnits="userSpaceOnUse" x1="-192.7" y1="-27.4" x2="-126.5" y2="-62.6"><stop offset="0.45" stop-color="#d7d7d7"/><stop offset="0.55" stop-color="#d7d7d7"/></linearGradient>
<linearGradient id="l43" gradientUnits="userSpaceOnUse" x1="-192.7" y1="-27.4" x2="-62.3" y2="-58.1"><stop offset="0.34" stop-color="#d7d7d7"/><stop offset="0.66" stop-color="#d7d7d7"/></linearGradient>
<linearGradient id="l44" gradientUnits="userSpaceOnUse" x1="-203.8" y1="42.4" x2="-126.5" y2="-62.6"><stop offset="0.34" stop-color="#d7d7d7"/><stop offset="0.66" stop-color="#d7d7d7"/></linearGradient>
<linearGradient id="l45" gradientUnits="userSpaceOnUse" x1="-126.5" y1="-62.6" x2="-62.3" y2="-58.1"><stop offset="0.45" stop-color="#d7d7d7"/><stop offset="0.55" stop-color="#d7d7d7"/></linearGradient>
<linearGradient id="l46" gradientUnits="userSpaceOnUse" x1="64.8" y1="60.9" x2="129.0" y2="59.9"><stop offset="0.45" stop-color="#d7d7d7"/><stop offset="0.55" stop-color="#d7d7d7"/></linearGradient>
<linearGradient id="l47" gradientUnits="userSpaceOnUse" x1="64.8" y1="60.9" x2="136.8" y2="-56.0"><stop offset="0.33" stop-color="#d7d7d7"/><stop offset="0.67" stop-color="#d7d7d7"/></linearGradient>
<linearGradient id="l48" gradientUnits="userSpaceOnUse" x1="64.8" y1="60.9" x2="191.8" y2="27.4"><stop offset="0.34" stop-color="#d7d7d7"/><stop offset="0.66" stop-color="#d7d7d7"/></linearGradient>
<linearGradient id="l49" gradientUnits="userSpaceOnUse" x1="129.0" y1="59.9" x2="136.8" y2="-56.0"><stop offset="0.39" stop-color="#d7d7d7"/><stop offset="0.61" stop-color="#d7d7d7"/></linearGradient>
<linearGradient id="l50" gradientUnits="userSpaceOnUse" x1="129.0" y1="59.9" x2="191.8" y2="27.4"><stop offset="0.45" stop-color="#d7d7d7"/><stop offset="0.55" stop-color="#d7d7d7"/></linearGradient>
<linearGradient id="l51" gradientUnits="userSpaceOnUse" x1="129.0" y1="59.9" x2="203.0" y2="-42.4"><stop offset="0.36" stop-color="#d7d7d7"/><stop offset="0.64" stop-color="#d7d7d7"/></linearGradient>
<linearGradient id="l52" gradientUnits="userSpaceOnUse" x1="136.8" y1="-56.0" x2="191.8" y2="27.4"><stop offset="0.45" stop-color="#d7d7d7"/><stop offset="0.55" stop-color="#d7d7d7"/></linearGradient>
<linearGradient id="l53" gradientUnits="userSpaceOnUse" x1="136.8" y1="-56.0" x2="203.0" y2="-42.4"><stop offset="0.45" stop-color="#d7d7d7"/><stop offset="0.55" stop-color="#d7d7d7"/></linearGradient>
<linearGradient id="l54" gradientUnits="userSpaceOnUse" x1="191.8" y1="27.4" x2="203.0" y2="-42.4"><stop offset="0.45" stop-color="#d7d7d7"/><stop offset="0.55" stop-color="#d7d7d7"/></linearGradient>
<linearGradient id="l55" gradientUnits="userSpaceOnUse" x1="-163.4" y1="13.1" x2="-97.1" y2="-22.1"><stop offset="0.45" stop-color="#bababa"/><stop offset="0.55" stop-color="#bababa"/></linearGradient>
<linearGradient id="l56" gradientUnits="userSpaceOnUse" x1="-97.1" y1="-22.1" x2="-33.5" y2="17.6"><stop offset="0.45" stop-color="#bababa"/><stop offset="0.55" stop-color="#ebdd7d"/></linearGradient>
<linearGradient id="l57" gradientUnits="userSpaceOnUse" x1="-33.5" y1="17.6" x2="32.7" y2="-17.6"><stop offset="0.45" stop-color="#ebdd7d"/><stop offset="0.55" stop-color="#ebdd7d"/></linearGradient>
<linearGradient id="l58" gradientUnits="userSpaceOnUse" x1="32.7" y1="-17.6" x2="96.3" y2="22.1"><stop offset="0.45" stop-color="#ebdd7d"/><stop offset="0.55" stop-color="#bababa"/></linearGradient>
<linearGradient id="l59" gradientUnits="userSpaceOnUse" x1="96.3" y1="22.1" x2="162.5" y2="-13.1"><stop offset="0.45" stop-color="#bababa"/><stop offset="0.55" stop-color="#bababa"/></linearGradient>
<linearGradient id="l60" gradientUnits="userSpaceOnUse" x1="-163.4" y1="13.1" x2="-137.7" y2="56.0"><stop offset="0.45" stop-color="#bababa"/><stop offset="0.55" stop-color="#d7d7d7"/></linearGradient>
<linearGradient id="l61" gradientUnits="userSpaceOnUse" x1="-163.4" y1="13.1" x2="-192.7" y2="-27.4"><stop offset="0.45" stop-color="#bababa"/><stop offset="0.55" stop-color="#d7d7d7"/></linearGradient>
<linearGradient id="l62" gradientUnits="userSpaceOnUse" x1="-163.4" y1="13.1" x2="-203.8" y2="42.4"><stop offset="0.45" stop-color="#bababa"/><stop offset="0.55" stop-color="#d7d7d7"/></linearGradient>
<linearGradient id="l63" gradientUnits="userSpaceOnUse" x1="-97.1" y1="-22.1" x2="-126.5" y2="-62.6"><stop offset="0.45" stop-color="#bababa"/><stop offset="0.55" stop-color="#d7d7d7"/></linearGradient>
<linearGradient id="l64" gradientUnits="userSpaceOnUse" x1="-97.1" y1="-22.1" x2="-62.3" y2="-58.1"><stop offset="0.45" stop-color="#bababa"/><stop offset="0.55" stop-color="#d7d7d7"/></linearGradient>
<linearGradient id="l65" gradientUnits="userSpaceOnUse" x1="96.3" y1="22.1" x2="64.8" y2="60.9"><stop offset="0.45" stop-color="#bababa"/><stop offset="0.55" stop-color="#d7d7d7"/></linearGradient>
<linearGradient id="l66" gradientUnits="userSpaceOnUse" x1="96.3" y1="22.1" x2="129.0" y2="59.9"><stop offset="0.45" stop-color="#bababa"/><stop offset="0.55" stop-color="#d7d7d7"/></linearGradient>
<linearGradient id="l67" gradientUnits="userSpaceOnUse" x1="162.5" y1="-13.1" x2="136.8" y2="-56.0"><stop offset="0.45" stop-color="#bababa"/><stop offset="0.55" stop-color="#d7d7d7"/></linearGradient>
<linearGradient id="l68" gradientUnits="userSpaceOnUse" x1="162.5" y1="-13.1" x2="191.8" y2="27.4"><stop offset="0.45" stop-color="#bababa"/><stop offset="0.55" stop-color="#d7d7d7"/></linearGradient>
<linearGradient id="l69" gradientUnits="userSpaceOnUse" x1="162.5" y1="-13.1" x2="203.0" y2="-42.4"><stop offset="0.45" stop-color="#bababa"/><stop offset="0.55" stop-color="#d7d7d7"/></linearGradient>
</defs>
<g fill="#2fa84f" stroke="#2fa84f" stroke-linecap="round" stroke-linejoin="round">
<line x1="-33.5" y1="17.6" x2="32.7" y2="-17.6" stroke-width="88.0"/>
<circle cx="-33.5" cy="17.6" r="68.0" stroke="none"/>
<circle cx="32.7" cy="-17.6" r="68.0" stroke="none"/>
</g>
<g fill="#111" stroke="#111" stroke-linecap="round" stroke-linejoin="round">
<line x1="-163.4" y1="13.1" x2="-97.1" y2="-22.1" stroke-width="70.0"/>
<line x1="-97.1" y1="-22.1" x2="-33.5" y2="17.6" stroke-width="70.0"/>
<line x1="-33.5" y1="17.6" x2="32.7" y2="-17.6" stroke-width="70.0"/>
<line x1="32.7" y1="-17.6" x2="96.3" y2="22.1" stroke-width="70.0"/>
<line x1="96.3" y1="22.1" x2="162.5" y2="-13.1" stroke-width="70.0"/>
<line x1="-163.4" y1="13.1" x2="-137.7" y2="56.0" stroke-width="70.0"/>
<line x1="-163.4" y1="13.1" x2="-192.7" y2="-27.4" stroke-width="70.0"/>
<line x1="-163.4" y1="13.1" x2="-203.8" y2="42.4" stroke-width="70.0"/>
<line x1="-97.1" y1="-22.1" x2="-126.5" y2="-62.6" stroke-width="70.0"/>
<line x1="-97.1" y1="-22.1" x2="-62.3" y2="-58.1" stroke-width="70.0"/>
<line x1="96.3" y1="22.1" x2="64.8" y2="60.9" stroke-width="70.0"/>
<line x1="96.3" y1="22.1" x2="129.0" y2="59.9" stroke-width="70.0"/>
<line x1="162.5" y1="-13.1" x2="136.8" y2="-56.0" stroke-width="70.0"/>
<line x1="162.5" y1="-13.1" x2="191.8" y2="27.4" stroke-width="70.0"/>
<line x1="162.5" y1="-13.1" x2="203.0" y2="-42.4" stroke-width="70.0"/>
<line x1="-163.4" y1="13.1" x2="-97.1" y2="-22.1" stroke-width="70.0"/>
<line x1="-163.4" y1="13.1" x2="-33.5" y2="17.6" stroke-width="70.0"/>
<line x1="-163.4" y1="13.1" x2="-137.7" y2="56.0" stroke-width="70.0"/>
<line x1="-163.4" y1="13.1" x2="-192.7" y2="-27.4" stroke-width="70.0"/>
<line x1="-163.4" y1="13.1" x2="-203.8" y2="42.4" stroke-width="70.0"/>
<line x1="-163.4" y1="13.1" x2="-126.5" y2="-62.6" stroke-width="70.0"/>
<line x1="-163.4" y1="13.1" x2="-62.3" y2="-58.1" stroke-width="70.0"/>
<line x1="-97.1" y1="-22.1" x2="-33.5" y2="17.6" stroke-width="70.0"/>
<line x1="-97.1" y1="-22.1" x2="32.7" y2="-17.6" stroke-width="70.0"/>
<line x1="-97.1" y1="-22.1" x2="-137.7" y2="56.0" stroke-width="70.0"/>
<line x1="-97.1" y1="-22.1" x2="-192.7" y2="-27.4" stroke-width="70.0"/>
<line x1="-97.1" y1="-22.1" x2="-203.8" y2="42.4" stroke-width="70.0"/>
<line x1="-97.1" y1="-22.1" x2="-126.5" y2="-62.6" stroke-width="70.0"/>
<line x1="-97.1" y1="-22.1" x2="-62.3" y2="-58.1" stroke-width="70.0"/>
<line x1="-33.5" y1="17.6" x2="32.7" y2="-17.6" stroke-width="70.0"/>
<line x1="-33.5" y1="17.6" x2="96.3" y2="22.1" stroke-width="70.0"/>
<line x1="-33.5" y1="17.6" x2="-137.7" y2="56.0" stroke-width="70.0"/>
<line x1="-33.5" y1="17.6" x2="-126.5" y2="-62.6" stroke-width="70.0"/>
<line x1="-33.5" y1="17.6" x2="-62.3" y2="-58.1" stroke-width="70.0"/>
<line x1="-33.5" y1="17.6" x2="64.8" y2="60.9" stroke-width="70.0"/>
<line x1="32.7" y1="-17.6" x2="96.3" y2="22.1" stroke-width="70.0"/>
<line x1="32.7" y1="-17.6" x2="162.5" y2="-13.1" stroke-width="70.0"/>
<line x1="32.7" y1="-17.6" x2="-62.3" y2="-58.1" stroke-width="70.0"/>
<line x1="32.7" y1="-17.6" x2="64.8" y2="60.9" stroke-width="70.0"/>
<line x1="32.7" y1="-17.6" x2="129.0" y2="59.9" stroke-width="70.0"/>
<line x1="32.7" y1="-17.6" x2="136.8" y2="-56.0" stroke-width="70.0"/>
<line x1="96.3" y1="22.1" x2="162.5" y2="-13.1" stroke-width="70.0"/>
<line x1="96.3" y1="22.1" x2="64.8" y2="60.9" stroke-width="70.0"/>
<line x1="96.3" y1="22.1" x2="129.0" y2="59.9" stroke-width="70.0"/>
<line x1="96.3" y1="22.1" x2="136.8" y2="-56.0" stroke-width="70.0"/>
<line x1="96.3" y1="22.1" x2="191.8" y2="27.4" stroke-width="70.0"/>
<line x1="96.3" y1="22.1" x2="203.0" y2="-42.4" stroke-width="70.0"/>
<line x1="162.5" y1="-13.1" x2="64.8" y2="60.9" stroke-width="70.0"/>
<line x1="162.5" y1="-13.1" x2="129.0" y2="59.9" stroke-width="70.0"/>
<line x1="162.5" y1="-13.1" x2="136.8" y2="-56.0" stroke-width="70.0"/>
<line x1="162.5" y1="-13.1" x2="191.8" y2="27.4" stroke-width="70.0"/>
<line x1="162.5" y1="-13.1" x2="203.0" y2="-42.4" stroke-width="70.0"/>
<line x1="-137.7" y1="56.0" x2="-192.7" y2="-27.4" stroke-width="70.0"/>
<line x1="-137.7" y1="56.0" x2="-203.8" y2="42.4" stroke-width="70.0"/>
<line x1="-137.7" y1="56.0" x2="-126.5" y2="-62.6" stroke-width="70.0"/>
<line x1="-137.7" y1="56.0" x2="-62.3" y2="-58.1" stroke-width="70.0"/>
<line x1="-192.7" y1="-27.4" x2="-203.8" y2="42.4" stroke-width="70.0"/>
<line x1="-192.7" y1="-27.4" x2="-126.5" y2="-62.6" stroke-width="70.0"/>
<line x1="-192.7" y1="-27.4" x2="-62.3" y2="-58.1" stroke-width="70.0"/>
<line x1="-203.8" y1="42.4" x2="-126.5" y2="-62.6" stroke-width="70.0"/>
<line x1="-126.5" y1="-62.6" x2="-62.3" y2="-58.1" stroke-width="70.0"/>
<line x1="64.8" y1="60.9" x2="129.0" y2="59.9" stroke-width="70.0"/>
<line x1="64.8" y1="60.9" x2="136.8" y2="-56.0" stroke-width="70.0"/>
<line x1="64.8" y1="60.9" x2="191.8" y2="27.4" stroke-width="70.0"/>
<line x1="129.0" y1="59.9" x2="136.8" y2="-56.0" stroke-width="70.0"/>
<line x1="129.0" y1="59.9" x2="191.8" y2="27.4" stroke-width="70.0"/>
<line x1="129.0" y1="59.9" x2="203.0" y2="-42.4" stroke-width="70.0"/>
<line x1="136.8" y1="-56.0" x2="191.8" y2="27.4" stroke-width="70.0"/>
<line x1="136.8" y1="-56.0" x2="203.0" y2="-42.4" stroke-width="70.0"/>
<line x1="191.8" y1="27.4" x2="203.0" y2="-42.4" stroke-width="70.0"/>
<circle cx="-163.4" cy="13.1" r="56.0" stroke="none"/>
<circle cx="-97.1" cy="-22.1" r="56.0" stroke="none"/>
<circle cx="-33.5" cy="17.6" r="59.0" stroke="none"/>
<circle cx="32.7" cy="-17.6" r="59.0" stroke="none"/>
<circle cx="96.3" cy="22.1" r="56.0" stroke="none"/>
<circle cx="162.5" cy="-13.1" r="56.0" stroke="none"/>
<circle cx="-137.7" cy="56.0" r="50.0" stroke="none"/>
<circle cx="-192.7" cy="-27.4" r="50.0" stroke="none"/>
<circle cx="-203.8" cy="42.4" r="50.0" stroke="none"/>
<circle cx="-126.5" cy="-62.6" r="50.0" stroke="none"/>
<circle cx="-62.3" cy="-58.1" r="50.0" stroke="none"/>
<circle cx="64.8" cy="60.9" r="50.0" stroke="none"/>
<circle cx="129.0" cy="59.9" r="50.0" stroke="none"/>
<circle cx="136.8" cy="-56.0" r="50.0" stroke="none"/>
<circle cx="191.8" cy="27.4" r="50.0" stroke="none"/>
<circle cx="203.0" cy="-42.4" r="50.0" stroke="none"/>
</g>
<g stroke-linejoin="round">
<line x1="-163.4" y1="13.1" x2="-97.1" y2="-22.1" stroke="url(#l0)" stroke-width="60.0" stroke-linecap="round"/>
<line x1="-163.4" y1="13.1" x2="-33.5" y2="17.6" stroke="url(#l1)" stroke-width="60.0" stroke-linecap="round"/>
<line x1="-163.4" y1="13.1" x2="-137.7" y2="56.0" stroke="url(#l2)" stroke-width="60.0" stroke-linecap="round"/>
<line x1="-163.4" y1="13.1" x2="-192.7" y2="-27.4" stroke="url(#l3)" stroke-width="60.0" stroke-linecap="round"/>
<line x1="-163.4" y1="13.1" x2="-203.8" y2="42.4" stroke="url(#l4)" stroke-width="60.0" stroke-linecap="round"/>
<line x1="-163.4" y1="13.1" x2="-126.5" y2="-62.6" stroke="url(#l5)" stroke-width="60.0" stroke-linecap="round"/>
<line x1="-163.4" y1="13.1" x2="-62.3" y2="-58.1" stroke="url(#l6)" stroke-width="60.0" stroke-linecap="round"/>
<line x1="-97.1" y1="-22.1" x2="-33.5" y2="17.6" stroke="url(#l7)" stroke-width="60.0" stroke-linecap="round"/>
<line x1="-97.1" y1="-22.1" x2="32.7" y2="-17.6" stroke="url(#l8)" stroke-width="60.0" stroke-linecap="round"/>
<line x1="-97.1" y1="-22.1" x2="-137.7" y2="56.0" stroke="url(#l9)" stroke-width="60.0" stroke-linecap="round"/>
<line x1="-97.1" y1="-22.1" x2="-192.7" y2="-27.4" stroke="url(#l10)" stroke-width="60.0" stroke-linecap="round"/>
<line x1="-97.1" y1="-22.1" x2="-203.8" y2="42.4" stroke="url(#l11)" stroke-width="60.0" stroke-linecap="round"/>
<line x1="-97.1" y1="-22.1" x2="-126.5" y2="-62.6" stroke="url(#l12)" stroke-width="60.0" stroke-linecap="round"/>
<line x1="-97.1" y1="-22.1" x2="-62.3" y2="-58.1" stroke="url(#l13)" stroke-width="60.0" stroke-linecap="round"/>
<line x1="-33.5" y1="17.6" x2="32.7" y2="-17.6" stroke="url(#l14)" stroke-width="60.0" stroke-linecap="round"/>
<line x1="-33.5" y1="17.6" x2="96.3" y2="22.1" stroke="url(#l15)" stroke-width="60.0" stroke-linecap="round"/>
<line x1="-33.5" y1="17.6" x2="-137.7" y2="56.0" stroke="url(#l16)" stroke-width="60.0" stroke-linecap="round"/>
<line x1="-33.5" y1="17.6" x2="-126.5" y2="-62.6" stroke="url(#l17)" stroke-width="60.0" stroke-linecap="round"/>
<line x1="-33.5" y1="17.6" x2="-62.3" y2="-58.1" stroke="url(#l18)" stroke-width="60.0" stroke-linecap="round"/>
<line x1="-33.5" y1="17.6" x2="64.8" y2="60.9" stroke="url(#l19)" stroke-width="60.0" stroke-linecap="round"/>
<line x1="32.7" y1="-17.6" x2="96.3" y2="22.1" stroke="url(#l20)" stroke-width="60.0" stroke-linecap="round"/>
<line x1="32.7" y1="-17.6" x2="162.5" y2="-13.1" stroke="url(#l21)" stroke-width="60.0" stroke-linecap="round"/>
<line x1="32.7" y1="-17.6" x2="-62.3" y2="-58.1" stroke="url(#l22)" stroke-width="60.0" stroke-linecap="round"/>
<line x1="32.7" y1="-17.6" x2="64.8" y2="60.9" stroke="url(#l23)" stroke-width="60.0" stroke-linecap="round"/>
<line x1="32.7" y1="-17.6" x2="129.0" y2="59.9" stroke="url(#l24)" stroke-width="60.0" stroke-linecap="round"/>
<line x1="32.7" y1="-17.6" x2="136.8" y2="-56.0" stroke="url(#l25)" stroke-width="60.0" stroke-linecap="round"/>
<line x1="96.3" y1="22.1" x2="162.5" y2="-13.1" stroke="url(#l26)" stroke-width="60.0" stroke-linecap="round"/>
<line x1="96.3" y1="22.1" x2="64.8" y2="60.9" stroke="url(#l27)" stroke-width="60.0" stroke-linecap="round"/>
<line x1="96.3" y1="22.1" x2="129.0" y2="59.9" stroke="url(#l28)" stroke-width="60.0" stroke-linecap="round"/>
<line x1="96.3" y1="22.1" x2="136.8" y2="-56.0" stroke="url(#l29)" stroke-width="60.0" stroke-linecap="round"/>
<line x1="96.3" y1="22.1" x2="191.8" y2="27.4" stroke="url(#l30)" stroke-width="60.0" stroke-linecap="round"/>
<line x1="96.3" y1="22.1" x2="203.0" y2="-42.4" stroke="url(#l31)" stroke-width="60.0" stroke-linecap="round"/>
<line x1="162.5" y1="-13.1" x2="64.8" y2="60.9" stroke="url(#l32)" stroke-width="60.0" stroke-linecap="round"/>
<line x1="162.5" y1="-13.1" x2="129.0" y2="59.9" stroke="url(#l33)" stroke-width="60.0" stroke-linecap="round"/>
<line x1="162.5" y1="-13.1" x2="136.8" y2="-56.0" stroke="url(#l34)" stroke-width="60.0" stroke-linecap="round"/>
<line x1="162.5" y1="-13.1" x2="191.8" y2="27.4" stroke="url(#l35)" stroke-width="60.0" stroke-linecap="round"/>
<line x1="162.5" y1="-13.1" x2="203.0" y2="-42.4" stroke="url(#l36)" stroke-width="60.0" stroke-linecap="round"/>
<line x1="-137.7" y1="56.0" x2="-192.7" y2="-27.4" stroke="url(#l37)" stroke-width="60.0" stroke-linecap="round"/>
<line x1="-137.7" y1="56.0" x2="-203.8" y2="42.4" stroke="url(#l38)" stroke-width="60.0" stroke-linecap="round"/>
<line x1="-137.7" y1="56.0" x2="-126.5" y2="-62.6" stroke="url(#l39)" stroke-width="60.0" stroke-linecap="round"/>
<line x1="-137.7" y1="56.0" x2="-62.3" y2="-58.1" stroke="url(#l40)" stroke-width="60.0" stroke-linecap="round"/>
<line x1="-192.7" y1="-27.4" x2="-203.8" y2="42.4" stroke="url(#l41)" stroke-width="60.0" stroke-linecap="round"/>
<line x1="-192.7" y1="-27.4" x2="-126.5" y2="-62.6" stroke="url(#l42)" stroke-width="60.0" stroke-linecap="round"/>
<line x1="-192.7" y1="-27.4" x2="-62.3" y2="-58.1" stroke="url(#l43)" stroke-width="60.0" stroke-linecap="round"/>
<line x1="-203.8" y1="42.4" x2="-126.5" y2="-62.6" stroke="url(#l44)" stroke-width="60.0" stroke-linecap="round"/>
<line x1="-126.5" y1="-62.6" x2="-62.3" y2="-58.1" stroke="url(#l45)" stroke-width="60.0" stroke-linecap="round"/>
<line x1="64.8" y1="60.9" x2="129.0" y2="59.9" stroke="url(#l46)" stroke-width="60.0" stroke-linecap="round"/>
<line x1="64.8" y1="60.9" x2="136.8" y2="-56.0" stroke="url(#l47)" stroke-width="60.0" stroke-linecap="round"/>
<line x1="64.8" y1="60.9" x2="191.8" y2="27.4" stroke="url(#l48)" stroke-width="60.0" stroke-linecap="round"/>
<line x1="129.0" y1="59.9" x2="136.8" y2="-56.0" stroke="url(#l49)" stroke-width="60.0" stroke-linecap="round"/>
<line x1="129.0" y1="59.9" x2="191.8" y2="27.4" stroke="url(#l50)" stroke-width="60.0" stroke-linecap="round"/>
<line x1="129.0" y1="59.9" x2="203.0" y2="-42.4" stroke="url(#l51)" stroke-width="60.0" stroke-linecap="round"/>
<line x1="136.8" y1="-56.0" x2="191.8" y2="27.4" stroke="url(#l52)" stroke-width="60.0" stroke-linecap="round"/>
<line x1="136.8" y1="-56.0" x2="203.0" y2="-42.4" stroke="url(#l53)" stroke-width="60.0" stroke-linecap="round"/>
<line x1="191.8" y1="27.4" x2="203.0" y2="-42.4" stroke="url(#l54)" stroke-width="60.0" stroke-linecap="round"/>
<line x1="-163.4" y1="13.1" x2="-97.1" y2="-22.1" stroke="url(#l55)" stroke-width="60.0" stroke-linecap="round"/>
<line x1="-97.1" y1="-22.1" x2="-33.5" y2="17.6" stroke="url(#l56)" stroke-width="60.0" stroke-linecap="round"/>
<line x1="-33.5" y1="17.6" x2="32.7" y2="-17.6" stroke="url(#l57)" stroke-width="60.0" stroke-linecap="round"/>
<line x1="32.7" y1="-17.6" x2="96.3" y2="22.1" stroke="url(#l58)" stroke-width="60.0" stroke-linecap="round"/>
<line x1="96.3" y1="22.1" x2="162.5" y2="-13.1" stroke="url(#l59)" stroke-width="60.0" stroke-linecap="round"/>
<line x1="-163.4" y1="13.1" x2="-137.7" y2="56.0" stroke="url(#l60)" stroke-width="60.0" stroke-linecap="round"/>
<line x1="-163.4" y1="13.1" x2="-192.7" y2="-27.4" stroke="url(#l61)" stroke-width="60.0" stroke-linecap="round"/>
<line x1="-163.4" y1="13.1" x2="-203.8" y2="42.4" stroke="url(#l62)" stroke-width="60.0" stroke-linecap="round"/>
<line x1="-97.1" y1="-22.1" x2="-126.5" y2="-62.6" stroke="url(#l63)" stroke-width="60.0" stroke-linecap="round"/>
<line x1="-97.1" y1="-22.1" x2="-62.3" y2="-58.1" stroke="url(#l64)" stroke-width="60.0" stroke-linecap="round"/>
<line x1="96.3" y1="22.1" x2="64.8" y2="60.9" stroke="url(#l65)" stroke-width="60.0" stroke-linecap="round"/>
<line x1="96.3" y1="22.1" x2="129.0" y2="59.9" stroke="url(#l66)" stroke-width="60.0" stroke-linecap="round"/>
<line x1="162.5" y1="-13.1" x2="136.8" y2="-56.0" stroke="url(#l67)" stroke-width="60.0" stroke-linecap="round"/>
<line x1="162.5" y1="-13.1" x2="191.8" y2="27.4" stroke="url(#l68)" stroke-width="60.0" stroke-linecap="round"/>
<line x1="162.5" y1="-13.1" x2="203.0" y2="-42.4" stroke="url(#l69)" stroke-width="60.0" stroke-linecap="round"/>
<circle cx="-163.4" cy="13.1" r="51.0" fill="#bababa" stroke="none"/>
<circle cx="-97.1" cy="-22.1" r="51.0" fill="#bababa" stroke="none"/>
<circle cx="-33.5" cy="17.6" r="54.0" fill="#ebdd7d" stroke="none"/>
<circle cx="32.7" cy="-17.6" r="54.0" fill="#ebdd7d" stroke="none"/>
<circle cx="96.3" cy="22.1" r="51.0" fill="#bababa" stroke="none"/>
<circle cx="162.5" cy="-13.1" r="51.0" fill="#bababa" stroke="none"/>
<circle cx="-137.7" cy="56.0" r="45.0" fill="#d7d7d7" stroke="none"/>
<circle cx="-192.7" cy="-27.4" r="45.0" fill="#d7d7d7" stroke="none"/>
<circle cx="-203.8" cy="42.4" r="45.0" fill="#d7d7d7" stroke="none"/>
<circle cx="-126.5" cy="-62.6" r="45.0" fill="#d7d7d7" stroke="none"/>
<circle cx="-62.3" cy="-58.1" r="45.0" fill="#d7d7d7" stroke="none"/>
<circle cx="64.8" cy="60.9" r="45.0" fill="#d7d7d7" stroke="none"/>
<circle cx="129.0" cy="59.9" r="45.0" fill="#d7d7d7" stroke="none"/>
<circle cx="136.8" cy="-56.0" r="45.0" fill="#d7d7d7" stroke="none"/>
<circle cx="191.8" cy="27.4" r="45.0" fill="#d7d7d7" stroke="none"/>
<circle cx="203.0" cy="-42.4" r="45.0" fill="#d7d7d7" stroke="none"/>
</g>
<g stroke="#111" stroke-width="6" stroke-linecap="round">
<line x1="-163.4" y1="13.1" x2="-97.1" y2="-22.1"/>
<line x1="-97.1" y1="-22.1" x2="-33.5" y2="17.6"/>
<line x1="-33.5" y1="17.6" x2="32.7" y2="-17.6"/>
<line x1="32.7" y1="-17.6" x2="96.3" y2="22.1"/>
<line x1="96.3" y1="22.1" x2="162.5" y2="-13.1"/>
<line x1="-163.4" y1="13.1" x2="-137.7" y2="56.0"/>
<line x1="-163.4" y1="13.1" x2="-192.7" y2="-27.4"/>
<line x1="-163.4" y1="13.1" x2="-203.8" y2="42.4"/>
<line x1="-97.1" y1="-22.1" x2="-126.5" y2="-62.6"/>
<line x1="-97.1" y1="-22.1" x2="-62.3" y2="-58.1"/>
<line x1="96.3" y1="22.1" x2="64.8" y2="60.9"/>
<line x1="96.3" y1="22.1" x2="129.0" y2="59.9"/>
<line x1="162.5" y1="-13.1" x2="136.8" y2="-56.0"/>
<line x1="162.5" y1="-13.1" x2="191.8" y2="27.4"/>
<line x1="162.5" y1="-13.1" x2="203.0" y2="-42.4"/>
</g>
<circle cx="-163.4" cy="13.1" r="21" fill="url(#gC)" stroke="#111" stroke-width="3"/>
<text x="-163.4" y="14.0" text-anchor="middle" dominant-baseline="central" font-family="Arial, Helvetica, sans-serif" font-weight="bold" font-size="24" fill="#111">C</text>
<circle cx="-97.1" cy="-22.1" r="21" fill="url(#gC)" stroke="#111" stroke-width="3"/>
<text x="-97.1" y="-21.2" text-anchor="middle" dominant-baseline="central" font-family="Arial, Helvetica, sans-serif" font-weight="bold" font-size="24" fill="#111">C</text>
<circle cx="-33.5" cy="17.6" r="24" fill="url(#gS)" stroke="#111" stroke-width="3"/>
<text x="-33.5" y="18.7" text-anchor="middle" dominant-baseline="central" font-family="Arial, Helvetica, sans-serif" font-weight="bold" font-size="28" fill="#111">S</text>
<circle cx="32.7" cy="-17.6" r="24" fill="url(#gS)" stroke="#111" stroke-width="3"/>
<text x="32.7" y="-16.5" text-anchor="middle" dominant-baseline="central" font-family="Arial, Helvetica, sans-serif" font-weight="bold" font-size="28" fill="#111">S</text>
<circle cx="96.3" cy="22.1" r="21" fill="url(#gC)" stroke="#111" stroke-width="3"/>
<text x="96.3" y="23.1" text-anchor="middle" dominant-baseline="central" font-family="Arial, Helvetica, sans-serif" font-weight="bold" font-size="24" fill="#111">C</text>
<circle cx="162.5" cy="-13.1" r="21" fill="url(#gC)" stroke="#111" stroke-width="3"/>
<text x="162.5" y="-12.1" text-anchor="middle" dominant-baseline="central" font-family="Arial, Helvetica, sans-serif" font-weight="bold" font-size="24" fill="#111">C</text>
<circle cx="-137.7" cy="56.0" r="15" fill="url(#gH)" stroke="#111" stroke-width="3"/>
<text x="-137.7" y="56.7" text-anchor="middle" dominant-baseline="central" font-family="Arial, Helvetica, sans-serif" font-weight="bold" font-size="17" fill="#111">H</text>
<circle cx="-192.7" cy="-27.4" r="15" fill="url(#gH)" stroke="#111" stroke-width="3"/>
<text x="-192.7" y="-26.7" text-anchor="middle" dominant-baseline="central" font-family="Arial, Helvetica, sans-serif" font-weight="bold" font-size="17" fill="#111">H</text>
<circle cx="-203.8" cy="42.4" r="15" fill="url(#gH)" stroke="#111" stroke-width="3"/>
<text x="-203.8" y="43.1" text-anchor="middle" dominant-baseline="central" font-family="Arial, Helvetica, sans-serif" font-weight="bold" font-size="17" fill="#111">H</text>
<circle cx="-126.5" cy="-62.6" r="15" fill="url(#gH)" stroke="#111" stroke-width="3"/>
<text x="-126.5" y="-62.0" text-anchor="middle" dominant-baseline="central" font-family="Arial, Helvetica, sans-serif" font-weight="bold" font-size="17" fill="#111">H</text>
<circle cx="-62.3" cy="-58.1" r="15" fill="url(#gH)" stroke="#111" stroke-width="3"/>
<text x="-62.3" y="-57.4" text-anchor="middle" dominant-baseline="central" font-family="Arial, Helvetica, sans-serif" font-weight="bold" font-size="17" fill="#111">H</text>
<circle cx="64.8" cy="60.9" r="15" fill="url(#gH)" stroke="#111" stroke-width="3"/>
<text x="64.8" y="61.6" text-anchor="middle" dominant-baseline="central" font-family="Arial, Helvetica, sans-serif" font-weight="bold" font-size="17" fill="#111">H</text>
<circle cx="129.0" cy="59.9" r="15" fill="url(#gH)" stroke="#111" stroke-width="3"/>
<text x="129.0" y="60.6" text-anchor="middle" dominant-baseline="central" font-family="Arial, Helvetica, sans-serif" font-weight="bold" font-size="17" fill="#111">H</text>
<circle cx="136.8" cy="-56.0" r="15" fill="url(#gH)" stroke="#111" stroke-width="3"/>
<text x="136.8" y="-55.3" text-anchor="middle" dominant-baseline="central" font-family="Arial, Helvetica, sans-serif" font-weight="bold" font-size="17" fill="#111">H</text>
<circle cx="191.8" cy="27.4" r="15" fill="url(#gH)" stroke="#111" stroke-width="3"/>
<text x="191.8" y="28.1" text-anchor="middle" dominant-baseline="central" font-family="Arial, Helvetica, sans-serif" font-weight="bold" font-size="17" fill="#111">H</text>
<circle cx="203.0" cy="-42.4" r="15" fill="url(#gH)" stroke="#111" stroke-width="3"/>
<text x="203.0" y="-41.7" text-anchor="middle" dominant-baseline="central" font-family="Arial, Helvetica, sans-serif" font-weight="bold" font-size="17" fill="#111">H</text>
</svg>