<svg xmlns="http://www.w3.org/2000/svg" viewBox="-247 -168 493 362" width="493" height="362">
<defs>
<radialGradient id="gC" cx="40%" cy="35%" r="70%"><stop offset="0" stop-color="#c9c9c9"/><stop offset="1" stop-color="#9d9d9d"/></radialGradient>
<radialGradient id="gH" cx="40%" cy="35%" r="70%"><stop offset="0" stop-color="#dfdfdf"/><stop offset="1" stop-color="#c6c6c6"/></radialGradient>
<radialGradient id="gN" cx="40%" cy="35%" r="70%"><stop offset="0" stop-color="#a4b5ea"/><stop offset="1" stop-color="#5a79d9"/></radialGradient>
<radialGradient id="gO" cx="40%" cy="35%" r="70%"><stop offset="0" stop-color="#f0918b"/><stop offset="1" stop-color="#e5382d"/></radialGradient>
<radialGradient id="gP" cx="40%" cy="35%" r="70%"><stop offset="0" stop-color="#f6c38a"/><stop offset="1" stop-color="#f0932b"/></radialGradient>
<radialGradient id="gS" cx="40%" cy="35%" r="70%"><stop offset="0" stop-color="#efe499"/><stop offset="1" stop-color="#e3cf46"/></radialGradient>
<radialGradient id="gMg" cx="40%" cy="35%" r="70%"><stop offset="0" stop-color="#b8e4b8"/><stop offset="1" stop-color="#7fcf7f"/></radialGradient>
<radialGradient id="gX" cx="40%" cy="35%" r="70%"><stop offset="0" stop-color="#e0e0e0"/><stop offset="1" stop-color="#b0b0b0"/></radialGradient>
</defs>
<g fill="#111" stroke="#111" stroke-linecap="round" stroke-linejoin="round">
<line x1="-130.8" y1="-51.6" x2="-131.1" y2="23.4" stroke-width="70.0"/>
<line x1="-131.1" y1="23.4" x2="-66.3" y2="61.2" stroke-width="70.0"/>
<line x1="-66.3" y1="61.2" x2="-28.5" y2="-3.6" stroke-width="70.0"/>
<line x1="-66.3" y1="61.2" x2="-104.1" y2="126.0" stroke-width="70.0"/>
<line x1="-66.3" y1="61.2" x2="-1.5" y2="98.9" stroke-width="70.0"/>
<line x1="-1.5" y1="98.9" x2="63.6" y2="61.7" stroke-width="70.0"/>
<line x1="63.6" y1="61.7" x2="100.8" y2="126.8" stroke-width="70.0"/>
<line x1="63.6" y1="61.7" x2="26.4" y2="-3.4" stroke-width="70.0"/>
<line x1="63.6" y1="61.7" x2="128.7" y2="24.5" stroke-width="70.0"/>
<line x1="128.7" y1="24.5" x2="129.0" y2="-50.5" stroke-width="70.0"/>
<line x1="-130.8" y1="-51.6" x2="-81.0" y2="-47.0" stroke-width="70.0"/>
<line x1="-130.8" y1="-51.6" x2="-180.0" y2="-60.5" stroke-width="70.0"/>
<line x1="-130.8" y1="-51.6" x2="-121.9" y2="-100.8" stroke-width="70.0"/>
<line x1="129.0" y1="-50.5" x2="178.8" y2="-45.9" stroke-width="70.0"/>
<line x1="129.0" y1="-50.5" x2="79.8" y2="-59.4" stroke-width="70.0"/>
<line x1="129.0" y1="-50.5" x2="137.9" y2="-99.7" stroke-width="70.0"/>
<line x1="-130.8" y1="-51.6" x2="-131.1" y2="23.4" stroke-width="70.0"/>
<line x1="-130.8" y1="-51.6" x2="-66.3" y2="61.2" stroke-width="70.0"/>
<line x1="-130.8" y1="-51.6" x2="-28.5" y2="-3.6" stroke-width="70.0"/>
<line x1="-130.8" y1="-51.6" x2="-81.0" y2="-47.0" stroke-width="70.0"/>
<line x1="-130.8" y1="-51.6" x2="-180.0" y2="-60.5" stroke-width="70.0"/>
<line x1="-130.8" y1="-51.6" x2="-121.9" y2="-100.8" stroke-width="70.0"/>
<line x1="-131.1" y1="23.4" x2="-66.3" y2="61.2" stroke-width="70.0"/>
<line x1="-131.1" y1="23.4" x2="-28.5" y2="-3.6" stroke-width="70.0"/>
<line x1="-131.1" y1="23.4" x2="-104.1" y2="126.0" stroke-width="70.0"/>
<line x1="-131.1" y1="23.4" x2="-81.0" y2="-47.0" stroke-width="70.0"/>
<line x1="-131.1" y1="23.4" x2="-180.0" y2="-60.5" stroke-width="70.0"/>
<line x1="-131.1" y1="23.4" x2="-121.9" y2="-100.8" stroke-width="70.0"/>
<line x1="-66.3" y1="61.2" x2="-28.5" y2="-3.6" stroke-width="70.0"/>
<line x1="-66.3" y1="61.2" x2="-104.1" y2="126.0" stroke-width="70.0"/>
<line x1="-66.3" y1="61.2" x2="-1.5" y2="98.9" stroke-width="70.0"/>
<line x1="-66.3" y1="61.2" x2="63.6" y2="61.7" stroke-width="70.0"/>
<line x1="-66.3" y1="61.2" x2="26.4" y2="-3.4" stroke-width="70.0"/>
<line x1="-66.3" y1="61.2" x2="-81.0" y2="-47.0" stroke-width="70.0"/>
<line x1="-28.5" y1="-3.6" x2="-1.5" y2="98.9" stroke-width="70.0"/>
<line x1="-28.5" y1="-3.6" x2="63.6" y2="61.7" stroke-width="70.0"/>
<line x1="-28.5" y1="-3.6" x2="26.4" y2="-3.4" stroke-width="70.0"/>
<line x1="-28.5" y1="-3.6" x2="-81.0" y2="-47.0" stroke-width="70.0"/>
<line x1="-28.5" y1="-3.6" x2="-121.9" y2="-100.8" stroke-width="70.0"/>
<line x1="-28.5" y1="-3.6" x2="79.8" y2="-59.4" stroke-width="70.0"/>
<line x1="-104.1" y1="126.0" x2="-1.5" y2="98.9" stroke-width="70.0"/>
<line x1="-1.5" y1="98.9" x2="63.6" y2="61.7" stroke-width="70.0"/>
<line x1="-1.5" y1="98.9" x2="100.8" y2="126.8" stroke-width="70.0"/>
<line x1="-1.5" y1="98.9" x2="26.4" y2="-3.4" stroke-width="70.0"/>
<line x1="-1.5" y1="98.9" x2="128.7" y2="24.5" stroke-width="70.0"/>
<line x1="63.6" y1="61.7" x2="100.8" y2="126.8" stroke-width="70.0"/>
<line x1="63.6" y1="61.7" x2="26.4" y2="-3.4" stroke-width="70.0"/>
<line x1="63.6" y1="61.7" x2="128.7" y2="24.5" stroke-width="70.0"/>
<line x1="63.6" y1="61.7" x2="129.0" y2="-50.5" stroke-width="70.0"/>
<line x1="63.6" y1="61.7" x2="79.8" y2="-59.4" stroke-width="70.0"/>
<line x1="100.8" y1="126.8" x2="128.7" y2="24.5" stroke-width="70.0"/>
<line x1="26.4" y1="-3.4" x2="128.7" y2="24.5" stroke-width="70.0"/>
<line x1="26.4" y1="-3.4" x2="129.0" y2="-50.5" stroke-width="70.0"/>
<line x1="26.4" y1="-3.4" x2="-81.0" y2="-47.0" stroke-width="70.0"/>
<line x1="26.4" y1="-3.4" x2="79.8" y2="-59.4" stroke-width="70.0"/>
<line x1="26.4" y1="-3.4" x2="137.9" y2="-99.7" stroke-width="70.0"/>
<line x1="128.7" y1="24.5" x2="129.0" y2="-50.5" stroke-width="70.0"/>
<line x1="128.7" y1="24.5" x2="178.8" y2="-45.9" stroke-width="70.0"/>
<line x1="128.7" y1="24.5" x2="79.8" y2="-59.4" stroke-width="70.0"/>
<line x1="128.7" y1="24.5" x2="137.9" y2="-99.7" stroke-width="70.0"/>
<line x1="129.0" y1="-50.5" x2="178.8" y2="-45.9" stroke-width="70.0"/>
<line x1="129.0" y1="-50.5" x2="79.8" y2="-59.4" stroke-width="70.0"/>
<line x1="129.0" y1="-50.5" x2="137.9" y2="-99.7" stroke-width="70.0"/>
<line x1="-81.0" y1="-47.0" x2="-180.0" y2="-60.5" stroke-width="70.0"/>
<line x1="-81.0" y1="-47.0" x2="-121.9" y2="-100.8" stroke-width="70.0"/>
<line x1="-180.0" y1="-60.5" x2="-121.9" y2="-100.8" stroke-width="70.0"/>
<line x1="178.8" y1="-45.9" x2="79.8" y2="-59.4" stroke-width="70.0"/>
<line x1="178.8" y1="-45.9" x2="137.9" y2="-99.7" stroke-width="70.0"/>
<line x1="79.8" y1="-59.4" x2="137.9" y2="-99.7" stroke-width="70.0"/>
<circle cx="-130.8" cy="-51.6" r="56.0" stroke="none"/>
<circle cx="-131.1" cy="23.4" r="56.0" stroke="none"/>
<circle cx="-66.3" cy="61.2" r="59.0" stroke="none"/>
<circle cx="-28.5" cy="-3.6" r="56.0" stroke="none"/>
<circle cx="-104.1" cy="126.0" r="56.0" stroke="none"/>
<circle cx="-1.5" cy="98.9" r="56.0" stroke="none"/>
<circle cx="63.6" cy="61.7" r="59.0" stroke="none"/>
<circle cx="100.8" cy="126.8" r="56.0" stroke="none"/>
<circle cx="26.4" cy="-3.4" r="56.0" stroke="none"/>
<circle cx="128.7" cy="24.5" r="56.0" stroke="none"/>
<circle cx="129.0" cy="-50.5" r="56.0" stroke="none"/>
<circle cx="-81.0" cy="-47.0" r="50.0" stroke="none"/>
<circle cx="-180.0" cy="-60.5" r="50.0" stroke="none"/>
<circle cx="-121.9" cy="-100.8" r="50.0" stroke="none"/>
<circle cx="178.8" cy="-45.9" r="50.0" stroke="none"/>
<circle cx="79.8" cy="-59.4" r="50.0" stroke="none"/>
<circle cx="137.9" cy="-99.7" r="50.0" stroke="none"/>
</g>
<g fill="#e8221c" stroke="#e8221c" stroke-linecap="round" stroke-linejoin="round">
<line x1="-130.8" y1="-51.6" x2="-131.1" y2="23.4" stroke-width="60.0"/>
<line x1="-131.1" y1="23.4" x2="-66.3" y2="61.2" stroke-width="60.0"/>
<line x1="-66.3" y1="61.2" x2="-28.5" y2="-3.6" stroke-width="60.0"/>
<line x1="-66.3" y1="61.2" x2="-104.1" y2="126.0" stroke-width="60.0"/>
<line x1="-66.3" y1="61.2" x2="-1.5" y2="98.9" stroke-width="60.0"/>
<line x1="-1.5" y1="98.9" x2="63.6" y2="61.7" stroke-width="60.0"/>
<line x1="63.6" y1="61.7" x2="100.8" y2="126.8" stroke-width="60.0"/>
<line x1="63.6" y1="61.7" x2="26.4" y2="-3.4" stroke-width="60.0"/>
<line x1="63.6" y1="61.7" x2="128.7" y2="24.5" stroke-width="60.0"/>
<line x1="128.7" y1="24.5" x2="129.0" y2="-50.5" stroke-width="60.0"/>
<line x1="-130.8" y1="-51.6" x2="-81.0" y2="-47.0" stroke-width="60.0"/>
<line x1="-130.8" y1="-51.6" x2="-180.0" y2="-60.5" stroke-width="60.0"/>
<line x1="-130.8" y1="-51.6" x2="-121.9" y2="-100.8" stroke-width="60.0"/>
<line x1="129.0" y1="-50.5" x2="178.8" y2="-45.9" stroke-width="60.0"/>
<line x1="129.0" y1="-50.5" x2="79.8" y2="-59.4" stroke-width="60.0"/>
<line x1="129.0" y1="-50.5" x2="137.9" y2="-99.7" stroke-width="60.0"/>
<line x1="-130.8" y1="-51.6" x2="-131.1" y2="23.4" stroke-width="60.0"/>
<line x1="-130.8" y1="-51.6" x2="-66.3" y2="61.2" stroke-width="60.0"/>
<line x1="-130.8" y1="-51.6" x2="-28.5" y2="-3.6" stroke-width="60.0"/>
<line x1="-130.8" y1="-51.6" x2="-81.0" y2="-47.0" stroke-width="60.0"/>
<line x1="-130.8" y1="-51.6" x2="-180.0" y2="-60.5" stroke-width="60.0"/>
<line x1="-130.8" y1="-51.6" x2="-121.9" y2="-100.8" stroke-width="60.0"/>
<line x1="-131.1" y1="23.4" x2="-66.3" y2="61.2" stroke-width="60.0"/>
<line x1="-131.1" y1="23.4" x2="-28.5" y2="-3.6" stroke-width="60.0"/>
<line x1="-131.1" y1="23.4" x2="-104.1" y2="126.0" stroke-width="60.0"/>
<line x1="-131.1" y1="23.4" x2="-81.0" y2="-47.0" stroke-width="60.0"/>
<line x1="-131.1" y1="23.4" x2="-180.0" y2="-60.5" stroke-width="60.0"/>
<line x1="-131.1" y1="23.4" x2="-121.9" y2="-100.8" stroke-width="60.0"/>
<line x1="-66.3" y1="61.2" x2="-28.5" y2="-3.6" stroke-width="60.0"/>
<line x1="-66.3" y1="61.2" x2="-104.1" y2="126.0" stroke-width="60.0"/>
<line x1="-66.3" y1="61.2" x2="-1.5" y2="98.9" stroke-width="60.0"/>
<line x1="-66.3" y1="61.2" x2="63.6" y2="61.7" stroke-width="60.0"/>
<line x1="-66.3" y1="61.2" x2="26.4" y2="-3.4" stroke-width="60.0"/>
<line x1="-66.3" y1="61.2" x2="-81.0" y2="-47.0" stroke-width="60.0"/>
<line x1="-28.5" y1="-3.6" x2="-1.5" y2="98.9" stroke-width="60.0"/>
<line x1="-28.5" y1="-3.6" x2="63.6" y2="61.7" stroke-width="60.0"/>
<line x1="-28.5" y1="-3.6" x2="26.4" y2="-3.4" stroke-width="60.0"/>
<line x1="-28.5" y1="-3.6" x2="-81.0" y2="-47.0" stroke-width="60.0"/>
<line x1="-28.5" y1="-3.6" x2="-121.9" y2="-100.8" stroke-width="60.0"/>
<line x1="-28.5" y1="-3.6" x2="79.8" y2="-59.4" stroke-width="60.0"/>
<line x1="-104.1" y1="126.0" x2="-1.5" y2="98.9" stroke-width="60.0"/>
<line x1="-1.5" y1="98.9" x2="63.6" y2="61.7" stroke-width="60.0"/>
<line x1="-1.5" y1="98.9" x2="100.8" y2="126.8" stroke-width="60.0"/>
<line x1="-1.5" y1="98.9" x2="26.4" y2="-3.4" stroke-width="60.0"/>
<line x1="-1.5" y1="98.9" x2="128.7" y2="24.5" stroke-width="60.0"/>
<line x1="63.6" y1="61.7" x2="100.8" y2="126.8" stroke-width="60.0"/>
<line x1="63.6" y1="61.7" x2="26.4" y2="-3.4" stroke-width="60.0"/>
<line x1="63.6" y1="61.7" x2="128.7" y2="24.5" stroke-width="60.0"/>
<line x1="63.6" y1="61.7" x2="129.0" y2="-50.5" stroke-width="60.0"/>
<line x1="63.6" y1="61.7" x2="79.8" y2="-59.4" stroke-width="60.0"/>
<line x1="100.8" y1="126.8" x2="128.7" y2="24.5" stroke-width="60.0"/>
<line x1="26.4" y1="-3.4" x2="128.7" y2="24.5" stroke-width="60.0"/>
<line x1="26.4" y1="-3.4" x2="129.0" y2="-50.5" stroke-width="60.0"/>
<line x1="26.4" y1="-3.4" x2="-81.0" y2="-47.0" stroke-width="60.0"/>
<line x1="26.4" y1="-3.4" x2="79.8" y2="-59.4" stroke-width="60.0"/>
<line x1="26.4" y1="-3.4" x2="137.9" y2="-99.7" stroke-width="60.0"/>
<line x1="128.7" y1="24.5" x2="129.0" y2="-50.5" stroke-width="60.0"/>
<line x1="128.7" y1="24.5" x2="178.8" y2="-45.9" stroke-width="60.0"/>
<line x1="128.7" y1="24.5" x2="79.8" y2="-59.4" stroke-width="60.0"/>
<line x1="128.7" y1="24.5" x2="137.9" y2="-99.7" stroke-width="60.0"/>
<line x1="129.0" y1="-50.5" x2="178.8" y2="-45.9" stroke-width="60.0"/>
<line x1="129.0" y1="-50.5" x2="79.8" y2="-59.4" stroke-width="60.0"/>
<line x1="129.0" y1="-50.5" x2="137.9" y2="-99.7" stroke-width="60.0"/>
<line x1="-81.0" y1="-47.0" x2="-180.0" y2="-60.5" stroke-width="60.0"/>
<line x1="-81.0" y1="-47.0" x2="-121.9" y2="-100.8" stroke-width="60.0"/>
<line x1="-180.0" y1="-60.5" x2="-121.9" y2="-100.8" stroke-width="60.0"/>
<line x1="178.8" y1="-45.9" x2="79.8" y2="-59.4" stroke-width="60.0"/>
<line x1="178.8" y1="-45.9" x2="137.9" y2="-99.7" stroke-width="60.0"/>
<line x1="79.8" y1="-59.4" x2="137.9" y2="-99.7" stroke-width="60.0"/>
<circle cx="-130.8" cy="-51.6" r="51.0" stroke="none"/>
<circle cx="-131.1" cy="23.4" r="51.0" stroke="none"/>
<circle cx="-66.3" cy="61.2" r="54.0" stroke="none"/>
<circle cx="-28.5" cy="-3.6" r="51.0" stroke="none"/>
<circle cx="-104.1" cy="126.0" r="51.0" stroke="none"/>
<circle cx="-1.5" cy="98.9" r="51.0" stroke="none"/>
<circle cx="63.6" cy="61.7" r="54.0" stroke="none"/>
<circle cx="100.8" cy="126.8" r="51.0" stroke="none"/>
<circle cx="26.4" cy="-3.4" r="51.0" stroke="none"/>
<circle cx="128.7" cy="24.5" r="51.0" stroke="none"/>
<circle cx="129.0" cy="-50.5" r="51.0" stroke="none"/>
<circle cx="-81.0" cy="-47.0" r="45.0" stroke="none"/>
<circle cx="-180.0" cy="-60.5" r="45.0" stroke="none"/>
<circle cx="-121.9" cy="-100.8" r="45.0" stroke="none"/>
<circle cx="178.8" cy="-45.9" r="45.0" stroke="none"/>
<circle cx="79.8" cy="-59.4" r="45.0" stroke="none"/>
<circle cx="137.9" cy="-99.7" r="45.0" stroke="none"/>
</g>
<g stroke="#111" stroke-width="6" stroke-linecap="round">
<line x1="-130.8" y1="-51.6" x2="-131.1" y2="23.4"/>
<line x1="-131.1" y1="23.4" x2="-66.3" y2="61.2"/>
<line x1="-72.3" y1="57.6" x2="-34.6" y2="-7.1"/>
<line x1="-60.2" y1="64.7" x2="-22.5" y2="-0.1"/>
<line x1="-66.3" y1="61.2" x2="-104.1" y2="126.0"/>
<line x1="-66.3" y1="61.2" x2="-1.5" y2="98.9"/>
<line x1="-1.5" y1="98.9" x2="63.6" y2="61.7"/>
<line x1="69.7" y1="58.2" x2="106.9" y2="123.3"/>
<line x1="57.5" y1="65.2" x2="94.8" y2="130.3"/>
<line x1="63.6" y1="61.7" x2="26.4" y2="-3.4"/>
<line x1="63.6" y1="61.7" x2="128.7" y2="24.5"/>
<line x1="128.7" y1="24.5" x2="129.0" y2="-50.5"/>
<line x1="-130.8" y1="-51.6" x2="-81.0" y2="-47.0"/>
<line x1="-130.8" y1="-51.6" x2="-180.0" y2="-60.5"/>
<line x1="-130.8" y1="-51.6" x2="-121.9" y2="-100.8"/>
<line x1="129.0" y1="-50.5" x2="178.8" y2="-45.9"/>
<line x1="129.0" y1="-50.5" x2="79.8" y2="-59.4"/>
<line x1="129.0" y1="-50.5" x2="137.9" y2="-99.7"/>
</g>
<circle cx="-130.8" cy="-51.6" r="21" fill="url(#gC)" stroke="#111" stroke-width="3"/>
<text x="-130.8" y="-50.6" text-anchor="middle" dominant-baseline="central" font-family="Arial, Helvetica, sans-serif" font-weight="bold" font-size="24" fill="#111">C</text>
<circle cx="-131.1" cy="23.4" r="21" fill="url(#gO)" stroke="#111" stroke-width="3"/>
<text x="-131.1" y="24.4" text-anchor="middle" dominant-baseline="central" font-family="Arial, Helvetica, sans-serif" font-weight="bold" font-size="24" fill="#111">O</text>
<circle cx="-66.3" cy="61.2" r="24" fill="url(#gP)" stroke="#111" stroke-width="3"/>
<text x="-66.3" y="62.3" text-anchor="middle" dominant-baseline="central" font-family="Arial, Helvetica, sans-serif" font-weight="bold" font-size="28" fill="#111">P</text>
<circle cx="-28.5" cy="-3.6" r="21" fill="url(#gO)" stroke="#111" stroke-width="3"/>
<text x="-28.5" y="-2.7" text-anchor="middle" dominant-baseline="central" font-family="Arial, Helvetica, sans-serif" font-weight="bold" font-size="24" fill="#111">O</text>
<circle cx="-104.1" cy="126.0" r="21" fill="url(#gO)" stroke="#111" stroke-width="3"/>
<text x="-104.1" y="126.9" text-anchor="middle" dominant-baseline="central" font-family="Arial, Helvetica, sans-serif" font-weight="bold" font-size="24" fill="#111">O</text>
<text x="-84.1" y="110.2" text-anchor="middle" font-family="Arial, Helvetica, sans-serif" font-weight="bold" font-size="18" fill="#111">−</text>
<circle cx="-1.5" cy="98.9" r="21" fill="url(#gO)" stroke="#111" stroke-width="3"/>
<text x="-1.5" y="99.9" text-anchor="middle" dominant-baseline="central" font-family="Arial, Helvetica, sans-serif" font-weight="bold" font-size="24" fill="#111">O</text>
<circle cx="63.6" cy="61.7" r="24" fill="url(#gP)" stroke="#111" stroke-width="3"/>
<text x="63.6" y="62.8" text-anchor="middle" dominant-baseline="central" font-family="Arial, Helvetica, sans-serif" font-weight="bold" font-size="28" fill="#111">P</text>
<circle cx="100.8" cy="126.8" r="21" fill="url(#gO)" stroke="#111" stroke-width="3"/>
<text x="100.8" y="127.8" text-anchor="middle" dominant-baseline="central" font-family="Arial, Helvetica, sans-serif" font-weight="bold" font-size="24" fill="#111">O</text>
<circle cx="26.4" cy="-3.4" r="21" fill="url(#gO)" stroke="#111" stroke-width="3"/>
<text x="26.4" y="-2.4" text-anchor="middle" dominant-baseline="central" font-family="Arial, Helvetica, sans-serif" font-weight="bold" font-size="24" fill="#111">O</text>
<text x="46.3" y="-19.1" text-anchor="middle" font-family="Arial, Helvetica, sans-serif" font-weight="bold" font-size="18" fill="#111">−</text>
<circle cx="128.7" cy="24.5" r="21" fill="url(#gO)" stroke="#111" stroke-width="3"/>
<text x="128.7" y="25.5" text-anchor="middle" dominant-baseline="central" font-family="Arial, Helvetica, sans-serif" font-weight="bold" font-size="24" fill="#111">O</text>
<circle cx="129.0" cy="-50.5" r="21" fill="url(#gC)" stroke="#111" stroke-width="3"/>
<text x="129.0" y="-49.5" text-anchor="middle" dominant-baseline="central" font-family="Arial, Helvetica, sans-serif" font-weight="bold" font-size="24" fill="#111">C</text>
<circle cx="-81.0" cy="-47.0" r="15" fill="url(#gH)" stroke="#111" stroke-width="3"/>
<text x="-81.0" y="-46.3" text-anchor="middle" dominant-baseline="central" font-family="Arial, Helvetica, sans-serif" font-weight="bold" font-size="17" fill="#111">H</text>
<circle cx="-180.0" cy="-60.5" r="15" fill="url(#gH)" stroke="#111" stroke-width="3"/>
<text x="-180.0" y="-59.8" text-anchor="middle" dominant-baseline="central" font-family="Arial, Helvetica, sans-serif" font-weight="bold" font-size="17" fill="#111">H</text>
<circle cx="-121.9" cy="-100.8" r="15" fill="url(#gH)" stroke="#111" stroke-width="3"/>
<text x="-121.9" y="-100.1" text-anchor="middle" dominant-baseline="central" font-family="Arial, Helvetica, sans-serif" font-weight="bold" font-size="17" fill="#111">H</text>
<circle cx="178.8" cy="-45.9" r="15" fill="url(#gH)" stroke="#111" stroke-width="3"/>
<text x="178.8" y="-45.3" text-anchor="middle" dominant-baseline="central" font-family="Arial, Helvetica, sans-serif" font-weight="bold" font-size="17" fill="#111">H</text>
<circle cx="79.8" cy="-59.4" r="15" fill="url(#gH)" stroke="#111" stroke-width="3"/>
<text x="79.8" y="-58.7" text-anchor="middle" dominant-baseline="central" font-family="Arial, Helvetica, sans-serif" font-weight="bold" font-size="17" fill="#111">H</text>
<circle cx="137.9" cy="-99.7" r="15" fill="url(#gH)" stroke="#111" stroke-width="3"/>
<text x="137.9" y="-99.0" text-anchor="middle" dominant-baseline="central" font-family="Arial, Helvetica, sans-serif" font-weight="bold" font-size="17" fill="#111">H</text>
</svg>