<svg xmlns="http://www.w3.org/2000/svg" viewBox="-171 -180 373 377" width="373" height="377">
<defs>
<radialGradient id="gC" cx="40%" cy="35%" r="70%"><stop offset="0" stop-color="#c9c9c9"/><stop offset="1" stop-color="#9d9d9d"/></radialGradient>
<radialGradient id="gH" cx="40%" cy="35%" r="70%"><stop offset="0" stop-color="#dfdfdf"/><stop offset="1" stop-color="#c6c6c6"/></radialGradient>
<radialGradient id="gN" cx="40%" cy="35%" r="70%"><stop offset="0" stop-color="#a4b5ea"/><stop offset="1" stop-color="#5a79d9"/></radialGradient>
<radialGradient id="gO" cx="40%" cy="35%" r="70%"><stop offset="0" stop-color="#f0918b"/><stop offset="1" stop-color="#e5382d"/></radialGradient>
<radialGradient id="gP" cx="40%" cy="35%" r="70%"><stop offset="0" stop-color="#f6c38a"/><stop offset="1" stop-color="#f0932b"/></radialGradient>
<radialGradient id="gS" cx="40%" cy="35%" r="70%"><stop offset="0" stop-color="#efe499"/><stop offset="1" stop-color="#e3cf46"/></radialGradient>
<radialGradient id="gMg" cx="40%" cy="35%" r="70%"><stop offset="0" stop-color="#b8e4b8"/><stop offset="1" stop-color="#7fcf7f"/></radialGradient>
<radialGradient id="gFe" cx="40%" cy="35%" r="70%"><stop offset="0" stop-color="#edb39b"/><stop offset="1" stop-color="#e0764a"/></radialGradient>
<radialGradient id="gMn" cx="40%" cy="35%" r="70%"><stop offset="0" stop-color="#cdbee1"/><stop offset="1" stop-color="#a58ac9"/></radialGradient>
<radialGradient id="gCa" cx="40%" cy="35%" r="70%"><stop offset="0" stop-color="#a7e4a7"/><stop offset="1" stop-color="#5fcf5f"/></radialGradient>
<radialGradient id="gCu" cx="40%" cy="35%" r="70%"><stop offset="0" stop-color="#e1be9b"/><stop offset="1" stop-color="#c98a4a"/></radialGradient>
<radialGradient id="gX" cx="40%" cy="35%" r="70%"><stop offset="0" stop-color="#e0e0e0"/><stop offset="1" stop-color="#b0b0b0"/></radialGradient>
<linearGradient id="l0" gradientUnits="userSpaceOnUse" x1="-15.8" y1="-18.1" x2="78.5" y2="85.2"><stop offset="0.39" stop-color="#e99f80"/><stop offset="0.61" stop-color="#e99f80"/></linearGradient>
<linearGradient id="l1" gradientUnits="userSpaceOnUse" x1="-15.8" y1="-18.1" x2="-101.9" y2="31.1"><stop offset="0.45" stop-color="#e99f80"/><stop offset="0.55" stop-color="#e99f80"/></linearGradient>
<linearGradient id="l2" gradientUnits="userSpaceOnUse" x1="-15.8" y1="-18.1" x2="38.7" y2="-98.4"><stop offset="0.45" stop-color="#e99f80"/><stop offset="0.55" stop-color="#e99f80"/></linearGradient>
<linearGradient id="l3" gradientUnits="userSpaceOnUse" x1="-15.8" y1="-18.1" x2="21.3" y2="24.3"><stop offset="0.45" stop-color="#e99f80"/><stop offset="0.55" stop-color="#ebdd7d"/></linearGradient>
<linearGradient id="l4" gradientUnits="userSpaceOnUse" x1="-15.8" y1="-18.1" x2="-104.1" y2="-113.0"><stop offset="0.42" stop-color="#e99f80"/><stop offset="0.58" stop-color="#ebdd7d"/></linearGradient>
<linearGradient id="l5" gradientUnits="userSpaceOnUse" x1="78.5" y1="85.2" x2="21.3" y2="24.3"><stop offset="0.45" stop-color="#e99f80"/><stop offset="0.55" stop-color="#ebdd7d"/></linearGradient>
<linearGradient id="l6" gradientUnits="userSpaceOnUse" x1="78.5" y1="85.2" x2="134.7" y2="-41.3"><stop offset="0.39" stop-color="#e99f80"/><stop offset="0.61" stop-color="#ebdd7d"/></linearGradient>
<linearGradient id="l7" gradientUnits="userSpaceOnUse" x1="78.5" y1="85.2" x2="-51.5" y2="130.3"><stop offset="0.39" stop-color="#e99f80"/><stop offset="0.61" stop-color="#ebdd7d"/></linearGradient>
<linearGradient id="l8" gradientUnits="userSpaceOnUse" x1="-101.9" y1="31.1" x2="21.3" y2="24.3"><stop offset="0.44" stop-color="#e99f80"/><stop offset="0.56" stop-color="#ebdd7d"/></linearGradient>
<linearGradient id="l9" gradientUnits="userSpaceOnUse" x1="-101.9" y1="31.1" x2="-104.1" y2="-113.0"><stop offset="0.37" stop-color="#e99f80"/><stop offset="0.63" stop-color="#ebdd7d"/></linearGradient>
<linearGradient id="l10" gradientUnits="userSpaceOnUse" x1="-101.9" y1="31.1" x2="-51.5" y2="130.3"><stop offset="0.45" stop-color="#e99f80"/><stop offset="0.55" stop-color="#ebdd7d"/></linearGradient>
<linearGradient id="l11" gradientUnits="userSpaceOnUse" x1="38.7" y1="-98.4" x2="21.3" y2="24.3"><stop offset="0.44" stop-color="#e99f80"/><stop offset="0.56" stop-color="#ebdd7d"/></linearGradient>
<linearGradient id="l12" gradientUnits="userSpaceOnUse" x1="38.7" y1="-98.4" x2="-104.1" y2="-113.0"><stop offset="0.38" stop-color="#e99f80"/><stop offset="0.62" stop-color="#ebdd7d"/></linearGradient>
<linearGradient id="l13" gradientUnits="userSpaceOnUse" x1="38.7" y1="-98.4" x2="134.7" y2="-41.3"><stop offset="0.45" stop-color="#e99f80"/><stop offset="0.55" stop-color="#ebdd7d"/></linearGradient>
<linearGradient id="l14" gradientUnits="userSpaceOnUse" x1="21.3" y1="24.3" x2="134.7" y2="-41.3"><stop offset="0.41" stop-color="#ebdd7d"/><stop offset="0.59" stop-color="#ebdd7d"/></linearGradient>
<linearGradient id="l15" gradientUnits="userSpaceOnUse" x1="21.3" y1="24.3" x2="-51.5" y2="130.3"><stop offset="0.42" stop-color="#ebdd7d"/><stop offset="0.58" stop-color="#ebdd7d"/></linearGradient>
<linearGradient id="l16" gradientUnits="userSpaceOnUse" x1="-15.8" y1="-18.1" x2="-104.1" y2="-113.0"><stop offset="0.42" stop-color="#e99f80"/><stop offset="0.58" stop-color="#ebdd7d"/></linearGradient>
<linearGradient id="l17" gradientUnits="userSpaceOnUse" x1="-15.8" y1="-18.1" x2="134.7" y2="-41.3"><stop offset="0.35" stop-color="#e99f80"/><stop offset="0.65" stop-color="#ebdd7d"/></linearGradient>
<linearGradient id="l18" gradientUnits="userSpaceOnUse" x1="-15.8" y1="-18.1" x2="-51.5" y2="130.3"><stop offset="0.35" stop-color="#e99f80"/><stop offset="0.65" stop-color="#ebdd7d"/></linearGradient>
<linearGradient id="l19" gradientUnits="userSpaceOnUse" x1="78.5" y1="85.2" x2="21.3" y2="24.3"><stop offset="0.45" stop-color="#e99f80"/><stop offset="0.55" stop-color="#ebdd7d"/></linearGradient>
<linearGradient id="l20" gradientUnits="userSpaceOnUse" x1="78.5" y1="85.2" x2="134.7" y2="-41.3"><stop offset="0.39" stop-color="#e99f80"/><stop offset="0.61" stop-color="#ebdd7d"/></linearGradient>
<linearGradient id="l21" gradientUnits="userSpaceOnUse" x1="78.5" y1="85.2" x2="-51.5" y2="130.3"><stop offset="0.39" stop-color="#e99f80"/><stop offset="0.61" stop-color="#ebdd7d"/></linearGradient>
<linearGradient id="l22" gradientUnits="userSpaceOnUse" x1="-101.9" y1="31.1" x2="21.3" y2="24.3"><stop offset="0.44" stop-color="#e99f80"/><stop offset="0.56" stop-color="#ebdd7d"/></linearGradient>
<linearGradient id="l23" gradientUnits="userSpaceOnUse" x1="-101.9" y1="31.1" x2="-104.1" y2="-113.0"><stop offset="0.37" stop-color="#e99f80"/><stop offset="0.63" stop-color="#ebdd7d"/></linearGradient>
<linearGradient id="l24" gradientUnits="userSpaceOnUse" x1="-101.9" y1="31.1" x2="-51.5" y2="130.3"><stop offset="0.45" stop-color="#e99f80"/><stop offset="0.55" stop-color="#ebdd7d"/></linearGradient>
<linearGradient id="l25" gradientUnits="userSpaceOnUse" x1="38.7" y1="-98.4" x2="21.3" y2="24.3"><stop offset="0.44" stop-color="#e99f80"/><stop offset="0.56" stop-color="#ebdd7d"/></linearGradient>
<linearGradient id="l26" gradientUnits="userSpaceOnUse" x1="38.7" y1="-98.4" x2="-104.1" y2="-113.0"><stop offset="0.38" stop-color="#e99f80"/><stop offset="0.62" stop-color="#ebdd7d"/></linearGradient>
<linearGradient id="l27" gradientUnits="userSpaceOnUse" x1="38.7" y1="-98.4" x2="134.7" y2="-41.3"><stop offset="0.45" stop-color="#e99f80"/><stop offset="0.55" stop-color="#ebdd7d"/></linearGradient>
</defs>
<g fill="#111" stroke="#111" stroke-linecap="round" stroke-linejoin="round">
<line x1="-15.8" y1="-18.1" x2="-104.1" y2="-113.0" stroke-width="70.0"/>
<line x1="-15.8" y1="-18.1" x2="134.7" y2="-41.3" stroke-width="70.0"/>
<line x1="-15.8" y1="-18.1" x2="-51.5" y2="130.3" stroke-width="70.0"/>
<line x1="78.5" y1="85.2" x2="21.3" y2="24.3" stroke-width="70.0"/>
<line x1="78.5" y1="85.2" x2="134.7" y2="-41.3" stroke-width="70.0"/>
<line x1="78.5" y1="85.2" x2="-51.5" y2="130.3" stroke-width="70.0"/>
<line x1="-101.9" y1="31.1" x2="21.3" y2="24.3" stroke-width="70.0"/>
<line x1="-101.9" y1="31.1" x2="-104.1" y2="-113.0" stroke-width="70.0"/>
<line x1="-101.9" y1="31.1" x2="-51.5" y2="130.3" stroke-width="70.0"/>
<line x1="38.7" y1="-98.4" x2="21.3" y2="24.3" stroke-width="70.0"/>
<line x1="38.7" y1="-98.4" x2="-104.1" y2="-113.0" stroke-width="70.0"/>
<line x1="38.7" y1="-98.4" x2="134.7" y2="-41.3" stroke-width="70.0"/>
<line x1="-15.8" y1="-18.1" x2="78.5" y2="85.2" stroke-width="70.0"/>
<line x1="-15.8" y1="-18.1" x2="-101.9" y2="31.1" stroke-width="70.0"/>
<line x1="-15.8" y1="-18.1" x2="38.7" y2="-98.4" stroke-width="70.0"/>
<line x1="-15.8" y1="-18.1" x2="21.3" y2="24.3" stroke-width="70.0"/>
<line x1="-15.8" y1="-18.1" x2="-104.1" y2="-113.0" stroke-width="70.0"/>
<line x1="78.5" y1="85.2" x2="21.3" y2="24.3" stroke-width="70.0"/>
<line x1="78.5" y1="85.2" x2="134.7" y2="-41.3" stroke-width="70.0"/>
<line x1="78.5" y1="85.2" x2="-51.5" y2="130.3" stroke-width="70.0"/>
<line x1="-101.9" y1="31.1" x2="21.3" y2="24.3" stroke-width="70.0"/>
<line x1="-101.9" y1="31.1" x2="-104.1" y2="-113.0" stroke-width="70.0"/>
<line x1="-101.9" y1="31.1" x2="-51.5" y2="130.3" stroke-width="70.0"/>
<line x1="38.7" y1="-98.4" x2="21.3" y2="24.3" stroke-width="70.0"/>
<line x1="38.7" y1="-98.4" x2="-104.1" y2="-113.0" stroke-width="70.0"/>
<line x1="38.7" y1="-98.4" x2="134.7" y2="-41.3" stroke-width="70.0"/>
<line x1="21.3" y1="24.3" x2="134.7" y2="-41.3" stroke-width="70.0"/>
<line x1="21.3" y1="24.3" x2="-51.5" y2="130.3" stroke-width="70.0"/>
<circle cx="-15.8" cy="-18.1" r="59.0" stroke="none"/>
<circle cx="78.5" cy="85.2" r="59.0" stroke="none"/>
<circle cx="-101.9" cy="31.1" r="59.0" stroke="none"/>
<circle cx="38.7" cy="-98.4" r="59.0" stroke="none"/>
<circle cx="21.3" cy="24.3" r="59.0" stroke="none"/>
<circle cx="-104.1" cy="-113.0" r="59.0" stroke="none"/>
<circle cx="134.7" cy="-41.3" r="59.0" stroke="none"/>
<circle cx="-51.5" cy="130.3" r="59.0" stroke="none"/>
</g>
<g stroke-linejoin="round">
<line x1="-15.8" y1="-18.1" x2="78.5" y2="85.2" stroke="url(#l0)" stroke-width="60.0" stroke-linecap="round"/>
<line x1="-15.8" y1="-18.1" x2="-101.9" y2="31.1" stroke="url(#l1)" stroke-width="60.0" stroke-linecap="round"/>
<line x1="-15.8" y1="-18.1" x2="38.7" y2="-98.4" stroke="url(#l2)" stroke-width="60.0" stroke-linecap="round"/>
<line x1="-15.8" y1="-18.1" x2="21.3" y2="24.3" stroke="url(#l3)" stroke-width="60.0" stroke-linecap="round"/>
<line x1="-15.8" y1="-18.1" x2="-104.1" y2="-113.0" stroke="url(#l4)" stroke-width="60.0" stroke-linecap="round"/>
<line x1="78.5" y1="85.2" x2="21.3" y2="24.3" stroke="url(#l5)" stroke-width="60.0" stroke-linecap="round"/>
<line x1="78.5" y1="85.2" x2="134.7" y2="-41.3" stroke="url(#l6)" stroke-width="60.0" stroke-linecap="round"/>
<line x1="78.5" y1="85.2" x2="-51.5" y2="130.3" stroke="url(#l7)" stroke-width="60.0" stroke-linecap="round"/>
<line x1="-101.9" y1="31.1" x2="21.3" y2="24.3" stroke="url(#l8)" stroke-width="60.0" stroke-linecap="round"/>
<line x1="-101.9" y1="31.1" x2="-104.1" y2="-113.0" stroke="url(#l9)" stroke-width="60.0" stroke-linecap="round"/>
<line x1="-101.9" y1="31.1" x2="-51.5" y2="130.3" stroke="url(#l10)" stroke-width="60.0" stroke-linecap="round"/>
<line x1="38.7" y1="-98.4" x2="21.3" y2="24.3" stroke="url(#l11)" stroke-width="60.0" stroke-linecap="round"/>
<line x1="38.7" y1="-98.4" x2="-104.1" y2="-113.0" stroke="url(#l12)" stroke-width="60.0" stroke-linecap="round"/>
<line x1="38.7" y1="-98.4" x2="134.7" y2="-41.3" stroke="url(#l13)" stroke-width="60.0" stroke-linecap="round"/>
<line x1="21.3" y1="24.3" x2="134.7" y2="-41.3" stroke="url(#l14)" stroke-width="60.0" stroke-linecap="round"/>
<line x1="21.3" y1="24.3" x2="-51.5" y2="130.3" stroke="url(#l15)" stroke-width="60.0" stroke-linecap="round"/>
<line x1="-15.8" y1="-18.1" x2="-104.1" y2="-113.0" stroke="url(#l16)" stroke-width="60.0" stroke-linecap="round"/>
<line x1="-15.8" y1="-18.1" x2="134.7" y2="-41.3" stroke="url(#l17)" stroke-width="60.0" stroke-linecap="round"/>
<line x1="-15.8" y1="-18.1" x2="-51.5" y2="130.3" stroke="url(#l18)" stroke-width="60.0" stroke-linecap="round"/>
<line x1="78.5" y1="85.2" x2="21.3" y2="24.3" stroke="url(#l19)" stroke-width="60.0" stroke-linecap="round"/>
<line x1="78.5" y1="85.2" x2="134.7" y2="-41.3" stroke="url(#l20)" stroke-width="60.0" stroke-linecap="round"/>
<line x1="78.5" y1="85.2" x2="-51.5" y2="130.3" stroke="url(#l21)" stroke-width="60.0" stroke-linecap="round"/>
<line x1="-101.9" y1="31.1" x2="21.3" y2="24.3" stroke="url(#l22)" stroke-width="60.0" stroke-linecap="round"/>
<line x1="-101.9" y1="31.1" x2="-104.1" y2="-113.0" stroke="url(#l23)" stroke-width="60.0" stroke-linecap="round"/>
<line x1="-101.9" y1="31.1" x2="-51.5" y2="130.3" stroke="url(#l24)" stroke-width="60.0" stroke-linecap="round"/>
<line x1="38.7" y1="-98.4" x2="21.3" y2="24.3" stroke="url(#l25)" stroke-width="60.0" stroke-linecap="round"/>
<line x1="38.7" y1="-98.4" x2="-104.1" y2="-113.0" stroke="url(#l26)" stroke-width="60.0" stroke-linecap="round"/>
<line x1="38.7" y1="-98.4" x2="134.7" y2="-41.3" stroke="url(#l27)" stroke-width="60.0" stroke-linecap="round"/>
<circle cx="-15.8" cy="-18.1" r="54.0" fill="#e99f80" stroke="none"/>
<circle cx="78.5" cy="85.2" r="54.0" fill="#e99f80" stroke="none"/>
<circle cx="-101.9" cy="31.1" r="54.0" fill="#e99f80" stroke="none"/>
<circle cx="38.7" cy="-98.4" r="54.0" fill="#e99f80" stroke="none"/>
<circle cx="21.3" cy="24.3" r="54.0" fill="#ebdd7d" stroke="none"/>
<circle cx="-104.1" cy="-113.0" r="54.0" fill="#ebdd7d" stroke="none"/>
<circle cx="134.7" cy="-41.3" r="54.0" fill="#ebdd7d" stroke="none"/>
<circle cx="-51.5" cy="130.3" r="54.0" fill="#ebdd7d" stroke="none"/>
</g>
<g stroke="#111" stroke-width="6" stroke-linecap="round">
<line x1="-15.8" y1="-18.1" x2="-104.1" y2="-113.0"/>
<line x1="-15.8" y1="-18.1" x2="134.7" y2="-41.3"/>
<line x1="-15.8" y1="-18.1" x2="-51.5" y2="130.3"/>
<line x1="78.5" y1="85.2" x2="21.3" y2="24.3"/>
<line x1="78.5" y1="85.2" x2="134.7" y2="-41.3"/>
<line x1="78.5" y1="85.2" x2="-51.5" y2="130.3"/>
<line x1="-101.9" y1="31.1" x2="21.3" y2="24.3"/>
<line x1="-101.9" y1="31.1" x2="-104.1" y2="-113.0"/>
<line x1="-101.9" y1="31.1" x2="-51.5" y2="130.3"/>
<line x1="38.7" y1="-98.4" x2="21.3" y2="24.3"/>
<line x1="38.7" y1="-98.4" x2="-104.1" y2="-113.0"/>
<line x1="38.7" y1="-98.4" x2="134.7" y2="-41.3"/>
</g>
<circle cx="-15.8" cy="-18.1" r="24" fill="url(#gFe)" stroke="#111" stroke-width="3"/>
<text x="-15.8" y="-17.3" text-anchor="middle" dominant-baseline="central" font-family="Arial, Helvetica, sans-serif" font-weight="bold" font-size="22" fill="#111">Fe</text>
<circle cx="78.5" cy="85.2" r="24" fill="url(#gFe)" stroke="#111" stroke-width="3"/>
<text x="78.5" y="86.0" text-anchor="middle" dominant-baseline="central" font-family="Arial, Helvetica, sans-serif" font-weight="bold" font-size="22" fill="#111">Fe</text>
<circle cx="-101.9" cy="31.1" r="24" fill="url(#gFe)" stroke="#111" stroke-width="3"/>
<text x="-101.9" y="31.9" text-anchor="middle" dominant-baseline="central" font-family="Arial, Helvetica, sans-serif" font-weight="bold" font-size="22" fill="#111">Fe</text>
<circle cx="38.7" cy="-98.4" r="24" fill="url(#gFe)" stroke="#111" stroke-width="3"/>
<text x="38.7" y="-97.6" text-anchor="middle" dominant-baseline="central" font-family="Arial, Helvetica, sans-serif" font-weight="bold" font-size="22" fill="#111">Fe</text>
<circle cx="21.3" cy="24.3" r="24" fill="url(#gS)" stroke="#111" stroke-width="3"/>
<text x="21.3" y="25.4" text-anchor="middle" dominant-baseline="central" font-family="Arial, Helvetica, sans-serif" font-weight="bold" font-size="28" fill="#111">S</text>
<circle cx="-104.1" cy="-113.0" r="24" fill="url(#gS)" stroke="#111" stroke-width="3"/>
<text x="-104.1" y="-111.9" text-anchor="middle" dominant-baseline="central" font-family="Arial, Helvetica, sans-serif" font-weight="bold" font-size="28" fill="#111">S</text>
<circle cx="134.7" cy="-41.3" r="24" fill="url(#gS)" stroke="#111" stroke-width="3"/>
<text x="134.7" y="-40.2" text-anchor="middle" dominant-baseline="central" font-family="Arial, Helvetica, sans-serif" font-weight="bold" font-size="28" fill="#111">S</text>
<circle cx="-51.5" cy="130.3" r="24" fill="url(#gS)" stroke="#111" stroke-width="3"/>
<text x="-51.5" y="131.4" text-anchor="middle" dominant-baseline="central" font-family="Arial, Helvetica, sans-serif" font-weight="bold" font-size="28" fill="#111">S</text>
</svg>