<svg xmlns="http://www.w3.org/2000/svg" viewBox="-228 -159 412 323" width="412" height="323">
<defs>
<radialGradient id="gC" cx="40%" cy="35%" r="70%"><stop offset="0" stop-color="#c9c9c9"/><stop offset="1" stop-color="#9d9d9d"/></radialGradient>
<radialGradient id="gH" cx="40%" cy="35%" r="70%"><stop offset="0" stop-color="#dfdfdf"/><stop offset="1" stop-color="#c6c6c6"/></radialGradient>
<radialGradient id="gN" cx="40%" cy="35%" r="70%"><stop offset="0" stop-color="#a4b5ea"/><stop offset="1" stop-color="#5a79d9"/></radialGradient>
<radialGradient id="gO" cx="40%" cy="35%" r="70%"><stop offset="0" stop-color="#f0918b"/><stop offset="1" stop-color="#e5382d"/></radialGradient>
<radialGradient id="gP" cx="40%" cy="35%" r="70%"><stop offset="0" stop-color="#f6c38a"/><stop offset="1" stop-color="#f0932b"/></radialGradient>
<radialGradient id="gS" cx="40%" cy="35%" r="70%"><stop offset="0" stop-color="#efe499"/><stop offset="1" stop-color="#e3cf46"/></radialGradient>
<radialGradient id="gMg" cx="40%" cy="35%" r="70%"><stop offset="0" stop-color="#b8e4b8"/><stop offset="1" stop-color="#7fcf7f"/></radialGradient>
<radialGradient id="gX" cx="40%" cy="35%" r="70%"><stop offset="0" stop-color="#e0e0e0"/><stop offset="1" stop-color="#b0b0b0"/></radialGradient>
<linearGradient id="l0" gradientUnits="userSpaceOnUse" x1="72.1" y1="-30.9" x2="10.3" y2="11.6"><stop offset="0.45" stop-color="#bababa"/><stop offset="0.55" stop-color="#bababa"/></linearGradient>
<linearGradient id="l1" gradientUnits="userSpaceOnUse" x1="72.1" y1="-30.9" x2="16.3" y2="86.3"><stop offset="0.39" stop-color="#bababa"/><stop offset="0.61" stop-color="#ec736c"/></linearGradient>
<linearGradient id="l2" gradientUnits="userSpaceOnUse" x1="72.1" y1="-30.9" x2="-57.4" y2="-20.7"><stop offset="0.39" stop-color="#bababa"/><stop offset="0.61" stop-color="#bababa"/></linearGradient>
<linearGradient id="l3" gradientUnits="userSpaceOnUse" x1="72.1" y1="-30.9" x2="59.6" y2="-79.4"><stop offset="0.45" stop-color="#bababa"/><stop offset="0.55" stop-color="#d7d7d7"/></linearGradient>
<linearGradient id="l4" gradientUnits="userSpaceOnUse" x1="72.1" y1="-30.9" x2="119.3" y2="-47.7"><stop offset="0.45" stop-color="#bababa"/><stop offset="0.55" stop-color="#d7d7d7"/></linearGradient>
<linearGradient id="l5" gradientUnits="userSpaceOnUse" x1="72.1" y1="-30.9" x2="92.9" y2="14.5"><stop offset="0.45" stop-color="#bababa"/><stop offset="0.55" stop-color="#d7d7d7"/></linearGradient>
<linearGradient id="l6" gradientUnits="userSpaceOnUse" x1="72.1" y1="-30.9" x2="-30.8" y2="39.9"><stop offset="0.41" stop-color="#bababa"/><stop offset="0.64" stop-color="#d7d7d7"/></linearGradient>
<linearGradient id="l7" gradientUnits="userSpaceOnUse" x1="72.1" y1="-30.9" x2="64.5" y2="99.7"><stop offset="0.39" stop-color="#bababa"/><stop offset="0.66" stop-color="#d7d7d7"/></linearGradient>
<linearGradient id="l8" gradientUnits="userSpaceOnUse" x1="10.3" y1="11.6" x2="16.3" y2="86.3"><stop offset="0.45" stop-color="#bababa"/><stop offset="0.55" stop-color="#ec736c"/></linearGradient>
<linearGradient id="l9" gradientUnits="userSpaceOnUse" x1="10.3" y1="11.6" x2="-57.4" y2="-20.7"><stop offset="0.45" stop-color="#bababa"/><stop offset="0.55" stop-color="#bababa"/></linearGradient>
<linearGradient id="l10" gradientUnits="userSpaceOnUse" x1="10.3" y1="11.6" x2="-63.3" y2="-95.5"><stop offset="0.39" stop-color="#bababa"/><stop offset="0.61" stop-color="#ec736c"/></linearGradient>
<linearGradient id="l11" gradientUnits="userSpaceOnUse" x1="10.3" y1="11.6" x2="-119.2" y2="21.8"><stop offset="0.39" stop-color="#bababa"/><stop offset="0.61" stop-color="#ec736c"/></linearGradient>
<linearGradient id="l12" gradientUnits="userSpaceOnUse" x1="10.3" y1="11.6" x2="59.6" y2="-79.4"><stop offset="0.45" stop-color="#bababa"/><stop offset="0.56" stop-color="#d7d7d7"/></linearGradient>
<linearGradient id="l13" gradientUnits="userSpaceOnUse" x1="10.3" y1="11.6" x2="119.3" y2="-47.7"><stop offset="0.41" stop-color="#bababa"/><stop offset="0.64" stop-color="#d7d7d7"/></linearGradient>
<linearGradient id="l14" gradientUnits="userSpaceOnUse" x1="10.3" y1="11.6" x2="92.9" y2="14.5"><stop offset="0.45" stop-color="#bababa"/><stop offset="0.55" stop-color="#d7d7d7"/></linearGradient>
<linearGradient id="l15" gradientUnits="userSpaceOnUse" x1="10.3" y1="11.6" x2="-30.8" y2="39.9"><stop offset="0.45" stop-color="#bababa"/><stop offset="0.55" stop-color="#d7d7d7"/></linearGradient>
<linearGradient id="l16" gradientUnits="userSpaceOnUse" x1="10.3" y1="11.6" x2="64.5" y2="99.7"><stop offset="0.45" stop-color="#bababa"/><stop offset="0.56" stop-color="#d7d7d7"/></linearGradient>
<linearGradient id="l17" gradientUnits="userSpaceOnUse" x1="16.3" y1="86.3" x2="-57.4" y2="-20.7"><stop offset="0.39" stop-color="#ec736c"/><stop offset="0.61" stop-color="#bababa"/></linearGradient>
<linearGradient id="l18" gradientUnits="userSpaceOnUse" x1="16.3" y1="86.3" x2="92.9" y2="14.5"><stop offset="0.45" stop-color="#ec736c"/><stop offset="0.57" stop-color="#d7d7d7"/></linearGradient>
<linearGradient id="l19" gradientUnits="userSpaceOnUse" x1="16.3" y1="86.3" x2="-30.8" y2="39.9"><stop offset="0.45" stop-color="#ec736c"/><stop offset="0.55" stop-color="#d7d7d7"/></linearGradient>
<linearGradient id="l20" gradientUnits="userSpaceOnUse" x1="16.3" y1="86.3" x2="64.5" y2="99.7"><stop offset="0.45" stop-color="#ec736c"/><stop offset="0.55" stop-color="#d7d7d7"/></linearGradient>
<linearGradient id="l21" gradientUnits="userSpaceOnUse" x1="-57.4" y1="-20.7" x2="-63.3" y2="-95.5"><stop offset="0.45" stop-color="#bababa"/><stop offset="0.55" stop-color="#ec736c"/></linearGradient>
<linearGradient id="l22" gradientUnits="userSpaceOnUse" x1="-57.4" y1="-20.7" x2="-119.2" y2="21.8"><stop offset="0.45" stop-color="#bababa"/><stop offset="0.55" stop-color="#ec736c"/></linearGradient>
<linearGradient id="l23" gradientUnits="userSpaceOnUse" x1="-57.4" y1="-20.7" x2="59.6" y2="-79.4"><stop offset="0.39" stop-color="#bababa"/><stop offset="0.66" stop-color="#d7d7d7"/></linearGradient>
<linearGradient id="l24" gradientUnits="userSpaceOnUse" x1="-57.4" y1="-20.7" x2="-30.8" y2="39.9"><stop offset="0.45" stop-color="#bababa"/><stop offset="0.55" stop-color="#d7d7d7"/></linearGradient>
<linearGradient id="l25" gradientUnits="userSpaceOnUse" x1="-57.4" y1="-20.7" x2="-164.3" y2="0.3"><stop offset="0.45" stop-color="#bababa"/><stop offset="0.59" stop-color="#d7d7d7"/></linearGradient>
<linearGradient id="l26" gradientUnits="userSpaceOnUse" x1="-63.3" y1="-95.5" x2="-119.2" y2="21.8"><stop offset="0.39" stop-color="#ec736c"/><stop offset="0.61" stop-color="#ec736c"/></linearGradient>
<linearGradient id="l27" gradientUnits="userSpaceOnUse" x1="-63.3" y1="-95.5" x2="59.6" y2="-79.4"><stop offset="0.41" stop-color="#ec736c"/><stop offset="0.64" stop-color="#d7d7d7"/></linearGradient>
<linearGradient id="l28" gradientUnits="userSpaceOnUse" x1="-63.3" y1="-95.5" x2="-30.8" y2="39.9"><stop offset="0.37" stop-color="#ec736c"/><stop offset="0.68" stop-color="#d7d7d7"/></linearGradient>
<linearGradient id="l29" gradientUnits="userSpaceOnUse" x1="-63.3" y1="-95.5" x2="-164.3" y2="0.3"><stop offset="0.37" stop-color="#ec736c"/><stop offset="0.68" stop-color="#d7d7d7"/></linearGradient>
<linearGradient id="l30" gradientUnits="userSpaceOnUse" x1="-119.2" y1="21.8" x2="-30.8" y2="39.9"><stop offset="0.45" stop-color="#ec736c"/><stop offset="0.55" stop-color="#d7d7d7"/></linearGradient>
<linearGradient id="l31" gradientUnits="userSpaceOnUse" x1="-119.2" y1="21.8" x2="-164.3" y2="0.3"><stop offset="0.45" stop-color="#ec736c"/><stop offset="0.55" stop-color="#d7d7d7"/></linearGradient>
<linearGradient id="l32" gradientUnits="userSpaceOnUse" x1="59.6" y1="-79.4" x2="119.3" y2="-47.7"><stop offset="0.45" stop-color="#d7d7d7"/><stop offset="0.55" stop-color="#d7d7d7"/></linearGradient>
<linearGradient id="l33" gradientUnits="userSpaceOnUse" x1="59.6" y1="-79.4" x2="92.9" y2="14.5"><stop offset="0.45" stop-color="#d7d7d7"/><stop offset="0.55" stop-color="#d7d7d7"/></linearGradient>
<linearGradient id="l34" gradientUnits="userSpaceOnUse" x1="59.6" y1="-79.4" x2="-30.8" y2="39.9"><stop offset="0.30" stop-color="#d7d7d7"/><stop offset="0.70" stop-color="#d7d7d7"/></linearGradient>
<linearGradient id="l35" gradientUnits="userSpaceOnUse" x1="119.3" y1="-47.7" x2="92.9" y2="14.5"><stop offset="0.45" stop-color="#d7d7d7"/><stop offset="0.55" stop-color="#d7d7d7"/></linearGradient>
<linearGradient id="l36" gradientUnits="userSpaceOnUse" x1="92.9" y1="14.5" x2="-30.8" y2="39.9"><stop offset="0.36" stop-color="#d7d7d7"/><stop offset="0.64" stop-color="#d7d7d7"/></linearGradient>
<linearGradient id="l37" gradientUnits="userSpaceOnUse" x1="92.9" y1="14.5" x2="64.5" y2="99.7"><stop offset="0.45" stop-color="#d7d7d7"/><stop offset="0.55" stop-color="#d7d7d7"/></linearGradient>
<linearGradient id="l38" gradientUnits="userSpaceOnUse" x1="-30.8" y1="39.9" x2="64.5" y2="99.7"><stop offset="0.40" stop-color="#d7d7d7"/><stop offset="0.60" stop-color="#d7d7d7"/></linearGradient>
<linearGradient id="l39" gradientUnits="userSpaceOnUse" x1="-30.8" y1="39.9" x2="-164.3" y2="0.3"><stop offset="0.32" stop-color="#d7d7d7"/><stop offset="0.68" stop-color="#d7d7d7"/></linearGradient>
<linearGradient id="l40" gradientUnits="userSpaceOnUse" x1="72.1" y1="-30.9" x2="10.3" y2="11.6"><stop offset="0.45" stop-color="#bababa"/><stop offset="0.55" stop-color="#bababa"/></linearGradient>
<linearGradient id="l41" gradientUnits="userSpaceOnUse" x1="10.3" y1="11.6" x2="16.3" y2="86.3"><stop offset="0.45" stop-color="#bababa"/><stop offset="0.55" stop-color="#ec736c"/></linearGradient>
<linearGradient id="l42" gradientUnits="userSpaceOnUse" x1="10.3" y1="11.6" x2="-57.4" y2="-20.7"><stop offset="0.45" stop-color="#bababa"/><stop offset="0.55" stop-color="#bababa"/></linearGradient>
<linearGradient id="l43" gradientUnits="userSpaceOnUse" x1="-57.4" y1="-20.7" x2="-63.3" y2="-95.5"><stop offset="0.45" stop-color="#bababa"/><stop offset="0.55" stop-color="#ec736c"/></linearGradient>
<linearGradient id="l44" gradientUnits="userSpaceOnUse" x1="-57.4" y1="-20.7" x2="-119.2" y2="21.8"><stop offset="0.45" stop-color="#bababa"/><stop offset="0.55" stop-color="#ec736c"/></linearGradient>
<linearGradient id="l45" gradientUnits="userSpaceOnUse" x1="72.1" y1="-30.9" x2="59.6" y2="-79.4"><stop offset="0.45" stop-color="#bababa"/><stop offset="0.55" stop-color="#d7d7d7"/></linearGradient>
<linearGradient id="l46" gradientUnits="userSpaceOnUse" x1="72.1" y1="-30.9" x2="119.3" y2="-47.7"><stop offset="0.45" stop-color="#bababa"/><stop offset="0.55" stop-color="#d7d7d7"/></linearGradient>
<linearGradient id="l47" gradientUnits="userSpaceOnUse" x1="72.1" y1="-30.9" x2="92.9" y2="14.5"><stop offset="0.45" stop-color="#bababa"/><stop offset="0.55" stop-color="#d7d7d7"/></linearGradient>
<linearGradient id="l48" gradientUnits="userSpaceOnUse" x1="10.3" y1="11.6" x2="-30.8" y2="39.9"><stop offset="0.45" stop-color="#bababa"/><stop offset="0.55" stop-color="#d7d7d7"/></linearGradient>
<linearGradient id="l49" gradientUnits="userSpaceOnUse" x1="16.3" y1="86.3" x2="64.5" y2="99.7"><stop offset="0.45" stop-color="#ec736c"/><stop offset="0.55" stop-color="#d7d7d7"/></linearGradient>
<linearGradient id="l50" gradientUnits="userSpaceOnUse" x1="-119.2" y1="21.8" x2="-164.3" y2="0.3"><stop offset="0.45" stop-color="#ec736c"/><stop offset="0.55" stop-color="#d7d7d7"/></linearGradient>
</defs>
<g fill="#111" stroke="#111" stroke-linecap="round" stroke-linejoin="round">
<line x1="72.1" y1="-30.9" x2="10.3" y2="11.6" stroke-width="70.0"/>
<line x1="10.3" y1="11.6" x2="16.3" y2="86.3" stroke-width="70.0"/>
<line x1="10.3" y1="11.6" x2="-57.4" y2="-20.7" stroke-width="70.0"/>
<line x1="-57.4" y1="-20.7" x2="-63.3" y2="-95.5" stroke-width="70.0"/>
<line x1="-57.4" y1="-20.7" x2="-119.2" y2="21.8" stroke-width="70.0"/>
<line x1="72.1" y1="-30.9" x2="59.6" y2="-79.4" stroke-width="70.0"/>
<line x1="72.1" y1="-30.9" x2="119.3" y2="-47.7" stroke-width="70.0"/>
<line x1="72.1" y1="-30.9" x2="92.9" y2="14.5" stroke-width="70.0"/>
<line x1="10.3" y1="11.6" x2="-30.8" y2="39.9" stroke-width="70.0"/>
<line x1="16.3" y1="86.3" x2="64.5" y2="99.7" stroke-width="70.0"/>
<line x1="-119.2" y1="21.8" x2="-164.3" y2="0.3" stroke-width="70.0"/>
<line x1="72.1" y1="-30.9" x2="10.3" y2="11.6" stroke-width="70.0"/>
<line x1="72.1" y1="-30.9" x2="16.3" y2="86.3" stroke-width="70.0"/>
<line x1="72.1" y1="-30.9" x2="-57.4" y2="-20.7" stroke-width="70.0"/>
<line x1="72.1" y1="-30.9" x2="59.6" y2="-79.4" stroke-width="70.0"/>
<line x1="72.1" y1="-30.9" x2="119.3" y2="-47.7" stroke-width="70.0"/>
<line x1="72.1" y1="-30.9" x2="92.9" y2="14.5" stroke-width="70.0"/>
<line x1="72.1" y1="-30.9" x2="-30.8" y2="39.9" stroke-width="70.0"/>
<line x1="72.1" y1="-30.9" x2="64.5" y2="99.7" stroke-width="70.0"/>
<line x1="10.3" y1="11.6" x2="16.3" y2="86.3" stroke-width="70.0"/>
<line x1="10.3" y1="11.6" x2="-57.4" y2="-20.7" stroke-width="70.0"/>
<line x1="10.3" y1="11.6" x2="-63.3" y2="-95.5" stroke-width="70.0"/>
<line x1="10.3" y1="11.6" x2="-119.2" y2="21.8" stroke-width="70.0"/>
<line x1="10.3" y1="11.6" x2="59.6" y2="-79.4" stroke-width="70.0"/>
<line x1="10.3" y1="11.6" x2="119.3" y2="-47.7" stroke-width="70.0"/>
<line x1="10.3" y1="11.6" x2="92.9" y2="14.5" stroke-width="70.0"/>
<line x1="10.3" y1="11.6" x2="-30.8" y2="39.9" stroke-width="70.0"/>
<line x1="10.3" y1="11.6" x2="64.5" y2="99.7" stroke-width="70.0"/>
<line x1="16.3" y1="86.3" x2="-57.4" y2="-20.7" stroke-width="70.0"/>
<line x1="16.3" y1="86.3" x2="92.9" y2="14.5" stroke-width="70.0"/>
<line x1="16.3" y1="86.3" x2="-30.8" y2="39.9" stroke-width="70.0"/>
<line x1="16.3" y1="86.3" x2="64.5" y2="99.7" stroke-width="70.0"/>
<line x1="-57.4" y1="-20.7" x2="-63.3" y2="-95.5" stroke-width="70.0"/>
<line x1="-57.4" y1="-20.7" x2="-119.2" y2="21.8" stroke-width="70.0"/>
<line x1="-57.4" y1="-20.7" x2="59.6" y2="-79.4" stroke-width="70.0"/>
<line x1="-57.4" y1="-20.7" x2="-30.8" y2="39.9" stroke-width="70.0"/>
<line x1="-57.4" y1="-20.7" x2="-164.3" y2="0.3" stroke-width="70.0"/>
<line x1="-63.3" y1="-95.5" x2="-119.2" y2="21.8" stroke-width="70.0"/>
<line x1="-63.3" y1="-95.5" x2="59.6" y2="-79.4" stroke-width="70.0"/>
<line x1="-63.3" y1="-95.5" x2="-30.8" y2="39.9" stroke-width="70.0"/>
<line x1="-63.3" y1="-95.5" x2="-164.3" y2="0.3" stroke-width="70.0"/>
<line x1="-119.2" y1="21.8" x2="-30.8" y2="39.9" stroke-width="70.0"/>
<line x1="-119.2" y1="21.8" x2="-164.3" y2="0.3" stroke-width="70.0"/>
<line x1="59.6" y1="-79.4" x2="119.3" y2="-47.7" stroke-width="70.0"/>
<line x1="59.6" y1="-79.4" x2="92.9" y2="14.5" stroke-width="70.0"/>
<line x1="59.6" y1="-79.4" x2="-30.8" y2="39.9" stroke-width="70.0"/>
<line x1="119.3" y1="-47.7" x2="92.9" y2="14.5" stroke-width="70.0"/>
<line x1="92.9" y1="14.5" x2="-30.8" y2="39.9" stroke-width="70.0"/>
<line x1="92.9" y1="14.5" x2="64.5" y2="99.7" stroke-width="70.0"/>
<line x1="-30.8" y1="39.9" x2="64.5" y2="99.7" stroke-width="70.0"/>
<line x1="-30.8" y1="39.9" x2="-164.3" y2="0.3" stroke-width="70.0"/>
<circle cx="72.1" cy="-30.9" r="56.0" stroke="none"/>
<circle cx="10.3" cy="11.6" r="56.0" stroke="none"/>
<circle cx="16.3" cy="86.3" r="56.0" stroke="none"/>
<circle cx="-57.4" cy="-20.7" r="56.0" stroke="none"/>
<circle cx="-63.3" cy="-95.5" r="56.0" stroke="none"/>
<circle cx="-119.2" cy="21.8" r="56.0" stroke="none"/>
<circle cx="59.6" cy="-79.4" r="50.0" stroke="none"/>
<circle cx="119.3" cy="-47.7" r="50.0" stroke="none"/>
<circle cx="92.9" cy="14.5" r="50.0" stroke="none"/>
<circle cx="-30.8" cy="39.9" r="50.0" stroke="none"/>
<circle cx="64.5" cy="99.7" r="50.0" stroke="none"/>
<circle cx="-164.3" cy="0.3" r="50.0" stroke="none"/>
</g>
<g stroke-linejoin="round">
<line x1="72.1" y1="-30.9" x2="10.3" y2="11.6" stroke="url(#l0)" stroke-width="60.0" stroke-linecap="round"/>
<line x1="72.1" y1="-30.9" x2="16.3" y2="86.3" stroke="url(#l1)" stroke-width="60.0" stroke-linecap="round"/>
<line x1="72.1" y1="-30.9" x2="-57.4" y2="-20.7" stroke="url(#l2)" stroke-width="60.0" stroke-linecap="round"/>
<line x1="72.1" y1="-30.9" x2="59.6" y2="-79.4" stroke="url(#l3)" stroke-width="60.0" stroke-linecap="round"/>
<line x1="72.1" y1="-30.9" x2="119.3" y2="-47.7" stroke="url(#l4)" stroke-width="60.0" stroke-linecap="round"/>
<line x1="72.1" y1="-30.9" x2="92.9" y2="14.5" stroke="url(#l5)" stroke-width="60.0" stroke-linecap="round"/>
<line x1="72.1" y1="-30.9" x2="-30.8" y2="39.9" stroke="url(#l6)" stroke-width="60.0" stroke-linecap="round"/>
<line x1="72.1" y1="-30.9" x2="64.5" y2="99.7" stroke="url(#l7)" stroke-width="60.0" stroke-linecap="round"/>
<line x1="10.3" y1="11.6" x2="16.3" y2="86.3" stroke="url(#l8)" stroke-width="60.0" stroke-linecap="round"/>
<line x1="10.3" y1="11.6" x2="-57.4" y2="-20.7" stroke="url(#l9)" stroke-width="60.0" stroke-linecap="round"/>
<line x1="10.3" y1="11.6" x2="-63.3" y2="-95.5" stroke="url(#l10)" stroke-width="60.0" stroke-linecap="round"/>
<line x1="10.3" y1="11.6" x2="-119.2" y2="21.8" stroke="url(#l11)" stroke-width="60.0" stroke-linecap="round"/>
<line x1="10.3" y1="11.6" x2="59.6" y2="-79.4" stroke="url(#l12)" stroke-width="60.0" stroke-linecap="round"/>
<line x1="10.3" y1="11.6" x2="119.3" y2="-47.7" stroke="url(#l13)" stroke-width="60.0" stroke-linecap="round"/>
<line x1="10.3" y1="11.6" x2="92.9" y2="14.5" stroke="url(#l14)" stroke-width="60.0" stroke-linecap="round"/>
<line x1="10.3" y1="11.6" x2="-30.8" y2="39.9" stroke="url(#l15)" stroke-width="60.0" stroke-linecap="round"/>
<line x1="10.3" y1="11.6" x2="64.5" y2="99.7" stroke="url(#l16)" stroke-width="60.0" stroke-linecap="round"/>
<line x1="16.3" y1="86.3" x2="-57.4" y2="-20.7" stroke="url(#l17)" stroke-width="60.0" stroke-linecap="round"/>
<line x1="16.3" y1="86.3" x2="92.9" y2="14.5" stroke="url(#l18)" stroke-width="60.0" stroke-linecap="round"/>
<line x1="16.3" y1="86.3" x2="-30.8" y2="39.9" stroke="url(#l19)" stroke-width="60.0" stroke-linecap="round"/>
<line x1="16.3" y1="86.3" x2="64.5" y2="99.7" stroke="url(#l20)" stroke-width="60.0" stroke-linecap="round"/>
<line x1="-57.4" y1="-20.7" x2="-63.3" y2="-95.5" stroke="url(#l21)" stroke-width="60.0" stroke-linecap="round"/>
<line x1="-57.4" y1="-20.7" x2="-119.2" y2="21.8" stroke="url(#l22)" stroke-width="60.0" stroke-linecap="round"/>
<line x1="-57.4" y1="-20.7" x2="59.6" y2="-79.4" stroke="url(#l23)" stroke-width="60.0" stroke-linecap="round"/>
<line x1="-57.4" y1="-20.7" x2="-30.8" y2="39.9" stroke="url(#l24)" stroke-width="60.0" stroke-linecap="round"/>
<line x1="-57.4" y1="-20.7" x2="-164.3" y2="0.3" stroke="url(#l25)" stroke-width="60.0" stroke-linecap="round"/>
<line x1="-63.3" y1="-95.5" x2="-119.2" y2="21.8" stroke="url(#l26)" stroke-width="60.0" stroke-linecap="round"/>
<line x1="-63.3" y1="-95.5" x2="59.6" y2="-79.4" stroke="url(#l27)" stroke-width="60.0" stroke-linecap="round"/>
<line x1="-63.3" y1="-95.5" x2="-30.8" y2="39.9" stroke="url(#l28)" stroke-width="60.0" stroke-linecap="round"/>
<line x1="-63.3" y1="-95.5" x2="-164.3" y2="0.3" stroke="url(#l29)" stroke-width="60.0" stroke-linecap="round"/>
<line x1="-119.2" y1="21.8" x2="-30.8" y2="39.9" stroke="url(#l30)" stroke-width="60.0" stroke-linecap="round"/>
<line x1="-119.2" y1="21.8" x2="-164.3" y2="0.3" stroke="url(#l31)" stroke-width="60.0" stroke-linecap="round"/>
<line x1="59.6" y1="-79.4" x2="119.3" y2="-47.7" stroke="url(#l32)" stroke-width="60.0" stroke-linecap="round"/>
<line x1="59.6" y1="-79.4" x2="92.9" y2="14.5" stroke="url(#l33)" stroke-width="60.0" stroke-linecap="round"/>
<line x1="59.6" y1="-79.4" x2="-30.8" y2="39.9" stroke="url(#l34)" stroke-width="60.0" stroke-linecap="round"/>
<line x1="119.3" y1="-47.7" x2="92.9" y2="14.5" stroke="url(#l35)" stroke-width="60.0" stroke-linecap="round"/>
<line x1="92.9" y1="14.5" x2="-30.8" y2="39.9" stroke="url(#l36)" stroke-width="60.0" stroke-linecap="round"/>
<line x1="92.9" y1="14.5" x2="64.5" y2="99.7" stroke="url(#l37)" stroke-width="60.0" stroke-linecap="round"/>
<line x1="-30.8" y1="39.9" x2="64.5" y2="99.7" stroke="url(#l38)" stroke-width="60.0" stroke-linecap="round"/>
<line x1="-30.8" y1="39.9" x2="-164.3" y2="0.3" stroke="url(#l39)" stroke-width="60.0" stroke-linecap="round"/>
<line x1="72.1" y1="-30.9" x2="10.3" y2="11.6" stroke="url(#l40)" stroke-width="60.0" stroke-linecap="round"/>
<line x1="10.3" y1="11.6" x2="16.3" y2="86.3" stroke="url(#l41)" stroke-width="60.0" stroke-linecap="round"/>
<line x1="10.3" y1="11.6" x2="-57.4" y2="-20.7" stroke="url(#l42)" stroke-width="60.0" stroke-linecap="round"/>
<line x1="-57.4" y1="-20.7" x2="-63.3" y2="-95.5" stroke="url(#l43)" stroke-width="60.0" stroke-linecap="round"/>
<line x1="-57.4" y1="-20.7" x2="-119.2" y2="21.8" stroke="url(#l44)" stroke-width="60.0" stroke-linecap="round"/>
<line x1="72.1" y1="-30.9" x2="59.6" y2="-79.4" stroke="url(#l45)" stroke-width="60.0" stroke-linecap="round"/>
<line x1="72.1" y1="-30.9" x2="119.3" y2="-47.7" stroke="url(#l46)" stroke-width="60.0" stroke-linecap="round"/>
<line x1="72.1" y1="-30.9" x2="92.9" y2="14.5" stroke="url(#l47)" stroke-width="60.0" stroke-linecap="round"/>
<line x1="10.3" y1="11.6" x2="-30.8" y2="39.9" stroke="url(#l48)" stroke-width="60.0" stroke-linecap="round"/>
<line x1="16.3" y1="86.3" x2="64.5" y2="99.7" stroke="url(#l49)" stroke-width="60.0" stroke-linecap="round"/>
<line x1="-119.2" y1="21.8" x2="-164.3" y2="0.3" stroke="url(#l50)" stroke-width="60.0" stroke-linecap="round"/>
<circle cx="72.1" cy="-30.9" r="51.0" fill="#bababa" stroke="none"/>
<circle cx="10.3" cy="11.6" r="51.0" fill="#bababa" stroke="none"/>
<circle cx="16.3" cy="86.3" r="51.0" fill="#ec736c" stroke="none"/>
<circle cx="-57.4" cy="-20.7" r="51.0" fill="#bababa" stroke="none"/>
<circle cx="-63.3" cy="-95.5" r="51.0" fill="#ec736c" stroke="none"/>
<circle cx="-119.2" cy="21.8" r="51.0" fill="#ec736c" stroke="none"/>
<circle cx="59.6" cy="-79.4" r="45.0" fill="#d7d7d7" stroke="none"/>
<circle cx="119.3" cy="-47.7" r="45.0" fill="#d7d7d7" stroke="none"/>
<circle cx="92.9" cy="14.5" r="45.0" fill="#d7d7d7" stroke="none"/>
<circle cx="-30.8" cy="39.9" r="45.0" fill="#d7d7d7" stroke="none"/>
<circle cx="64.5" cy="99.7" r="45.0" fill="#d7d7d7" stroke="none"/>
<circle cx="-164.3" cy="0.3" r="45.0" fill="#d7d7d7" stroke="none"/>
</g>
<g stroke="#111" stroke-width="6" stroke-linecap="round">
<line x1="72.1" y1="-30.9" x2="10.3" y2="11.6"/>
<line x1="10.3" y1="11.6" x2="16.3" y2="86.3"/>
<line x1="10.3" y1="11.6" x2="-57.4" y2="-20.7"/>
<line x1="-64.3" y1="-20.1" x2="-70.3" y2="-94.9"/>
<line x1="-50.4" y1="-21.2" x2="-56.3" y2="-96.0"/>
<line x1="-57.4" y1="-20.7" x2="-119.2" y2="21.8"/>
<line x1="72.1" y1="-30.9" x2="59.6" y2="-79.4"/>
<line x1="72.1" y1="-30.9" x2="119.3" y2="-47.7"/>
<line x1="72.1" y1="-30.9" x2="92.9" y2="14.5"/>
<line x1="10.3" y1="11.6" x2="-30.8" y2="39.9"/>
<line x1="16.3" y1="86.3" x2="64.5" y2="99.7"/>
<line x1="-119.2" y1="21.8" x2="-164.3" y2="0.3"/>
</g>
<circle cx="72.1" cy="-30.9" r="21" fill="url(#gC)" stroke="#111" stroke-width="3"/>
<text x="72.1" y="-30.0" text-anchor="middle" dominant-baseline="central" font-family="Arial, Helvetica, sans-serif" font-weight="bold" font-size="24" fill="#111">C</text>
<circle cx="10.3" cy="11.6" r="21" fill="url(#gC)" stroke="#111" stroke-width="3"/>
<text x="10.3" y="12.5" text-anchor="middle" dominant-baseline="central" font-family="Arial, Helvetica, sans-serif" font-weight="bold" font-size="24" fill="#111">C</text>
<circle cx="16.3" cy="86.3" r="21" fill="url(#gO)" stroke="#111" stroke-width="3"/>
<text x="16.3" y="87.3" text-anchor="middle" dominant-baseline="central" font-family="Arial, Helvetica, sans-serif" font-weight="bold" font-size="24" fill="#111">O</text>
<circle cx="-57.4" cy="-20.7" r="21" fill="url(#gC)" stroke="#111" stroke-width="3"/>
<text x="-57.4" y="-19.7" text-anchor="middle" dominant-baseline="central" font-family="Arial, Helvetica, sans-serif" font-weight="bold" font-size="24" fill="#111">C</text>
<circle cx="-63.3" cy="-95.5" r="21" fill="url(#gO)" stroke="#111" stroke-width="3"/>
<text x="-63.3" y="-94.5" text-anchor="middle" dominant-baseline="central" font-family="Arial, Helvetica, sans-serif" font-weight="bold" font-size="24" fill="#111">O</text>
<circle cx="-119.2" cy="21.8" r="21" fill="url(#gO)" stroke="#111" stroke-width="3"/>
<text x="-119.2" y="22.8" text-anchor="middle" dominant-baseline="central" font-family="Arial, Helvetica, sans-serif" font-weight="bold" font-size="24" fill="#111">O</text>
<circle cx="59.6" cy="-79.4" r="15" fill="url(#gH)" stroke="#111" stroke-width="3"/>
<text x="59.6" y="-78.7" text-anchor="middle" dominant-baseline="central" font-family="Arial, Helvetica, sans-serif" font-weight="bold" font-size="17" fill="#111">H</text>
<circle cx="119.3" cy="-47.7" r="15" fill="url(#gH)" stroke="#111" stroke-width="3"/>
<text x="119.3" y="-47.0" text-anchor="middle" dominant-baseline="central" font-family="Arial, Helvetica, sans-serif" font-weight="bold" font-size="17" fill="#111">H</text>
<circle cx="92.9" cy="14.5" r="15" fill="url(#gH)" stroke="#111" stroke-width="3"/>
<text x="92.9" y="15.2" text-anchor="middle" dominant-baseline="central" font-family="Arial, Helvetica, sans-serif" font-weight="bold" font-size="17" fill="#111">H</text>
<circle cx="-30.8" cy="39.9" r="15" fill="url(#gH)" stroke="#111" stroke-width="3"/>
<text x="-30.8" y="40.6" text-anchor="middle" dominant-baseline="central" font-family="Arial, Helvetica, sans-serif" font-weight="bold" font-size="17" fill="#111">H</text>
<circle cx="64.5" cy="99.7" r="15" fill="url(#gH)" stroke="#111" stroke-width="3"/>
<text x="64.5" y="100.4" text-anchor="middle" dominant-baseline="central" font-family="Arial, Helvetica, sans-serif" font-weight="bold" font-size="17" fill="#111">H</text>
<circle cx="-164.3" cy="0.3" r="15" fill="url(#gH)" stroke="#111" stroke-width="3"/>
<text x="-164.3" y="1.0" text-anchor="middle" dominant-baseline="central" font-family="Arial, Helvetica, sans-serif" font-weight="bold" font-size="17" fill="#111">H</text>
</svg>