<svg xmlns="http://www.w3.org/2000/svg" viewBox="-212 -131 426 264" width="426" height="264">
<defs>
<radialGradient id="gC" cx="40%" cy="35%" r="70%"><stop offset="0" stop-color="#c9c9c9"/><stop offset="1" stop-color="#9d9d9d"/></radialGradient>
<radialGradient id="gH" cx="40%" cy="35%" r="70%"><stop offset="0" stop-color="#dfdfdf"/><stop offset="1" stop-color="#c6c6c6"/></radialGradient>
<radialGradient id="gN" cx="40%" cy="35%" r="70%"><stop offset="0" stop-color="#a4b5ea"/><stop offset="1" stop-color="#5a79d9"/></radialGradient>
<radialGradient id="gO" cx="40%" cy="35%" r="70%"><stop offset="0" stop-color="#f0918b"/><stop offset="1" stop-color="#e5382d"/></radialGradient>
<radialGradient id="gP" cx="40%" cy="35%" r="70%"><stop offset="0" stop-color="#f6c38a"/><stop offset="1" stop-color="#f0932b"/></radialGradient>
<radialGradient id="gS" cx="40%" cy="35%" r="70%"><stop offset="0" stop-color="#efe499"/><stop offset="1" stop-color="#e3cf46"/></radialGradient>
<radialGradient id="gMg" cx="40%" cy="35%" r="70%"><stop offset="0" stop-color="#b8e4b8"/><stop offset="1" stop-color="#7fcf7f"/></radialGradient>
<radialGradient id="gX" cx="40%" cy="35%" r="70%"><stop offset="0" stop-color="#e0e0e0"/><stop offset="1" stop-color="#b0b0b0"/></radialGradient>
<linearGradient id="l0" gradientUnits="userSpaceOnUse" x1="94.1" y1="33.5" x2="35.6" y2="-13.5"><stop offset="0.45" stop-color="#ec736c"/><stop offset="0.55" stop-color="#bababa"/></linearGradient>
<linearGradient id="l1" gradientUnits="userSpaceOnUse" x1="94.1" y1="33.5" x2="-34.3" y2="13.7"><stop offset="0.39" stop-color="#ec736c"/><stop offset="0.61" stop-color="#bababa"/></linearGradient>
<linearGradient id="l2" gradientUnits="userSpaceOnUse" x1="94.1" y1="33.5" x2="137.7" y2="9.0"><stop offset="0.45" stop-color="#ec736c"/><stop offset="0.55" stop-color="#d7d7d7"/></linearGradient>
<linearGradient id="l3" gradientUnits="userSpaceOnUse" x1="94.1" y1="33.5" x2="71.4" y2="-48.4"><stop offset="0.45" stop-color="#ec736c"/><stop offset="0.55" stop-color="#d7d7d7"/></linearGradient>
<linearGradient id="l4" gradientUnits="userSpaceOnUse" x1="94.1" y1="33.5" x2="7.5" y2="-54.8"><stop offset="0.41" stop-color="#ec736c"/><stop offset="0.64" stop-color="#d7d7d7"/></linearGradient>
<linearGradient id="l5" gradientUnits="userSpaceOnUse" x1="94.1" y1="33.5" x2="-9.8" y2="57.3"><stop offset="0.45" stop-color="#ec736c"/><stop offset="0.58" stop-color="#d7d7d7"/></linearGradient>
<linearGradient id="l6" gradientUnits="userSpaceOnUse" x1="35.6" y1="-13.5" x2="-34.3" y2="13.7"><stop offset="0.45" stop-color="#bababa"/><stop offset="0.55" stop-color="#bababa"/></linearGradient>
<linearGradient id="l7" gradientUnits="userSpaceOnUse" x1="35.6" y1="-13.5" x2="-92.8" y2="-33.3"><stop offset="0.39" stop-color="#bababa"/><stop offset="0.58" stop-color="#ebdd7d"/></linearGradient>
<linearGradient id="l8" gradientUnits="userSpaceOnUse" x1="35.6" y1="-13.5" x2="137.7" y2="9.0"><stop offset="0.45" stop-color="#bababa"/><stop offset="0.57" stop-color="#d7d7d7"/></linearGradient>
<linearGradient id="l9" gradientUnits="userSpaceOnUse" x1="35.6" y1="-13.5" x2="71.4" y2="-48.4"><stop offset="0.45" stop-color="#bababa"/><stop offset="0.55" stop-color="#d7d7d7"/></linearGradient>
<linearGradient id="l10" gradientUnits="userSpaceOnUse" x1="35.6" y1="-13.5" x2="7.5" y2="-54.8"><stop offset="0.45" stop-color="#bababa"/><stop offset="0.55" stop-color="#d7d7d7"/></linearGradient>
<linearGradient id="l11" gradientUnits="userSpaceOnUse" x1="35.6" y1="-13.5" x2="-9.8" y2="57.3"><stop offset="0.45" stop-color="#bababa"/><stop offset="0.55" stop-color="#d7d7d7"/></linearGradient>
<linearGradient id="l12" gradientUnits="userSpaceOnUse" x1="35.6" y1="-13.5" x2="-73.0" y2="45.3"><stop offset="0.41" stop-color="#bababa"/><stop offset="0.64" stop-color="#d7d7d7"/></linearGradient>
<linearGradient id="l13" gradientUnits="userSpaceOnUse" x1="-34.3" y1="13.7" x2="-92.8" y2="-33.3"><stop offset="0.45" stop-color="#bababa"/><stop offset="0.55" stop-color="#ebdd7d"/></linearGradient>
<linearGradient id="l14" gradientUnits="userSpaceOnUse" x1="-34.3" y1="13.7" x2="71.4" y2="-48.4"><stop offset="0.42" stop-color="#bababa"/><stop offset="0.63" stop-color="#d7d7d7"/></linearGradient>
<linearGradient id="l15" gradientUnits="userSpaceOnUse" x1="-34.3" y1="13.7" x2="7.5" y2="-54.8"><stop offset="0.45" stop-color="#bababa"/><stop offset="0.55" stop-color="#d7d7d7"/></linearGradient>
<linearGradient id="l16" gradientUnits="userSpaceOnUse" x1="-34.3" y1="13.7" x2="-9.8" y2="57.3"><stop offset="0.45" stop-color="#bababa"/><stop offset="0.55" stop-color="#d7d7d7"/></linearGradient>
<linearGradient id="l17" gradientUnits="userSpaceOnUse" x1="-34.3" y1="13.7" x2="-73.0" y2="45.3"><stop offset="0.45" stop-color="#bababa"/><stop offset="0.55" stop-color="#d7d7d7"/></linearGradient>
<linearGradient id="l18" gradientUnits="userSpaceOnUse" x1="-34.3" y1="13.7" x2="-136.4" y2="-8.8"><stop offset="0.45" stop-color="#bababa"/><stop offset="0.57" stop-color="#d7d7d7"/></linearGradient>
<linearGradient id="l19" gradientUnits="userSpaceOnUse" x1="-92.8" y1="-33.3" x2="7.5" y2="-54.8"><stop offset="0.45" stop-color="#ebdd7d"/><stop offset="0.56" stop-color="#d7d7d7"/></linearGradient>
<linearGradient id="l20" gradientUnits="userSpaceOnUse" x1="-92.8" y1="-33.3" x2="-9.8" y2="57.3"><stop offset="0.44" stop-color="#ebdd7d"/><stop offset="0.63" stop-color="#d7d7d7"/></linearGradient>
<linearGradient id="l21" gradientUnits="userSpaceOnUse" x1="-92.8" y1="-33.3" x2="-73.0" y2="45.3"><stop offset="0.45" stop-color="#ebdd7d"/><stop offset="0.55" stop-color="#d7d7d7"/></linearGradient>
<linearGradient id="l22" gradientUnits="userSpaceOnUse" x1="-92.8" y1="-33.3" x2="-136.4" y2="-8.8"><stop offset="0.45" stop-color="#ebdd7d"/><stop offset="0.55" stop-color="#d7d7d7"/></linearGradient>
<linearGradient id="l23" gradientUnits="userSpaceOnUse" x1="137.7" y1="9.0" x2="71.4" y2="-48.4"><stop offset="0.45" stop-color="#d7d7d7"/><stop offset="0.55" stop-color="#d7d7d7"/></linearGradient>
<linearGradient id="l24" gradientUnits="userSpaceOnUse" x1="137.7" y1="9.0" x2="7.5" y2="-54.8"><stop offset="0.31" stop-color="#d7d7d7"/><stop offset="0.69" stop-color="#d7d7d7"/></linearGradient>
<linearGradient id="l25" gradientUnits="userSpaceOnUse" x1="71.4" y1="-48.4" x2="7.5" y2="-54.8"><stop offset="0.45" stop-color="#d7d7d7"/><stop offset="0.55" stop-color="#d7d7d7"/></linearGradient>
<linearGradient id="l26" gradientUnits="userSpaceOnUse" x1="71.4" y1="-48.4" x2="-9.8" y2="57.3"><stop offset="0.34" stop-color="#d7d7d7"/><stop offset="0.66" stop-color="#d7d7d7"/></linearGradient>
<linearGradient id="l27" gradientUnits="userSpaceOnUse" x1="7.5" y1="-54.8" x2="-9.8" y2="57.3"><stop offset="0.40" stop-color="#d7d7d7"/><stop offset="0.60" stop-color="#d7d7d7"/></linearGradient>
<linearGradient id="l28" gradientUnits="userSpaceOnUse" x1="7.5" y1="-54.8" x2="-73.0" y2="45.3"><stop offset="0.35" stop-color="#d7d7d7"/><stop offset="0.65" stop-color="#d7d7d7"/></linearGradient>
<linearGradient id="l29" gradientUnits="userSpaceOnUse" x1="-9.8" y1="57.3" x2="-73.0" y2="45.3"><stop offset="0.45" stop-color="#d7d7d7"/><stop offset="0.55" stop-color="#d7d7d7"/></linearGradient>
<linearGradient id="l30" gradientUnits="userSpaceOnUse" x1="-9.8" y1="57.3" x2="-136.4" y2="-8.8"><stop offset="0.32" stop-color="#d7d7d7"/><stop offset="0.68" stop-color="#d7d7d7"/></linearGradient>
<linearGradient id="l31" gradientUnits="userSpaceOnUse" x1="-73.0" y1="45.3" x2="-136.4" y2="-8.8"><stop offset="0.45" stop-color="#d7d7d7"/><stop offset="0.55" stop-color="#d7d7d7"/></linearGradient>
<linearGradient id="l32" gradientUnits="userSpaceOnUse" x1="94.1" y1="33.5" x2="35.6" y2="-13.5"><stop offset="0.45" stop-color="#ec736c"/><stop offset="0.55" stop-color="#bababa"/></linearGradient>
<linearGradient id="l33" gradientUnits="userSpaceOnUse" x1="35.6" y1="-13.5" x2="-34.3" y2="13.7"><stop offset="0.45" stop-color="#bababa"/><stop offset="0.55" stop-color="#bababa"/></linearGradient>
<linearGradient id="l34" gradientUnits="userSpaceOnUse" x1="-34.3" y1="13.7" x2="-92.8" y2="-33.3"><stop offset="0.45" stop-color="#bababa"/><stop offset="0.55" stop-color="#ebdd7d"/></linearGradient>
<linearGradient id="l35" gradientUnits="userSpaceOnUse" x1="94.1" y1="33.5" x2="137.7" y2="9.0"><stop offset="0.45" stop-color="#ec736c"/><stop offset="0.55" stop-color="#d7d7d7"/></linearGradient>
<linearGradient id="l36" gradientUnits="userSpaceOnUse" x1="35.6" y1="-13.5" x2="71.4" y2="-48.4"><stop offset="0.45" stop-color="#bababa"/><stop offset="0.55" stop-color="#d7d7d7"/></linearGradient>
<linearGradient id="l37" gradientUnits="userSpaceOnUse" x1="35.6" y1="-13.5" x2="7.5" y2="-54.8"><stop offset="0.45" stop-color="#bababa"/><stop offset="0.55" stop-color="#d7d7d7"/></linearGradient>
<linearGradient id="l38" gradientUnits="userSpaceOnUse" x1="-34.3" y1="13.7" x2="-9.8" y2="57.3"><stop offset="0.45" stop-color="#bababa"/><stop offset="0.55" stop-color="#d7d7d7"/></linearGradient>
<linearGradient id="l39" gradientUnits="userSpaceOnUse" x1="-34.3" y1="13.7" x2="-73.0" y2="45.3"><stop offset="0.45" stop-color="#bababa"/><stop offset="0.55" stop-color="#d7d7d7"/></linearGradient>
<linearGradient id="l40" gradientUnits="userSpaceOnUse" x1="-92.8" y1="-33.3" x2="-136.4" y2="-8.8"><stop offset="0.45" stop-color="#ebdd7d"/><stop offset="0.55" stop-color="#d7d7d7"/></linearGradient>
</defs>
<g fill="#2fa84f" stroke="#2fa84f" stroke-linecap="round" stroke-linejoin="round">
<line x1="-92.8" y1="-33.3" x2="-136.4" y2="-8.8" stroke-width="88.0"/>
<circle cx="-136.4" cy="-8.8" r="59.0" stroke="none"/>
<circle cx="-92.8" cy="-33.3" r="68.0" stroke="none"/>
</g>
<g fill="#111" stroke="#111" stroke-linecap="round" stroke-linejoin="round">
<line x1="94.1" y1="33.5" x2="35.6" y2="-13.5" stroke-width="70.0"/>
<line x1="35.6" y1="-13.5" x2="-34.3" y2="13.7" stroke-width="70.0"/>
<line x1="-34.3" y1="13.7" x2="-92.8" y2="-33.3" stroke-width="70.0"/>
<line x1="94.1" y1="33.5" x2="137.7" y2="9.0" stroke-width="70.0"/>
<line x1="35.6" y1="-13.5" x2="71.4" y2="-48.4" stroke-width="70.0"/>
<line x1="35.6" y1="-13.5" x2="7.5" y2="-54.8" stroke-width="70.0"/>
<line x1="-34.3" y1="13.7" x2="-9.8" y2="57.3" stroke-width="70.0"/>
<line x1="-34.3" y1="13.7" x2="-73.0" y2="45.3" stroke-width="70.0"/>
<line x1="-92.8" y1="-33.3" x2="-136.4" y2="-8.8" stroke-width="70.0"/>
<line x1="94.1" y1="33.5" x2="35.6" y2="-13.5" stroke-width="70.0"/>
<line x1="94.1" y1="33.5" x2="-34.3" y2="13.7" stroke-width="70.0"/>
<line x1="94.1" y1="33.5" x2="137.7" y2="9.0" stroke-width="70.0"/>
<line x1="94.1" y1="33.5" x2="71.4" y2="-48.4" stroke-width="70.0"/>
<line x1="94.1" y1="33.5" x2="7.5" y2="-54.8" stroke-width="70.0"/>
<line x1="94.1" y1="33.5" x2="-9.8" y2="57.3" stroke-width="70.0"/>
<line x1="35.6" y1="-13.5" x2="-34.3" y2="13.7" stroke-width="70.0"/>
<line x1="35.6" y1="-13.5" x2="-92.8" y2="-33.3" stroke-width="70.0"/>
<line x1="35.6" y1="-13.5" x2="137.7" y2="9.0" stroke-width="70.0"/>
<line x1="35.6" y1="-13.5" x2="71.4" y2="-48.4" stroke-width="70.0"/>
<line x1="35.6" y1="-13.5" x2="7.5" y2="-54.8" stroke-width="70.0"/>
<line x1="35.6" y1="-13.5" x2="-9.8" y2="57.3" stroke-width="70.0"/>
<line x1="35.6" y1="-13.5" x2="-73.0" y2="45.3" stroke-width="70.0"/>
<line x1="-34.3" y1="13.7" x2="-92.8" y2="-33.3" stroke-width="70.0"/>
<line x1="-34.3" y1="13.7" x2="71.4" y2="-48.4" stroke-width="70.0"/>
<line x1="-34.3" y1="13.7" x2="7.5" y2="-54.8" stroke-width="70.0"/>
<line x1="-34.3" y1="13.7" x2="-9.8" y2="57.3" stroke-width="70.0"/>
<line x1="-34.3" y1="13.7" x2="-73.0" y2="45.3" stroke-width="70.0"/>
<line x1="-34.3" y1="13.7" x2="-136.4" y2="-8.8" stroke-width="70.0"/>
<line x1="-92.8" y1="-33.3" x2="7.5" y2="-54.8" stroke-width="70.0"/>
<line x1="-92.8" y1="-33.3" x2="-9.8" y2="57.3" stroke-width="70.0"/>
<line x1="-92.8" y1="-33.3" x2="-73.0" y2="45.3" stroke-width="70.0"/>
<line x1="-92.8" y1="-33.3" x2="-136.4" y2="-8.8" stroke-width="70.0"/>
<line x1="137.7" y1="9.0" x2="71.4" y2="-48.4" stroke-width="70.0"/>
<line x1="137.7" y1="9.0" x2="7.5" y2="-54.8" stroke-width="70.0"/>
<line x1="71.4" y1="-48.4" x2="7.5" y2="-54.8" stroke-width="70.0"/>
<line x1="71.4" y1="-48.4" x2="-9.8" y2="57.3" stroke-width="70.0"/>
<line x1="7.5" y1="-54.8" x2="-9.8" y2="57.3" stroke-width="70.0"/>
<line x1="7.5" y1="-54.8" x2="-73.0" y2="45.3" stroke-width="70.0"/>
<line x1="-9.8" y1="57.3" x2="-73.0" y2="45.3" stroke-width="70.0"/>
<line x1="-9.8" y1="57.3" x2="-136.4" y2="-8.8" stroke-width="70.0"/>
<line x1="-73.0" y1="45.3" x2="-136.4" y2="-8.8" stroke-width="70.0"/>
<circle cx="94.1" cy="33.5" r="56.0" stroke="none"/>
<circle cx="35.6" cy="-13.5" r="56.0" stroke="none"/>
<circle cx="-34.3" cy="13.7" r="56.0" stroke="none"/>
<circle cx="-92.8" cy="-33.3" r="59.0" stroke="none"/>
<circle cx="137.7" cy="9.0" r="50.0" stroke="none"/>
<circle cx="71.4" cy="-48.4" r="50.0" stroke="none"/>
<circle cx="7.5" cy="-54.8" r="50.0" stroke="none"/>
<circle cx="-9.8" cy="57.3" r="50.0" stroke="none"/>
<circle cx="-73.0" cy="45.3" r="50.0" stroke="none"/>
<circle cx="-136.4" cy="-8.8" r="50.0" stroke="none"/>
</g>
<g stroke-linejoin="round">
<line x1="94.1" y1="33.5" x2="35.6" y2="-13.5" stroke="url(#l0)" stroke-width="60.0" stroke-linecap="round"/>
<line x1="94.1" y1="33.5" x2="-34.3" y2="13.7" stroke="url(#l1)" stroke-width="60.0" stroke-linecap="round"/>
<line x1="94.1" y1="33.5" x2="137.7" y2="9.0" stroke="url(#l2)" stroke-width="60.0" stroke-linecap="round"/>
<line x1="94.1" y1="33.5" x2="71.4" y2="-48.4" stroke="url(#l3)" stroke-width="60.0" stroke-linecap="round"/>
<line x1="94.1" y1="33.5" x2="7.5" y2="-54.8" stroke="url(#l4)" stroke-width="60.0" stroke-linecap="round"/>
<line x1="94.1" y1="33.5" x2="-9.8" y2="57.3" stroke="url(#l5)" stroke-width="60.0" stroke-linecap="round"/>
<line x1="35.6" y1="-13.5" x2="-34.3" y2="13.7" stroke="url(#l6)" stroke-width="60.0" stroke-linecap="round"/>
<line x1="35.6" y1="-13.5" x2="-92.8" y2="-33.3" stroke="url(#l7)" stroke-width="60.0" stroke-linecap="round"/>
<line x1="35.6" y1="-13.5" x2="137.7" y2="9.0" stroke="url(#l8)" stroke-width="60.0" stroke-linecap="round"/>
<line x1="35.6" y1="-13.5" x2="71.4" y2="-48.4" stroke="url(#l9)" stroke-width="60.0" stroke-linecap="round"/>
<line x1="35.6" y1="-13.5" x2="7.5" y2="-54.8" stroke="url(#l10)" stroke-width="60.0" stroke-linecap="round"/>
<line x1="35.6" y1="-13.5" x2="-9.8" y2="57.3" stroke="url(#l11)" stroke-width="60.0" stroke-linecap="round"/>
<line x1="35.6" y1="-13.5" x2="-73.0" y2="45.3" stroke="url(#l12)" stroke-width="60.0" stroke-linecap="round"/>
<line x1="-34.3" y1="13.7" x2="-92.8" y2="-33.3" stroke="url(#l13)" stroke-width="60.0" stroke-linecap="round"/>
<line x1="-34.3" y1="13.7" x2="71.4" y2="-48.4" stroke="url(#l14)" stroke-width="60.0" stroke-linecap="round"/>
<line x1="-34.3" y1="13.7" x2="7.5" y2="-54.8" stroke="url(#l15)" stroke-width="60.0" stroke-linecap="round"/>
<line x1="-34.3" y1="13.7" x2="-9.8" y2="57.3" stroke="url(#l16)" stroke-width="60.0" stroke-linecap="round"/>
<line x1="-34.3" y1="13.7" x2="-73.0" y2="45.3" stroke="url(#l17)" stroke-width="60.0" stroke-linecap="round"/>
<line x1="-34.3" y1="13.7" x2="-136.4" y2="-8.8" stroke="url(#l18)" stroke-width="60.0" stroke-linecap="round"/>
<line x1="-92.8" y1="-33.3" x2="7.5" y2="-54.8" stroke="url(#l19)" stroke-width="60.0" stroke-linecap="round"/>
<line x1="-92.8" y1="-33.3" x2="-9.8" y2="57.3" stroke="url(#l20)" stroke-width="60.0" stroke-linecap="round"/>
<line x1="-92.8" y1="-33.3" x2="-73.0" y2="45.3" stroke="url(#l21)" stroke-width="60.0" stroke-linecap="round"/>
<line x1="-92.8" y1="-33.3" x2="-136.4" y2="-8.8" stroke="url(#l22)" stroke-width="60.0" stroke-linecap="round"/>
<line x1="137.7" y1="9.0" x2="71.4" y2="-48.4" stroke="url(#l23)" stroke-width="60.0" stroke-linecap="round"/>
<line x1="137.7" y1="9.0" x2="7.5" y2="-54.8" stroke="url(#l24)" stroke-width="60.0" stroke-linecap="round"/>
<line x1="71.4" y1="-48.4" x2="7.5" y2="-54.8" stroke="url(#l25)" stroke-width="60.0" stroke-linecap="round"/>
<line x1="71.4" y1="-48.4" x2="-9.8" y2="57.3" stroke="url(#l26)" stroke-width="60.0" stroke-linecap="round"/>
<line x1="7.5" y1="-54.8" x2="-9.8" y2="57.3" stroke="url(#l27)" stroke-width="60.0" stroke-linecap="round"/>
<line x1="7.5" y1="-54.8" x2="-73.0" y2="45.3" stroke="url(#l28)" stroke-width="60.0" stroke-linecap="round"/>
<line x1="-9.8" y1="57.3" x2="-73.0" y2="45.3" stroke="url(#l29)" stroke-width="60.0" stroke-linecap="round"/>
<line x1="-9.8" y1="57.3" x2="-136.4" y2="-8.8" stroke="url(#l30)" stroke-width="60.0" stroke-linecap="round"/>
<line x1="-73.0" y1="45.3" x2="-136.4" y2="-8.8" stroke="url(#l31)" stroke-width="60.0" stroke-linecap="round"/>
<line x1="94.1" y1="33.5" x2="35.6" y2="-13.5" stroke="url(#l32)" stroke-width="60.0" stroke-linecap="round"/>
<line x1="35.6" y1="-13.5" x2="-34.3" y2="13.7" stroke="url(#l33)" stroke-width="60.0" stroke-linecap="round"/>
<line x1="-34.3" y1="13.7" x2="-92.8" y2="-33.3" stroke="url(#l34)" stroke-width="60.0" stroke-linecap="round"/>
<line x1="94.1" y1="33.5" x2="137.7" y2="9.0" stroke="url(#l35)" stroke-width="60.0" stroke-linecap="round"/>
<line x1="35.6" y1="-13.5" x2="71.4" y2="-48.4" stroke="url(#l36)" stroke-width="60.0" stroke-linecap="round"/>
<line x1="35.6" y1="-13.5" x2="7.5" y2="-54.8" stroke="url(#l37)" stroke-width="60.0" stroke-linecap="round"/>
<line x1="-34.3" y1="13.7" x2="-9.8" y2="57.3" stroke="url(#l38)" stroke-width="60.0" stroke-linecap="round"/>
<line x1="-34.3" y1="13.7" x2="-73.0" y2="45.3" stroke="url(#l39)" stroke-width="60.0" stroke-linecap="round"/>
<line x1="-92.8" y1="-33.3" x2="-136.4" y2="-8.8" stroke="url(#l40)" stroke-width="60.0" stroke-linecap="round"/>
<circle cx="94.1" cy="33.5" r="51.0" fill="#ec736c" stroke="none"/>
<circle cx="35.6" cy="-13.5" r="51.0" fill="#bababa" stroke="none"/>
<circle cx="-34.3" cy="13.7" r="51.0" fill="#bababa" stroke="none"/>
<circle cx="-92.8" cy="-33.3" r="54.0" fill="#ebdd7d" stroke="none"/>
<circle cx="137.7" cy="9.0" r="45.0" fill="#d7d7d7" stroke="none"/>
<circle cx="71.4" cy="-48.4" r="45.0" fill="#d7d7d7" stroke="none"/>
<circle cx="7.5" cy="-54.8" r="45.0" fill="#d7d7d7" stroke="none"/>
<circle cx="-9.8" cy="57.3" r="45.0" fill="#d7d7d7" stroke="none"/>
<circle cx="-73.0" cy="45.3" r="45.0" fill="#d7d7d7" stroke="none"/>
<circle cx="-136.4" cy="-8.8" r="45.0" fill="#d7d7d7" stroke="none"/>
</g>
<g stroke="#111" stroke-width="6" stroke-linecap="round">
<line x1="94.1" y1="33.5" x2="35.6" y2="-13.5"/>
<line x1="35.6" y1="-13.5" x2="-34.3" y2="13.7"/>
<line x1="-34.3" y1="13.7" x2="-92.8" y2="-33.3"/>
<line x1="94.1" y1="33.5" x2="137.7" y2="9.0"/>
<line x1="35.6" y1="-13.5" x2="71.4" y2="-48.4"/>
<line x1="35.6" y1="-13.5" x2="7.5" y2="-54.8"/>
<line x1="-34.3" y1="13.7" x2="-9.8" y2="57.3"/>
<line x1="-34.3" y1="13.7" x2="-73.0" y2="45.3"/>
<line x1="-92.8" y1="-33.3" x2="-136.4" y2="-8.8"/>
</g>
<circle cx="94.1" cy="33.5" r="21" fill="url(#gO)" stroke="#111" stroke-width="3"/>
<text x="94.1" y="34.4" text-anchor="middle" dominant-baseline="central" font-family="Arial, Helvetica, sans-serif" font-weight="bold" font-size="24" fill="#111">O</text>
<circle cx="35.6" cy="-13.5" r="21" fill="url(#gC)" stroke="#111" stroke-width="3"/>
<text x="35.6" y="-12.5" text-anchor="middle" dominant-baseline="central" font-family="Arial, Helvetica, sans-serif" font-weight="bold" font-size="24" fill="#111">C</text>
<circle cx="-34.3" cy="13.7" r="21" fill="url(#gC)" stroke="#111" stroke-width="3"/>
<text x="-34.3" y="14.6" text-anchor="middle" dominant-baseline="central" font-family="Arial, Helvetica, sans-serif" font-weight="bold" font-size="24" fill="#111">C</text>
<circle cx="-92.8" cy="-33.3" r="24" fill="url(#gS)" stroke="#111" stroke-width="3"/>
<text x="-92.8" y="-32.2" text-anchor="middle" dominant-baseline="central" font-family="Arial, Helvetica, sans-serif" font-weight="bold" font-size="28" fill="#111">S</text>
<circle cx="137.7" cy="9.0" r="15" fill="url(#gH)" stroke="#111" stroke-width="3"/>
<text x="137.7" y="9.7" text-anchor="middle" dominant-baseline="central" font-family="Arial, Helvetica, sans-serif" font-weight="bold" font-size="17" fill="#111">H</text>
<circle cx="71.4" cy="-48.4" r="15" fill="url(#gH)" stroke="#111" stroke-width="3"/>
<text x="71.4" y="-47.7" text-anchor="middle" dominant-baseline="central" font-family="Arial, Helvetica, sans-serif" font-weight="bold" font-size="17" fill="#111">H</text>
<circle cx="7.5" cy="-54.8" r="15" fill="url(#gH)" stroke="#111" stroke-width="3"/>
<text x="7.5" y="-54.1" text-anchor="middle" dominant-baseline="central" font-family="Arial, Helvetica, sans-serif" font-weight="bold" font-size="17" fill="#111">H</text>
<circle cx="-9.8" cy="57.3" r="15" fill="url(#gH)" stroke="#111" stroke-width="3"/>
<text x="-9.8" y="58.0" text-anchor="middle" dominant-baseline="central" font-family="Arial, Helvetica, sans-serif" font-weight="bold" font-size="17" fill="#111">H</text>
<circle cx="-73.0" cy="45.3" r="15" fill="url(#gH)" stroke="#111" stroke-width="3"/>
<text x="-73.0" y="46.0" text-anchor="middle" dominant-baseline="central" font-family="Arial, Helvetica, sans-serif" font-weight="bold" font-size="17" fill="#111">H</text>
<circle cx="-136.4" cy="-8.8" r="15" fill="url(#gH)" stroke="#111" stroke-width="3"/>
<text x="-136.4" y="-8.1" text-anchor="middle" dominant-baseline="central" font-family="Arial, Helvetica, sans-serif" font-weight="bold" font-size="17" fill="#111">H</text>
</svg>