<svg xmlns="http://www.w3.org/2000/svg" viewBox="0 0 400 400" width="400" height="400">
<rect width="400" height="400" fill="#f2e6c9"/>
<circle cx="200.0" cy="200.0" r="52.0" fill="none" stroke="#9a8f80" stroke-width="1.4" stroke-dasharray="4 4"/>
<circle cx="200.0" cy="200.0" r="111.0" fill="none" stroke="#9a8f80" stroke-width="1.4" stroke-dasharray="4 4"/>
<circle cx="200.0" cy="200.0" r="170.0" fill="none" stroke="#9a8f80" stroke-width="1.4" stroke-dasharray="4 4"/>
<circle cx="200.0" cy="200.0" r="6.1" fill="#8d8880" stroke="#3a2f22" stroke-width="0.8"/>
<circle cx="195.4" cy="204.2" r="6.1" fill="#8d8880" stroke="#3a2f22" stroke-width="0.8"/>
<circle cx="200.8" cy="191.3" r="6.1" fill="#e2574c" stroke="#3a2f22" stroke-width="0.8"/>
<circle cx="206.5" cy="208.5" r="6.1" fill="#8d8880" stroke="#3a2f22" stroke-width="0.8"/>
<circle cx="187.8" cy="197.8" r="6.1" fill="#e2574c" stroke="#3a2f22" stroke-width="0.8"/>
<circle cx="211.7" cy="192.5" r="6.1" fill="#8d8880" stroke="#3a2f22" stroke-width="0.8"/>
<circle cx="196.1" cy="214.7" r="6.1" fill="#e2574c" stroke="#3a2f22" stroke-width="0.8"/>
<circle cx="192.4" cy="185.4" r="6.1" fill="#8d8880" stroke="#3a2f22" stroke-width="0.8"/>
<circle cx="216.5" cy="206.0" r="6.1" fill="#e2574c" stroke="#3a2f22" stroke-width="0.8"/>
<circle cx="182.8" cy="207.1" r="6.1" fill="#8d8880" stroke="#3a2f22" stroke-width="0.8"/>
<circle cx="208.3" cy="182.2" r="6.1" fill="#e2574c" stroke="#3a2f22" stroke-width="0.8"/>
<circle cx="206.2" cy="219.6" r="6.1" fill="#8d8880" stroke="#3a2f22" stroke-width="0.8"/>
<circle cx="181.4" cy="189.2" r="6.1" fill="#e2574c" stroke="#3a2f22" stroke-width="0.8"/>
<circle cx="221.9" cy="195.2" r="6.1" fill="#8d8880" stroke="#3a2f22" stroke-width="0.8"/>
<circle cx="186.6" cy="219.0" r="6.1" fill="#e2574c" stroke="#3a2f22" stroke-width="0.8"/>
<circle cx="196.9" cy="176.2" r="6.1" fill="#8d8880" stroke="#3a2f22" stroke-width="0.8"/>
<circle cx="219.0" cy="216.0" r="6.1" fill="#e2574c" stroke="#3a2f22" stroke-width="0.8"/>
<circle cx="174.4" cy="201.1" r="6.1" fill="#8d8880" stroke="#3a2f22" stroke-width="0.8"/>
<circle cx="218.7" cy="181.4" r="6.1" fill="#e2574c" stroke="#3a2f22" stroke-width="0.8"/>
<circle cx="198.8" cy="227.0" r="6.1" fill="#8d8880" stroke="#3a2f22" stroke-width="0.8"/>
<circle cx="182.2" cy="178.7" r="6.1" fill="#e2574c" stroke="#3a2f22" stroke-width="0.8"/>
<circle cx="228.2" cy="203.8" r="6.1" fill="#8d8880" stroke="#3a2f22" stroke-width="0.8"/>
<circle cx="176.1" cy="216.6" r="6.1" fill="#e2574c" stroke="#3a2f22" stroke-width="0.8"/>
<circle cx="206.5" cy="171.0" r="6.1" fill="#8d8880" stroke="#3a2f22" stroke-width="0.8"/>
<circle cx="215.1" cy="226.4" r="6.1" fill="#e2574c" stroke="#3a2f22" stroke-width="0.8"/>
<circle cx="170.4" cy="190.6" r="6.1" fill="#8d8880" stroke="#3a2f22" stroke-width="0.8"/>
<circle cx="228.7" cy="186.7" r="6.1" fill="#e2574c" stroke="#3a2f22" stroke-width="0.8"/>
<circle cx="187.5" cy="229.8" r="6.1" fill="#8d8880" stroke="#3a2f22" stroke-width="0.8"/>
<circle cx="188.9" cy="169.1" r="6.1" fill="#e2574c" stroke="#3a2f22" stroke-width="0.8"/>
<circle cx="229.6" cy="215.6" r="6.1" fill="#8d8880" stroke="#3a2f22" stroke-width="0.8"/>
<circle cx="167.1" cy="208.7" r="6.1" fill="#e2574c" stroke="#3a2f22" stroke-width="0.8"/>
<circle cx="200.0" cy="148.0" r="5.2" fill="#0f73ff" stroke="#083c8a" stroke-width="0.8"/>
<circle cx="200.0" cy="252.0" r="5.2" fill="#0f73ff" stroke="#083c8a" stroke-width="0.8"/>
<circle cx="200.0" cy="89.0" r="5.2" fill="#0f73ff" stroke="#083c8a" stroke-width="0.8"/>
<circle cx="278.5" cy="121.5" r="5.2" fill="#0f73ff" stroke="#083c8a" stroke-width="0.8"/>
<circle cx="311.0" cy="200.0" r="5.2" fill="#0f73ff" stroke="#083c8a" stroke-width="0.8"/>
<circle cx="278.5" cy="278.5" r="5.2" fill="#0f73ff" stroke="#083c8a" stroke-width="0.8"/>
<circle cx="200.0" cy="311.0" r="5.2" fill="#0f73ff" stroke="#083c8a" stroke-width="0.8"/>
<circle cx="121.5" cy="278.5" r="5.2" fill="#0f73ff" stroke="#083c8a" stroke-width="0.8"/>
<circle cx="89.0" cy="200.0" r="5.2" fill="#0f73ff" stroke="#083c8a" stroke-width="0.8"/>
<circle cx="121.5" cy="121.5" r="5.2" fill="#0f73ff" stroke="#083c8a" stroke-width="0.8"/>
<circle cx="200.0" cy="30.0" r="5.2" fill="#0f73ff" stroke="#083c8a" stroke-width="0.8"/>
<circle cx="361.7" cy="147.5" r="5.2" fill="#0f73ff" stroke="#083c8a" stroke-width="0.8"/>
<circle cx="299.9" cy="337.5" r="5.2" fill="#0f73ff" stroke="#083c8a" stroke-width="0.8"/>
<circle cx="100.1" cy="337.5" r="5.2" fill="#0f73ff" stroke="#083c8a" stroke-width="0.8"/>
<circle cx="38.3" cy="147.5" r="5.2" fill="#0f73ff" stroke="#083c8a" stroke-width="0.8"/>
<text x="386" y="386" text-anchor="end" font-family="Georgia,serif" font-size="30" fill="#3a2f22">P</text>
</svg>